<?xml version="1.0" encoding="utf-8"?>
<!-- Generator: Adobe Illustrator 15.0.2, SVG Export Plug-In . SVG Version: 6.00 Build 0)  -->
<!DOCTYPE svg PUBLIC "-//W3C//DTD SVG 1.1//EN" "http://www.w3.org/Graphics/SVG/1.1/DTD/svg11.dtd">
<svg version="1.1" id="Layer_7" xmlns="http://www.w3.org/2000/svg" xmlns:xlink="http://www.w3.org/1999/xlink" x="0px" y="0px"
	 width="602.459px" height="181.49px" viewBox="0 0 602.459 181.49" enable-background="new 0 0 602.459 181.49"
	 xml:space="preserve">
<path fill="#231F20" d="M316.875,46.842h25.864l8.621,100.76h-24.786l-4.311-50.381h-1.077l-10.777,37.426h-19.398l-10.775-37.426
	h-1.078l-4.311,50.381H250.06l8.621-100.76h25.865l15.626,50.379h1.077L316.875,46.842z"/>
<path fill="#231F20" d="M414.403,146.162c0,0-13.471,4.316-28.558,4.316c-19.938,0-28.559-11.514-28.559-25.908
	c0-12.955,8.621-24.471,26.942-24.471c3.232,0,8.082,0.719,8.082,0.719v-1.438c-0.107,0-1.617-5.039-9.699-5.039
	c-5.927,0-10.776,4.318-10.776,4.318l-8.083-19.432c0,0,8.083-7.918,21.015-7.918c18.859,0,29.636,14.395,29.636,35.268V146.162z
	 M385.846,118.813c-3.771,0-5.928,3.023-5.928,5.902c0,2.877,2.156,5.613,5.928,5.613s6.466-0.721,6.466-0.721v-10.795H385.846z"/>
<path fill="#231F20" d="M452.66,147.602h-23.709V46.842h37.181c22.631,0,33.945,15.113,33.945,35.984
	c0,20.873-11.314,35.986-33.945,35.986H452.66V147.602z M452.66,71.311v23.031h13.472c5.388,0,9.159-5.037,9.159-11.516
	c0-6.477-3.771-11.516-9.159-11.516H452.66z"/>
<path fill="#231F20" d="M534.563,147.602h-23.708V46.842h37.18c22.631,0,33.945,15.113,33.945,35.984
	c0,20.873-11.314,35.986-33.945,35.986h-13.472V147.602z M534.563,71.311v23.031h13.472c5.388,0,9.159-5.037,9.159-11.516
	c0-6.477-3.771-11.516-9.159-11.516H534.563z"/>
<path fill="#231F20" d="M75.77,119.053l5.56-3.657l-6.327,2.153c-2.164-3.368-6.419-4.79-10.176-3.391l-3.748-5.698l2.199,6.461
	c-3.401,2.12-4.867,6.347-3.536,10.107l-5.599,3.684l6.318-2.15c2.115,3.55,6.494,5.078,10.346,3.631l3.588,5.454l-2.104-6.181
	C75.809,127.304,77.283,122.897,75.77,119.053z M73.954,117.905l-5.444,1.852l-3.076-4.677
	C68.576,114.026,72.066,115.186,73.954,117.905z M63.632,115.966l1.808,5.314l-4.775,3.142
	C59.674,121.275,60.882,117.813,63.632,115.966z M61.498,126.208l5.464-1.858l3.239,4.922
	C66.959,130.367,63.346,129.108,61.498,126.208z M71.936,128.423l-1.904-5.596l4.824-3.172
	C76.018,122.893,74.802,126.532,71.936,128.423z"/>
<g>
	<path fill="#231F20" d="M142.064,66.003c0.823-0.055,1.598-0.311,2.194-0.932c1.188-1.236,2.288-0.323,3.429-0.923
		c0.529-0.277,0.488-1.04,1.05-0.777c1.507,0.706,2.509,1.755,3.728,2.837c0.414,0.367,1.174-0.532,0.757-0.902
		c-1.217-1.08-3.307-3.729-5.19-2.945c-0.243,0.102-0.374,0.411-0.492,0.617c-0.2,0.354-1.258,0.096-1.731,0.084
		c-1.455-0.036-1.921,1.796-3.408,1.895C141.89,64.99,141.417,66.046,142.064,66.003L142.064,66.003z"/>
</g>
<g>
	<path fill="#231F20" d="M150.816,67.995c0.854-0.828,1.806-1.47,2.854-2.037c1.75-0.948,3.075-0.511,4.797,0.184
		c0.855,0.345,2.315,0.257,2.906,1.007c0.341,0.434,1.16,0.786,1.68,0.967c0.5,0.172,1.129-0.815,0.563-1.012
		c-1.096-0.378-1.621-1.269-2.757-1.528c-1.368-0.313-2.952-1.231-4.338-1.297c-2.268-0.105-4.55,1.452-6.111,2.967
		C149.953,67.687,150.258,68.538,150.816,67.995L150.816,67.995z"/>
</g>
<g>
	<path fill="#231F20" d="M159.872,66.473c0.97-0.194,1.37-0.558,2.173-1.188c1.08-0.848,2.701-0.178,4.008-0.617
		c1.672-0.562,3.04-0.116,3.586-2.078c-0.28,0.15-0.561,0.3-0.842,0.45c0.789,0.95,1.008,1.503,2.223,1.729
		c1.432,0.265,2.174,1.438,3.391,2.113c0.452,0.25,1.095-0.716,0.563-1.012c-0.79-0.438-1.277-1.235-2.055-1.657
		c-1.212-0.657-2.422-0.939-3.364-2.075c-0.264-0.318-0.775,0.211-0.843,0.45c-0.371,1.338-4.552,1.266-5.354,1.176
		c-1.317-0.147-2.177,1.452-3.396,1.697C159.439,65.565,159.158,66.616,159.872,66.473L159.872,66.473z"/>
</g>
<g>
	<path fill="#231F20" d="M155.697,62.372c1.454-0.968,2.612-2.605,4.491-1.222c1.072,0.789,1.603,1.275,2.964,1.542
		c0.516,0.101,1.129-0.9,0.563-1.012c-0.998-0.194-1.754-0.448-2.495-1.179c-0.564-0.557-1.286-0.911-2.094-0.944
		c-1.728-0.072-2.51,1.181-3.836,2.064C154.742,61.986,155.059,62.798,155.697,62.372L155.697,62.372z"/>
</g>
<g>
	<path fill="#231F20" d="M156.98,74.355c1.34-0.577,2.045-1.583,3.634-1.682c0.569-0.035,1.011-0.586,1.293-1.015
		c0.608-0.922,1.635,0.165,2.438,0.251c0.695,0.074,1.408,0.068,2.093,0.23c0.816,0.193,1.672,1.146,2.397,1.58
		c0.481,0.288,1.218-0.627,0.757-0.902c-0.981-0.588-1.952-1.716-3.16-1.813c-1.063-0.087-2.068-0.042-2.978-0.71
		c-0.317-0.233-0.28-0.27-0.671-0.299c-1.003-0.073-1.512,1.611-2.473,1.671c-1.611,0.101-2.024,1.143-3.493,1.776
		C156.283,73.673,156.271,74.661,156.98,74.355L156.98,74.355z"/>
</g>
<g>
	<path fill="#231F20" d="M166.919,75.986c0.905-0.437,1.639-0.972,2.407-1.617c1.351-1.136,1.847-1.6,3.598-1.178
		c1.149,0.277,1.793-1.015,2.221-1.812c-0.229,0.123-0.458,0.246-0.688,0.37c1.86,0.823,2.806,2.59,4.246,3.917
		c0.405,0.374,1.168-0.523,0.757-0.902c-1.508-1.39-2.499-3.166-4.44-4.026c-0.258-0.114-0.576,0.165-0.686,0.37
		c-0.975,1.822-1.846,0.01-2.912,0.56c-1.725,0.889-2.895,2.551-4.666,3.406C166.236,75.324,166.223,76.322,166.919,75.986
		L166.919,75.986z"/>
</g>
<g>
	<path fill="#231F20" d="M176.909,73.53c0.743-0.302,1.253-0.735,1.775-1.33c0.209-0.237,0.376-0.522,0.544-0.788
		c0.477-0.755,1.132-0.083,1.74,0.014c0.492,0.077,0.879-0.414,1.152-0.746c0.823-0.999,1.708-1.91,2.577-2.874
		c-0.255,0.033-0.51,0.066-0.765,0.1c0.451,0.571,0.22,1.192,0.595,1.712c0.433,0.601,0.911,1.032,1.519,1.463
		c0.457,0.324,1.203-0.585,0.757-0.902c-0.601-0.427-1.255-0.852-1.461-1.646c-0.153-0.592-0.13-0.872-0.512-1.355
		c-0.223-0.282-0.56-0.128-0.765,0.1c-0.765,0.847-1.656,1.601-2.338,2.519c-0.477,0.641-0.996,0.248-1.611,0.194
		c-1.451-0.126-2.21,2.156-3.371,2.629C176.207,72.837,176.195,73.82,176.909,73.53L176.909,73.53z"/>
</g>
<g>
	<path fill="#231F20" d="M186.303,71.139c0.561-0.154,1.029-0.442,1.488-0.793c-0.217-0.003-0.436-0.007-0.652-0.011
		c0.575,1.101,1.809,1.388,2.561,2.301c0.338,0.411,1.113-0.47,0.757-0.902c-0.698-0.849-1.89-1.114-2.42-2.127
		c-0.137-0.262-0.474-0.147-0.652-0.011c-0.313,0.239-0.608,0.425-0.992,0.529C185.884,70.265,185.604,71.33,186.303,71.139
		L186.303,71.139z"/>
</g>
<g>
	<path fill="#231F20" d="M188.185,75.098c0.638-0.659,1.198-1.387,1.796-2.081c0.905-1.053,1.666-1.565,3.07-1.203
		c1.379,0.356,2.264,0.19,2.887-1.203c0.314-0.702-0.541-0.871-0.811-0.271c-0.473,1.059-1.458,0.388-2.295,0.293
		c-0.697-0.078-1.221,0.011-1.832,0.351c-1.432,0.798-2.335,2.436-3.447,3.586C187.042,75.097,187.685,75.615,188.185,75.098
		L188.185,75.098z"/>
</g>
<g>
	<path fill="#231F20" d="M195.154,70.926c0.889,0.711,1.691,1.48,2.736,1.951c0.97,0.436,2.067-0.736,3.236-0.213
		c1.197,0.538,2.085,1.445,3.227,2.057c1.318,0.705,3.477,0.408,4.912,0.691c0.517,0.102,1.13-0.899,0.563-1.012
		c-1.229-0.241-2.408-0.406-3.659-0.476c-1.668-0.092-2.409-1.241-3.784-1.926c-0.558-0.276-1.625-1.035-2.3-0.81
		c-1.827,0.608-2.808-0.072-4.174-1.166C195.477,69.675,194.723,70.58,195.154,70.926L195.154,70.926z"/>
</g>
<g>
	<g>
		<path fill="#231F20" d="M99.507,87.867c-1.86,1.815-3.298,7.44,0.128,8.472c0.507,0.151,1.131-0.84,0.563-1.012
			c-2.539-0.764-1.744-5.283-0.282-6.71C100.368,88.175,100.064,87.322,99.507,87.867L99.507,87.867z"/>
	</g>
	<g>
		<path fill="#231F20" d="M99.468,88.606c1.602,2.089,2.227,4.92,0.544,7.167c-0.434,0.577,0.191,1.117,0.631,0.529
			c1.953-2.607,1.67-5.888-0.277-8.425C99.996,87.396,99.152,88.195,99.468,88.606L99.468,88.606z"/>
	</g>
	<g>
		<path fill="#231F20" d="M99.836,95.555c0,0.418,0,0.836,0,1.255c0,0.729,0.982,0.27,0.982-0.264c0-0.008,0-0.016,0-0.024
			c0-0.729-0.982-0.27-0.982,0.264c0,0.008,0,0.016,0,0.024c0,0.729,0.982,0.27,0.982-0.264c0-0.418,0-0.836,0-1.255
			C100.818,94.563,99.836,95.021,99.836,95.555L99.836,95.555z"/>
	</g>
	<g>
		<path fill="#231F20" d="M99.836,95.965c0,0.547,0,1.094,0,1.641c0,0.729,0.982,0.27,0.982-0.264c0-0.547,0-1.094,0-1.641
			C100.818,94.973,99.836,95.432,99.836,95.965L99.836,95.965z"/>
	</g>
</g>
<g>
	<g>
		<path fill="#231F20" d="M100.764,104.245c1.646,1.066,4.142,0.505,5.955,0.276c0.327-0.041,0.765-0.397,0.654-0.779
			c-0.74-2.559-1.962-4.961-2.461-7.59c-0.031-0.159-0.156-0.268-0.319-0.268c-0.136,0-0.272,0-0.409,0
			c-0.295,0-0.54,0.262-0.631,0.522c-0.881,2.522-2.184,4.877-2.695,7.519c-0.137,0.701,0.883,0.241,0.98-0.264
			c0.493-2.541,1.795-4.826,2.643-7.253c-0.211,0.174-0.422,0.349-0.632,0.522c0.435,0,0.173,0.169,0.289,0.673
			c0.161,0.696,0.396,1.385,0.636,2.057c0.547,1.529,1.176,3.031,1.627,4.593c0.218-0.26,0.436-0.52,0.654-0.779
			c-1.592,0.201-4.094,0.802-5.533-0.132C101.051,103.038,100.31,103.95,100.764,104.245L100.764,104.245z"/>
	</g>
	<g>
		<path fill="#231F20" d="M103.778,104.163c-0.505-0.462-1.096,0.316-0.947,0.832c0.124,0.432,0.443,0.867,0.493,1.312
			c0.072,0.646,1.029-0.004,0.973-0.512c-0.027-0.243-0.166-0.495-0.259-0.719c-0.058-0.14-0.114-0.279-0.171-0.42
			c-0.021-0.057-0.045-0.114-0.064-0.173c-0.049-0.153,0.031-0.108-0.046,0.072c-0.169,0.168-0.339,0.337-0.508,0.505
			c-0.262-0.084-0.337-0.082-0.228,0.005C103.428,105.438,104.189,104.541,103.778,104.163L103.778,104.163z"/>
	</g>
	<g>
		<path fill="#231F20" d="M103.319,104.952c0,0.479,0,0.957,0,1.436c0,0.728,0.981,0.27,0.981-0.264c0-0.479,0-0.957,0-1.436
			C104.301,103.961,103.319,104.419,103.319,104.952L103.319,104.952z"/>
	</g>
</g>
<g>
	<g>
		<path fill="#231F20" d="M92.047,99.126c0.831,2.638,3.98,3.108,5.104,0.474c0.957-2.245-0.928-5.023-1.463-7.141
			c-0.164-0.644-1.1,0.011-0.973,0.512c0.322,1.273,0.903,2.474,1.284,3.73c0.214,0.707,0.358,1.438,0.353,2.179
			c-0.019,2.339-2.805,1.411-3.332-0.266C92.819,97.979,91.892,98.633,92.047,99.126L92.047,99.126z"/>
	</g>
	<g>
		<path fill="#231F20" d="M93.02,98.614c-0.333-2.124,0.641-4.507,2.087-6.046c0.503-0.534-0.138-1.056-0.632-0.529
			c-1.693,1.802-2.816,4.604-2.428,7.087C92.148,99.773,93.1,99.122,93.02,98.614L93.02,98.614z"/>
	</g>
	<g>
		<path fill="#231F20" d="M94.326,100.92c-0.158,0.528-0.354,1.313,0.016,1.802c0.365,0.485,1.211-0.313,0.897-0.729
			c-0.224-0.296-0.081-0.752,0.015-1.071C95.477,100.182,94.492,100.369,94.326,100.92L94.326,100.92z"/>
	</g>
	<g>
		<path fill="#231F20" d="M94.3,101.464c0,0.438,0,0.875,0,1.313c0,0.729,0.981,0.27,0.981-0.264c0-0.026,0-0.054,0-0.081
			c0-0.729-0.981-0.27-0.981,0.264c0,0.027,0,0.054,0,0.081c0,0.729,0.981,0.27,0.981-0.264c0-0.438,0-0.875,0-1.313
			C95.281,100.473,94.3,100.931,94.3,101.464L94.3,101.464z"/>
	</g>
	<g>
		<path fill="#231F20" d="M94.795,101.196c-0.199,0.432-0.289,0.817-0.291,1.293c-0.002,0.728,0.98,0.27,0.982-0.264
			c0-0.271,0.004-0.507,0.119-0.758C95.93,100.768,95.07,100.601,94.795,101.196L94.795,101.196z"/>
	</g>
</g>
<g>
	<g>
		<path fill="#231F20" d="M196.613,44.853c-1.861,1.815-3.299,7.441,0.127,8.473c0.507,0.151,1.131-0.84,0.563-1.012
			c-2.54-0.764-1.743-5.284-0.282-6.711C197.475,45.16,197.171,44.308,196.613,44.853L196.613,44.853z"/>
	</g>
	<g>
		<path fill="#231F20" d="M196.573,45.592c1.601,2.09,2.227,4.92,0.544,7.168c-0.432,0.577,0.191,1.117,0.632,0.529
			c1.952-2.608,1.668-5.887-0.278-8.426C197.102,44.381,196.258,45.18,196.573,45.592L196.573,45.592z"/>
	</g>
	<g>
		<path fill="#231F20" d="M196.942,52.54c0,0.419,0,0.838,0,1.257c0,0.728,0.981,0.27,0.981-0.264c0-0.008,0-0.016,0-0.024
			c0-0.728-0.981-0.27-0.981,0.264c0,0.008,0,0.016,0,0.024c0,0.728,0.981,0.27,0.981-0.264c0-0.419,0-0.838,0-1.257
			C197.924,51.549,196.942,52.007,196.942,52.54L196.942,52.54z"/>
	</g>
	<g>
		<path fill="#231F20" d="M196.942,52.951c0,0.547,0,1.094,0,1.642c0,0.728,0.981,0.27,0.981-0.264c0-0.547,0-1.094,0-1.642
			C197.924,51.959,196.942,52.418,196.942,52.951L196.942,52.951z"/>
	</g>
</g>
<g>
	<g>
		<path fill="#231F20" d="M175.512,58.524c1.311,0.85,3.273,0.415,4.721,0.233c0.326-0.041,0.764-0.398,0.654-0.779
			c-0.58-2.01-1.541-3.897-1.932-5.962c-0.031-0.159-0.156-0.268-0.319-0.268c-0.107,0-0.215,0-0.322,0
			c-0.296,0-0.54,0.262-0.632,0.522c-0.694,1.991-1.717,3.848-2.121,5.934c-0.137,0.701,0.884,0.241,0.981-0.264
			c0.385-1.984,1.406-3.772,2.067-5.668c-0.21,0.174-0.42,0.349-0.631,0.522c0.107,0,0.215,0,0.322,0
			c-0.106-0.089-0.213-0.179-0.318-0.268c0.391,2.066,1.352,3.951,1.932,5.962c0.217-0.26,0.436-0.52,0.653-0.779
			c-1.227,0.154-3.188,0.631-4.299-0.089C175.798,57.317,175.057,58.229,175.512,58.524L175.512,58.524z"/>
	</g>
	<g>
		<path fill="#231F20" d="M178.04,58.267c-0.081-0.073-0.179-0.129-0.292-0.121c-0.232,0.016-0.475,0.172-0.572,0.388
			c-0.268,0.588,0.248,1.007,0.322,1.567c0.088,0.646,1.041-0.004,0.973-0.512c-0.023-0.176-0.113-0.353-0.181-0.517
			c-0.046-0.112-0.093-0.224-0.138-0.337c-0.112-0.276-0.008-0.283-0.167,0.069c-0.19,0.129-0.382,0.258-0.573,0.388
			c-0.171-0.084-0.215-0.092-0.129-0.023C177.693,59.539,178.454,58.641,178.04,58.267L178.04,58.267z"/>
	</g>
	<g>
		<path fill="#231F20" d="M177.494,59.01c0,0.376,0,0.752,0,1.129c0,0.729,0.981,0.27,0.981-0.264c0-0.376,0-0.752,0-1.129
			C178.476,58.018,177.494,58.477,177.494,59.01L177.494,59.01z"/>
	</g>
</g>
<g>
	<g>
		<path fill="#231F20" d="M184.347,48.306c1.239,0.805,3.091,0.396,4.46,0.225c0.326-0.041,0.764-0.398,0.654-0.779
			c-0.549-1.893-1.453-3.67-1.822-5.614c-0.031-0.159-0.156-0.268-0.319-0.268c-0.101,0-0.202,0-0.303,0
			c-0.296,0-0.54,0.262-0.632,0.522c-0.655,1.877-1.619,3.627-1.998,5.595c-0.135,0.701,0.885,0.242,0.981-0.264
			c0.36-1.866,1.322-3.548,1.944-5.329c-0.21,0.174-0.42,0.349-0.631,0.522c0.102,0,0.201,0,0.303,0
			c-0.106-0.09-0.213-0.179-0.318-0.268c0.371,1.946,1.273,3.721,1.822,5.614c0.217-0.26,0.436-0.52,0.653-0.779
			c-1.149,0.144-2.997,0.596-4.038-0.08C184.633,47.098,183.893,48.011,184.347,48.306L184.347,48.306z"/>
	</g>
	<g>
		<path fill="#231F20" d="M186.772,48.011c-0.127-0.113-0.247-0.132-0.413-0.1c-0.236,0.045-0.438,0.288-0.508,0.505
			c-0.158,0.486,0.298,0.907,0.361,1.364c0.09,0.646,1.043-0.004,0.973-0.512c-0.025-0.177-0.117-0.354-0.185-0.52
			c-0.046-0.11-0.091-0.221-0.136-0.332c-0.079-0.197,0.001-0.267-0.086,0.001c-0.17,0.169-0.339,0.337-0.508,0.506
			c-0.086-0.004-0.171-0.008-0.256-0.011C186.428,49.281,187.188,48.382,186.772,48.011L186.772,48.011z"/>
	</g>
	<g>
		<path fill="#231F20" d="M186.208,48.744c0,0.354,0,0.709,0,1.063c0,0.728,0.981,0.27,0.981-0.264c0-0.354,0-0.709,0-1.063
			C187.189,47.752,186.208,48.211,186.208,48.744L186.208,48.744z"/>
	</g>
</g>
<g>
	<g>
		<path fill="#231F20" d="M188.125,57.548c0.829,2.639,3.98,3.11,5.104,0.475c0.958-2.246-0.928-5.024-1.463-7.143
			c-0.163-0.644-1.1,0.011-0.973,0.512c0.322,1.273,0.904,2.475,1.284,3.732c0.214,0.707,0.358,1.438,0.353,2.179
			c-0.019,2.339-2.806,1.41-3.332-0.267C188.897,56.4,187.97,57.055,188.125,57.548L188.125,57.548z"/>
	</g>
	<g>
		<path fill="#231F20" d="M189.098,57.036c-0.334-2.123,0.641-4.507,2.086-6.045c0.502-0.534-0.138-1.056-0.632-0.529
			c-1.693,1.802-2.816,4.603-2.427,7.086C188.227,58.195,189.177,57.544,189.098,57.036L189.098,57.036z"/>
	</g>
	<g>
		<path fill="#231F20" d="M190.404,59.344c-0.158,0.529-0.352,1.312,0.015,1.801c0.364,0.487,1.21-0.313,0.897-0.729
			c-0.222-0.297-0.08-0.751,0.016-1.07C191.553,58.605,190.568,58.793,190.404,59.344L190.404,59.344z"/>
	</g>
	<g>
		<path fill="#231F20" d="M190.377,59.887c0,0.437,0,0.874,0,1.312c0,0.728,0.981,0.27,0.981-0.264c0-0.026,0-0.054,0-0.081
			c0-0.729-0.981-0.27-0.981,0.264c0,0.026,0,0.054,0,0.081c0,0.728,0.981,0.27,0.981-0.264c0-0.437,0-0.874,0-1.312
			C191.358,58.895,190.377,59.354,190.377,59.887L190.377,59.887z"/>
	</g>
	<g>
		<path fill="#231F20" d="M190.873,59.619c-0.199,0.432-0.289,0.817-0.29,1.293c-0.003,0.728,0.979,0.27,0.981-0.264
			c0.001-0.271,0.004-0.508,0.119-0.758C192.008,59.19,191.148,59.023,190.873,59.619L190.873,59.619z"/>
	</g>
</g>
<g>
	<path fill="#231F20" d="M58.316,108.452c-0.271-1.501-0.671-2.974-0.941-4.475c-0.289,0.235-0.576,0.472-0.865,0.707
		c0.988,0.589,3.794,4.318,5.17,2.405c1.08-1.502-0.201-4.645-1.045-6.047c-0.311-0.517-1.169,0.277-0.897,0.729
		c0.759,1.262,1.302,3.04,1.329,4.513c0.012,0.704-1.732-0.671-1.984-0.893c-0.6-0.529-1.121-1.196-1.814-1.609
		c-0.412-0.246-0.943,0.275-0.865,0.707c0.271,1.501,0.67,2.974,0.941,4.475C57.461,109.611,58.408,108.959,58.316,108.452
		L58.316,108.452z"/>
</g>
<g>
	<path fill="#231F20" d="M207.085,58.273c-1.675,1.785-2.829,4.131-4.239,6.124c-0.414,0.585,0.207,1.13,0.632,0.529
		c1.409-1.993,2.565-4.34,4.239-6.124C208.219,58.268,207.579,57.747,207.085,58.273L207.085,58.273z"/>
</g>
<g>
	<path fill="#231F20" d="M201.605,59.931c1.812,1.751,4.034,2.872,6.124,4.24c0.47,0.308,1.211-0.605,0.757-0.902
		c-2.09-1.368-4.313-2.489-6.124-4.24C201.968,58.646,201.203,59.542,201.605,59.931L201.605,59.931z"/>
</g>
<path fill="#231F20" d="M125.799,124.801c-0.135-1.741-0.504-3.379-0.887-5.08c-0.715-3.187,1.107-5.325,4.096-6.35
	c1.73-0.593,3.08-1.174,4.189-2.691c1.994-2.732,1.566-6.557,3.701-9.214c0.021-0.025,0.035-0.051,0.053-0.075
	c-0.225-0.478-0.451-0.956-0.678-1.438c-0.211,0.059-0.434,0.198-0.639,0.453c-1.904,2.371-2.291,5.363-3.244,8.179
	c-0.975,2.882-5.281,3.313-7.586,4.996c-1.59,1.157-2.326,3.438-2.111,5.325c0.18,1.587,0.578,3.118,0.908,4.678
	c0.768,3.63-0.566,6.721-2.277,9.82c-0.105,0.193-0.158,0.364-0.176,0.513c0.873-0.489,1.74-0.983,2.602-1.48
	C124.973,130.065,126.01,127.487,125.799,124.801z"/>
<path fill="#231F20" d="M165.752,98.259c-2.041-0.777-3.334-1.405-4.656-3.323c-0.623-0.903-1.244-1.98-2.26-2.502
	c-3.801-1.951-8.049,0.145-11.881,0.894c-2.824,0.555-5.279,0.911-7.111,3.003c0.402,0.363,0.803,0.724,1.205,1.085
	c1.719-2.094,5.854-2.015,8.26-2.636c3.248-0.84,7.191-2.259,9.564,0.978c0.896,1.223,1.768,2.916,3.213,3.598
	c2.018,0.953,4.418,0.894,4.521,3.579c0.641-0.421,1.285-0.834,1.934-1.24C168.375,100.022,167.59,98.959,165.752,98.259z"/>
<path fill="#231F20" d="M239.492,118.003c-0.164-2.129-4.164-52.326-17.428-66.918c-4.383-4.824-8.941-7.152-9.133-7.248l-0.01,0.02
	c-9.275-5.863-22.41-7.377-32.482-5.994c-17.836,2.449-43.557,14.297-59.746,24.734c-0.131,0.084-0.418,0.304-0.705,0.525
	c-0.008,0.006-0.012,0.01-0.02,0.015c-5.815-8.05-13.732-17.04-28.215-23.085c-15.856-6.621-30.023-3.368-39.114,0.523
	c-9.985,4.276-17.804,14.142-18.661,15.252c-4.477,5.789-5.243,11.798-5.273,12.051l-0.016,0.124l0.01,0.126
	c0.164,2.129,4.163,52.327,17.424,66.917c4.063,4.47,8.02,6.822,8.918,7.356c7.661,4.938,17.421,7.264,26.626,7.264
	c2.818,0,5.551-0.206,8.087-0.591c18.152-2.758,40.688-17.404,55.598-27.095l1.742-1.13c0.156,0.251,0.316,0.505,0.473,0.747
	c7.127,10.984,12.494,18.137,26.891,24.827c5.889,2.736,12.172,4.104,18.809,4.104c7.086,0,14.572-1.561,22.406-4.677
	c11.035-4.393,16.619-11.668,18.967-15.614c3.652-6.144,4.785-11.654,4.832-11.885l0.035-0.173L239.492,118.003z M122.076,64.739
	c15.951-10.285,41.24-21.952,58.711-24.352c12.393-1.702,28.912,1.383,36.502,10.572c7.586,9.187,7.805,21.488,7.877,25.531
	c0.037,2.123-0.146,5.38-1.17,9.213c-1.316-0.269-4.029-0.641-8.461-0.44c-9.176,0.415-18.271,2.916-32.439,8.922
	c-10.803,4.579-17.816,9.246-26.664,16.12c-6.086-4.441-13.189-10.886-20.113-17.171c-0.246-0.223-0.492-0.447-0.74-0.67
	c-4.727-10.096-9.572-20.287-14.158-27.226c0.043-0.035,0.086-0.068,0.131-0.102C121.762,64.974,121.973,64.807,122.076,64.739z
	 M223.246,88.156c-2.326,6.743-7.33,14.771-17.881,21.524c-21.773,13.938-38.094,7.324-44.1,3.834
	c-0.854-0.495-1.738-1.058-2.654-1.673c8.391-6.482,15.184-10.943,25.48-15.309c13.863-5.876,22.711-8.321,31.557-8.723
	C219.609,87.633,222.051,87.934,223.246,88.156z M35.994,57.388c0.817-1.057,8.256-10.446,17.648-14.469
	c8.641-3.699,22.094-6.791,37.129-0.514c14.053,5.865,21.695,14.657,27.32,22.484c4.004,5.572,8.305,14.14,12.58,23.141
	c-8.045-7.212-15.988-13.959-22.469-17.384c-8.006-4.234-24.619-9.228-45.92,4.888c-19.082,12.646-20.631,29.188-20.41,35.713
	c0.108,3.218,0.387,11.396,4.089,19.4c-10.767-16.362-14.48-59.786-14.708-62.578C31.38,67.247,32.289,62.179,35.994,57.388z
	 M105.762,72.273c-7.881,5.113-15.057,9.732-22.252,14.078c-10.718,6.472-19.973,9.793-30.006,10.77
	c-2.539,0.246-4.83,0.01-6.385-0.255c2.563-6.188,7.438-13.151,16.572-19.206C82.836,64.972,97.854,68.492,105.762,72.273z
	 M143.961,119.842c-14.727,9.571-36.982,24.036-54.592,26.711c-12.379,1.884-28.951-0.946-36.666-9.989
	c-7.729-9.062-8.145-21.359-8.281-25.4c-0.088-2.592,0.133-6.879,1.791-11.864c1.246,0.235,3.018,0.476,5.079,0.476
	c0.783,0,1.606-0.034,2.459-0.117c10.433-1.013,20.017-4.444,31.076-11.123c7.569-4.571,15.093-9.428,23.438-14.846l-0.089-0.139
	c7.248,4.169,16.37,12.35,25.31,20.46c0.197,0.419,0.393,0.837,0.588,1.254c4.107,8.777,8.018,17.13,11.695,23.405L143.961,119.842z
	 M232.447,128.934c-2.182,3.668-7.383,10.436-17.719,14.547c-14.494,5.769-27.682,5.981-39.197,0.63
	c-13.775-6.401-18.947-13.301-25.826-23.901c-3.514-5.416-7.314-13.242-11.322-21.762c7.953,7.184,15.404,13.671,21.602,17.271
	c6.41,3.725,23.801,10.804,46.756-3.889c19.281-12.343,21.092-28.857,20.975-35.385c-0.043-2.417-0.137-7.634-1.695-13.497
	c7.82,19.225,10.686,52.277,10.914,55.065C236.719,118.954,235.525,123.753,232.447,128.934z"/>
<g>
	<path fill="#231F20" d="M91.838,140.948c-0.17-0.086-0.338-0.178-0.502-0.276c-2.416,3.201-4.111,5.271-4.167,5.338
		c-0.185,0.224-0.152,0.555,0.071,0.738c0.098,0.081,0.217,0.12,0.334,0.12c0.15,0,0.301-0.065,0.404-0.191
		c0.029-0.034,1.764-2.146,4.227-5.406C92.082,141.164,91.959,141.057,91.838,140.948z"/>
	<path fill="#231F20" d="M96.165,134.567c-0.094-0.047-0.188-0.094-0.284-0.139c-1.239,1.771-2.442,3.426-3.539,4.9
		c0.242,0.184,0.551,0.398,0.846,0.632c1.117-1.501,2.344-3.188,3.604-4.988C96.577,134.847,96.367,134.712,96.165,134.567z"/>
	<path fill="#231F20" d="M99.449,129.138c-0.293,0.453-0.588,0.904-0.883,1.351c0.015,0.01,0.029,0.02,0.044,0.031
		c0.267,0.207,0.522,0.426,0.786,0.634c0.321-0.484,0.634-0.962,0.94-1.436C100.029,129.545,99.741,129.342,99.449,129.138z"/>
	<path fill="#231F20" d="M107.149,114.837c-0.571,1.491-1.28,3.059-2.087,4.663c0.311,0.166,0.625,0.326,0.934,0.498
		c0.84-1.674,1.541-3.237,2.1-4.688C107.78,115.152,107.465,114.994,107.149,114.837z"/>
	<path fill="#231F20" d="M108.867,108.563c-0.008,0.015-0.042,0.174-0.051,0.189c-0.074,0.361-0.151,0.727-0.232,1.101
		c0.297,0.058,0.584,0.168,0.887,0.188c0.051,0.003,0.096,0.013,0.141,0.024c0.09-0.414,0.175-0.819,0.258-1.221
		C109.804,108.876,108.963,108.641,108.867,108.563z"/>
	<path fill="#231F20" d="M110.899,102.83c0.046-0.389,0.106-0.966,0.14-1.34c-0.055,0.016-0.84,0.023-0.846,0.023
		c-0.008,0-0.152-0.005-0.213-0.023c-0.029,0.326-0.085,0.852-0.123,1.188C109.881,102.676,110.796,102.761,110.899,102.83z"/>
	<path fill="#231F20" d="M115.26,102.388c-0.119-0.088-0.213-0.2-0.27-0.326c-1.121,1.048-2.385,2.179-3.757,3.29
		c0.021,0.004,0.616,0.824,0.634,0.836c1.408-1.143,2.724-2.32,3.885-3.405C115.59,102.648,115.43,102.513,115.26,102.388z"/>
	<path fill="#231F20" d="M122.439,95.688c-0.041-0.051-0.08-0.102-0.117-0.152c-0.449,0.34-0.861,0.663-1.232,0.959
		c0.012,0.018,0.023,0.033,0.033,0.051c0.045,0.063,0.09,0.126,0.137,0.188c0.188,0.085,0.342,0.248,0.393,0.446
		c0.041,0.038,0.082,0.075,0.123,0.111c0.328-0.262,0.689-0.544,1.08-0.842C122.689,96.21,122.549,95.953,122.439,95.688z"/>
	<path fill="#231F20" d="M125.361,94.594c-0.061-0.032-0.121-0.076-0.178-0.134c-0.188-0.192-0.365-0.393-0.549-0.586
		c-0.439,0.299-0.859,0.592-1.254,0.877c0.217,0.274,0.469,0.525,0.709,0.783c0.41-0.294,0.846-0.599,1.305-0.907
		C125.383,94.616,125.373,94.604,125.361,94.594z"/>
	<path fill="#231F20" d="M127.117,92.292c-0.428,0.255-0.842,0.511-1.242,0.765c0.211,0.284,0.408,0.573,0.646,0.834
		c0.35-0.221,0.711-0.442,1.082-0.665C127.387,92.941,127.195,92.64,127.117,92.292z"/>
	<path fill="#231F20" d="M139.201,87.56c-0.014-0.032-0.029-0.064-0.043-0.097c-0.006-0.014-0.01-0.027-0.016-0.041
		c-0.139,0.032-0.279,0.063-0.418,0.094c-1.586,0.366-3.098,0.834-4.529,1.365c0.057,0.089,0.111,0.179,0.16,0.269
		c0.121,0.212,0.24,0.437,0.334,0.668c1.354-0.498,2.779-0.936,4.271-1.279c0.186-0.043,0.371-0.084,0.559-0.125
		C139.391,88.138,139.277,87.855,139.201,87.56z"/>
	<path fill="#231F20" d="M157.699,86.52c0.006-0.15,0.012-0.303,0.021-0.455c-0.445-0.03-0.893-0.058-1.338-0.079
		c0,0.351,0.004,0.7,0.02,1.051c0.428,0.021,0.857,0.049,1.285,0.078C157.688,86.915,157.689,86.718,157.699,86.52z"/>
	<path fill="#231F20" d="M160.525,86.704c-0.014-0.131-0.023-0.26-0.029-0.39c-0.486-0.054-0.975-0.104-1.461-0.146
		c0.002,0.042-0.002,0.087-0.01,0.132c-0.012,0.069-0.02,0.141-0.025,0.211c-0.006,0.235-0.002,0.472,0,0.708
		c0.521,0.047,1.041,0.099,1.563,0.157C160.525,87.151,160.502,86.93,160.525,86.704z"/>
	<path fill="#231F20" d="M163.328,87.107c-0.057-0.153-0.115-0.307-0.172-0.458c-0.277-0.036-0.545-0.072-0.803-0.107
		c-0.141-0.02-0.283-0.037-0.426-0.056c-0.006,0.089-0.031,0.182-0.082,0.277c-0.002,0.001-0.002,0.003-0.004,0.005
		c0.027,0.26,0.063,0.519,0.096,0.776c0.092,0.013,0.182,0.024,0.273,0.036c0.373,0.052,0.766,0.104,1.178,0.156
		C163.348,87.533,163.32,87.328,163.328,87.107z"/>
	<path fill="#231F20" d="M166.5,87.052c-0.66-0.074-1.295-0.147-1.895-0.22c0.125,0.358,0.236,0.722,0.285,1.091
		c0.543,0.064,1.113,0.13,1.703,0.194C166.488,87.764,166.424,87.405,166.5,87.052z"/>
	<path fill="#231F20" d="M171.943,88.644c1.779,0.154,3.631,0.296,5.494,0.413c-0.045-0.355-0.061-0.712,0.035-1.049
		c-1.865-0.117-3.721-0.26-5.5-0.415c0.01,0.047,0.018,0.097,0.018,0.151v0.655C171.99,88.49,171.973,88.57,171.943,88.644z"/>
	<path fill="#231F20" d="M191.139,88.313c0-0.026,0.002-0.052,0.004-0.075c-0.482,0.027-0.98,0.049-1.494,0.065
		c0.002,0.018,0.004,0.034,0.004,0.053c0.002,0.334,0.008,0.664,0.037,0.995c0.514-0.016,1.014-0.037,1.498-0.065
		C191.189,88.962,191.145,88.631,191.139,88.313z"/>
	<path fill="#231F20" d="M196.891,87.611c-0.016-0.073-0.018-0.143-0.012-0.208c-1.432,0.33-2.91,0.584-4.398,0.73
		c0,0.044-0.002,0.09-0.01,0.134c-0.004,0.025-0.004,0.053-0.006,0.078c0.047,0.276,0.09,0.554,0.119,0.832
		c1.529-0.151,3.051-0.413,4.523-0.754C197.021,88.157,196.947,87.888,196.891,87.611z"/>
	<path fill="#231F20" d="M207.879,82.865c-0.156,0.108-0.313,0.215-0.465,0.315c-1.223,0.807-2.887,1.659-4.824,2.434
		c0.068,0.092,0.119,0.202,0.135,0.337c0.006,0.038,0.016,0.076,0.029,0.116c0.113,0.15,0.203,0.316,0.283,0.495
		c1.988-0.797,3.697-1.677,4.955-2.507c0.139-0.09,0.273-0.183,0.406-0.274C208.186,83.497,207.998,83.192,207.879,82.865z"/>
	<path fill="#231F20" d="M213.084,79.06c-0.26-0.192-0.518-0.389-0.74-0.615c-0.236,0.36-0.49,0.707-0.756,1.038
		c0.227,0.287,0.438,0.58,0.629,0.887c0.344-0.408,0.654-0.826,0.938-1.251C213.133,79.099,213.107,79.079,213.084,79.06z"/>
	<path fill="#231F20" d="M215.107,73.723c-0.35-0.1-0.689-0.21-1.008-0.379c-0.018,0.191-0.037,0.383-0.061,0.577
		c-0.037,0.319-0.09,0.63-0.156,0.935c0.051,0.026,0.1,0.057,0.145,0.093c0.264,0.161,0.531,0.317,0.797,0.476
		c0.115-0.456,0.203-0.916,0.258-1.381c0.012-0.107,0.023-0.212,0.033-0.316C215.113,73.726,215.109,73.725,215.107,73.723z"/>
	<path fill="#231F20" d="M212.537,65.187c0.301-0.142,0.592-0.295,0.879-0.455c-0.326-0.515-0.668-0.953-1.002-1.323
		c-1.734-1.914-3.625-2.465-3.705-2.487c-0.279-0.078-0.568,0.083-0.646,0.361c-0.08,0.277,0.082,0.568,0.359,0.648
		c0.018,0.004,1.721,0.512,3.252,2.225c0.297,0.333,0.568,0.686,0.813,1.059C212.502,65.204,212.52,65.195,212.537,65.187z"/>
	<path fill="#231F20" d="M214.146,70.609c0.025,0.395,0.035,0.798,0.031,1.214c0.209,0.058,0.418,0.166,0.625,0.273
		c0.137,0.071,0.273,0.144,0.41,0.215c0.02-0.568,0.012-1.107-0.018-1.621C214.846,70.659,214.496,70.621,214.146,70.609z"/>
	<path fill="#231F20" d="M213.498,76.176c-0.143,0.383-0.303,0.754-0.482,1.111c0.053,0.028,0.1,0.065,0.143,0.112
		c0.229,0.189,0.449,0.39,0.674,0.585c0.215-0.404,0.4-0.814,0.564-1.229C214.084,76.582,213.785,76.388,213.498,76.176z"/>
	<path fill="#231F20" d="M183.912,89.134c-0.053-0.272-0.082-0.549-0.074-0.832c-1.609-0.043-3.27-0.114-4.936-0.208
		c0.008,0.354,0.027,0.705,0.061,1.054c1.67,0.093,3.338,0.164,4.953,0.205C183.914,89.28,183.912,89.207,183.912,89.134z"/>
	<path fill="#231F20" d="M151.131,86.161c-0.016-0.076-0.029-0.153-0.043-0.229c-2.172,0.065-4.326,0.238-6.461,0.521
		c-0.002,0.022-0.002,0.045-0.006,0.067c-0.021,0.187,0.016,0.375,0.074,0.559c0.074,0.127,0.135,0.261,0.188,0.397
		c2.098-0.273,4.217-0.439,6.354-0.5C151.174,86.705,151.131,86.432,151.131,86.161z"/>
	<path fill="#231F20" d="M132.963,89.45c-0.025-0.018-0.049-0.038-0.07-0.06c-0.49,0.203-0.971,0.409-1.439,0.624
		c0.305,0.211,0.529,0.506,0.672,0.849c0.408-0.185,0.826-0.362,1.252-0.536C133.188,90.058,133.018,89.783,132.963,89.45z"/>
	<path fill="#231F20" d="M120.199,97.485c-0.043-0.055-0.082-0.11-0.123-0.166c-0.092,0.075-0.178,0.146-0.26,0.215l-0.305,0.251
		c-0.189,0.155-0.41,0.352-0.66,0.584c0.038,0.041,0.073,0.091,0.104,0.148c0.139,0.264,0.295,0.515,0.459,0.76
		c0.299-0.278,0.557-0.512,0.764-0.683l0.307-0.252c0.057-0.048,0.119-0.099,0.18-0.149
		C120.482,97.977,120.342,97.726,120.199,97.485z"/>
	<path fill="#231F20" d="M109.297,93.067c0.38,1.216,0.621,2.468,0.734,3.793c0.07,0.001,0.145,0.014,0.226,0.045
		c0.172,0.065,0.567,0.002,0.839-0.037c-0.117-1.458-0.38-2.831-0.807-4.169C109.962,92.831,109.628,92.946,109.297,93.067z"/>
	<path fill="#231F20" d="M101.971,83.612c-0.047,0.266-0.117,0.525-0.182,0.787c0.492,0.104,0.98,0.261,1.463,0.485
		c0.12-0.237,0.231-0.479,0.307-0.736c0.025-0.088,0.064-0.161,0.111-0.223c-0.408-0.188-0.828-0.341-1.262-0.455
		c-0.146-0.038-0.291-0.071-0.436-0.102C101.984,83.444,101.986,83.525,101.971,83.612z"/>
	<path fill="#231F20" d="M96.455,84.752c0.046-0.011,0.092-0.024,0.139-0.035c1.196-0.269,2.381-0.483,3.547-0.483
		c0.055,0,0.107,0.002,0.162,0.003c0.019-0.197,0.031-0.396,0.039-0.594c-0.004-0.149-0.002-0.299,0.004-0.449
		c-1.354-0.027-2.697,0.212-3.981,0.5c-0.067,0.016-0.133,0.033-0.199,0.05C96.293,84.072,96.385,84.408,96.455,84.752z"/>
	<path fill="#231F20" d="M89.413,89.945c0.076,0.063,0.163,0.138,0.244,0.207c0.868-1.315,1.936-2.553,3.155-3.527
		c-0.172-0.181-0.344-0.36-0.529-0.527c-0.084-0.076-0.139-0.158-0.172-0.242c-1.277,1.034-2.395,2.325-3.305,3.693
		C89.026,89.65,89.22,89.784,89.413,89.945z"/>
	<path fill="#231F20" d="M86.881,94.413c0.213,0.095,0.43,0.181,0.643,0.272c0.091-0.286,0.188-0.576,0.292-0.873
		c0.032-0.091,0.065-0.183,0.101-0.273c-0.078-0.039-0.156-0.08-0.232-0.123c-0.232-0.129-0.461-0.267-0.688-0.41
		c-0.059,0.153-0.117,0.307-0.17,0.458c-0.104,0.295-0.201,0.586-0.292,0.872C86.648,94.336,86.768,94.363,86.881,94.413z"/>
	<path fill="#231F20" d="M86.267,96.94c0.206,0.11,0.396,0.233,0.636,0.235c0.066-0.379,0.147-0.765,0.246-1.162
		c-0.105-0.035-0.21-0.074-0.319-0.125c-0.169-0.078-0.343-0.174-0.476-0.188c-0.068-0.007-0.133-0.022-0.195-0.044
		c-0.097,0.384-0.18,0.76-0.248,1.129C86.029,96.828,86.147,96.877,86.267,96.94z"/>
	<path fill="#231F20" d="M86.255,102.619c0.088-0.006,0.176-0.013,0.264-0.021c0.193-0.037,0.39-0.072,0.587-0.099
		c-0.13-0.467-0.231-0.933-0.301-1.404c-0.049,0.01-0.1,0.017-0.156,0.016c-0.305-0.007-0.605-0.055-0.907-0.092
		c0.069,0.552,0.178,1.097,0.323,1.641C86.123,102.639,86.186,102.625,86.255,102.619z"/>
	<path fill="#231F20" d="M96.645,111.277c-1.639-0.11-2.981-0.536-4.097-1.162c-0.237,0.245-0.472,0.494-0.611,0.803
		c-0.008,0.018-0.017,0.032-0.026,0.048c0.079,0.046,0.158,0.092,0.238,0.136c1.323,0.723,2.806,1.134,4.469,1.237
		C96.667,111.991,96.641,111.634,96.645,111.277z"/>
	<path fill="#231F20" d="M102.664,111.103c-0.008-0.021-0.015-0.043-0.021-0.065c-0.055-0.162-0.106-0.325-0.157-0.488
		c-0.233,0.071-0.466,0.137-0.696,0.193c-0.242,0.059-0.479,0.11-0.713,0.16c-0.004,0.039-0.012,0.079-0.023,0.122
		c-0.089,0.303-0.047,0.638-0.023,0.96c0.33-0.066,0.666-0.141,1.008-0.224c0.258-0.063,0.517-0.135,0.775-0.216
		C102.764,111.397,102.713,111.25,102.664,111.103z"/>
	<path fill="#231F20" d="M107.394,108.156c-1.147,0.72-2.519,1.478-3.672,1.948c0.018,0.059,0.034,0.116,0.053,0.175
		c0.04,0.076,0.067,0.159,0.08,0.248c0.063,0.192,0.128,0.385,0.192,0.576c1.291-0.521,2.748-1.324,4.02-2.134
		C107.869,108.866,107.477,108.282,107.394,108.156z"/>
	<path fill="#231F20" d="M91.381,109.33c-1.177-0.939-2.049-2.118-2.745-3.322c-0.323,0.128-0.669,0.254-0.935,0.457
		c-0.004,0.002-0.006,0.003-0.008,0.005c0.892,1.552,1.875,2.749,3.005,3.66C90.919,109.854,91.142,109.584,91.381,109.33z"/>
	<path fill="#231F20" d="M86.69,99.541c-0.001-0.324,0.009-0.65,0.034-0.983c-0.352-0.073-0.688-0.203-1.018-0.352
		c-0.046,0.488-0.066,0.966-0.061,1.437C85.995,99.609,86.341,99.555,86.69,99.541z"/>
	<path fill="#231F20" d="M108.21,88.28c-0.229-0.365-0.463-0.709-0.702-1.035c-0.28,0.208-0.566,0.408-0.852,0.61
		c0.223,0.304,0.444,0.629,0.664,0.98c0.605,0.97,1.102,1.931,1.5,2.905c0.317-0.15,0.646-0.278,0.984-0.375
		C109.383,90.333,108.854,89.313,108.21,88.28z"/>
	<path fill="#231F20" d="M110.546,105.261c0.075-0.457,0.145-0.904,0.208-1.342c-0.074,0.028-0.94,0.012-1.035-0.044
		c-0.008-0.001-0.014-0.003-0.021-0.003c-0.057,0.392-0.117,0.792-0.186,1.2C109.553,105.063,110.432,105.165,110.546,105.261z"/>
	<path fill="#231F20" d="M110.295,106.422c-0.02,0.008-1.043-0.136-1.051-0.136c-0.057,0.392-0.124,0.881-0.191,1.289
		c0.041-0.01,1.027,0.188,1.034,0.196c0.007-0.036,0.015-0.071,0.021-0.107c-0.001-0.005-0.001-0.01-0.002-0.015
		C110.174,107.232,110.236,106.823,110.295,106.422z"/>
	<path fill="#231F20" d="M103.173,124.033c-0.019-0.008-0.034-0.015-0.049-0.019c-0.085-0.01-0.072-0.023,0,0
		c0.007,0,0.016,0.001,0.024,0.001c-0.013-0.009-0.026-0.018-0.039-0.026c-0.14-0.038-0.269-0.115-0.363-0.221
		c-0.813,1.408-1.672,2.819-2.553,4.209c0.006,0.004,0.012,0.009,0.018,0.012c0.041,0.027,0.082,0.053,0.124,0.08
		c0.258,0.142,0.502,0.308,0.743,0.479c0.003,0.001,0.004,0.002,0.007,0.004c0.925-1.46,1.776-2.861,2.556-4.208
		C103.482,124.243,103.326,124.14,103.173,124.033z"/>
</g>
</svg>
