<?xml version="1.0" encoding="utf-8"?>
<!-- Generator: Adobe Illustrator 15.0.2, SVG Export Plug-In . SVG Version: 6.00 Build 0)  -->
<!DOCTYPE svg PUBLIC "-//W3C//DTD SVG 1.1//EN" "http://www.w3.org/Graphics/SVG/1.1/DTD/svg11.dtd">
<svg version="1.1" id="Layer_7" xmlns="http://www.w3.org/2000/svg" xmlns:xlink="http://www.w3.org/1999/xlink" x="0px" y="0px"
	 width="605.893px" height="199.49px" viewBox="0 0 605.893 199.49" enable-background="new 0 0 605.893 199.49"
	 xml:space="preserve">
<g>
	<g>
		<path fill="#D0D8BC" d="M307.911,55.076h25.863l8.621,100.76H317.61l-4.312-50.381h-1.077l-10.777,37.426h-19.398l-10.775-37.426
			h-1.078l-4.311,50.381h-24.787l8.621-100.76h25.865l15.626,50.379h1.077L307.911,55.076z"/>
		<path fill="#808184" d="M343.845,157.166h-27.457l-4.048-47.312l-9.894,34.355h-21.401l-9.894-34.357l-4.048,47.313h-27.458
			l8.85-103.422h28.066l15.184,48.955l15.186-48.955h28.065L343.845,157.166z M318.832,154.504h22.114l-8.394-98.098h-23.661
			l-15.626,50.381h-3.038l-15.626-50.381h-23.662l-8.394,98.098h22.115l4.311-50.379h3.301l10.776,37.424h17.395l10.777-37.424
			h3.301L318.832,154.504z"/>
	</g>
	<g>
		<path fill="#D0D8BC" d="M405.439,154.396c0,0-13.472,4.316-28.559,4.316c-19.938,0-28.56-11.514-28.56-25.908
			c0-12.955,8.621-24.471,26.943-24.471c3.231,0,8.082,0.719,8.082,0.719v-1.438c-0.107,0-1.617-5.039-9.699-5.039
			c-5.928,0-10.776,4.318-10.776,4.318l-8.083-19.433c0,0,8.083-7.918,21.015-7.918c18.859,0,29.637,14.395,29.637,35.269V154.396
			L405.439,154.396z M376.881,127.047c-3.771,0-5.928,3.022-5.928,5.902c0,2.877,2.155,5.612,5.928,5.612s6.466-0.721,6.466-0.721
			v-10.795L376.881,127.047L376.881,127.047z"/>
		<path fill="#808184" d="M376.881,160.045c-18.716,0-29.89-10.185-29.89-27.239c0-11.902,7.404-25.802,28.273-25.802
			c2.084,0,4.764,0.281,6.502,0.496c-1.422-2.322-4.274-3.592-8.119-3.592c-5.33,0-9.849,3.94-9.894,3.981l-1.396,1.234
			l-9.146-21.982l0.643-0.631c0.348-0.338,8.625-8.297,21.946-8.297c18.813,0,30.967,14.365,30.967,36.598v40.556l-0.925,0.297
			C405.287,155.842,392.002,160.045,376.881,160.045z M375.265,109.666c-18.904,0-25.611,12.465-25.611,23.14
			c0,15.618,9.925,24.577,27.229,24.577c12.469,0,23.956-3.032,27.228-3.979v-38.592c0-20.934-10.847-33.936-28.306-33.936
			c-10.169,0-17.287,5.186-19.42,6.955l7.053,16.953c1.979-1.379,5.789-3.539,10.213-3.539c4.916,0,8.613,1.783,10.494,5.037h0.535
			v4.313l-1.525-0.227C383.104,110.362,378.36,109.666,375.265,109.666z M376.881,139.894c-4.715,0-7.259-3.578-7.259-6.943
			c0-3.557,2.715-7.234,7.259-7.234h7.798v13.15l-0.988,0.264C383.574,139.16,380.783,139.894,376.881,139.894z M376.881,128.377
			c-2.985,0-4.597,2.354-4.597,4.572c0,2.127,1.578,4.28,4.597,4.28c2.228,0,4.07-0.266,5.136-0.463v-8.391L376.881,128.377
			L376.881,128.377z"/>
	</g>
	<g>
		<path fill="#D0D8BC" d="M443.696,155.836h-23.709V55.076h37.181c22.631,0,33.945,15.113,33.945,35.984
			c0,20.873-11.314,35.986-33.945,35.986h-13.472V155.836L443.696,155.836z M443.696,79.545v23.031h13.472
			c5.388,0,9.159-5.037,9.159-11.516c0-6.477-3.771-11.516-9.159-11.516L443.696,79.545L443.696,79.545z"/>
		<path fill="#808184" d="M445.027,157.166h-26.371V53.744h38.512c22.089,0,35.276,13.951,35.276,37.316
			c0,23.367-13.188,37.316-35.276,37.316h-12.141V157.166z M421.318,154.504h21.047v-28.789h14.803
			c20.422,0,32.614-12.955,32.614-34.654c0-21.699-12.192-34.654-32.614-34.654h-35.85V154.504L421.318,154.504z M457.167,103.908
			h-14.803V78.215h14.803c5.98,0,10.49,5.523,10.49,12.846C467.658,98.385,463.148,103.908,457.167,103.908z M445.027,101.246
			h12.141c4.536,0,7.828-4.283,7.828-10.186c0-5.9-3.292-10.184-7.828-10.184h-12.141V101.246z"/>
	</g>
	<g>
		<path fill="#D0D8BC" d="M525.598,155.836H501.89V55.076h37.181c22.631,0,33.944,15.113,33.944,35.984
			c0,20.873-11.313,35.986-33.944,35.986h-13.473V155.836z M525.598,79.545v23.031h13.473c5.388,0,9.158-5.037,9.158-11.516
			c0-6.477-3.771-11.516-9.158-11.516L525.598,79.545L525.598,79.545z"/>
		<path fill="#808184" d="M526.929,157.166h-26.37V53.744h38.512c22.089,0,35.275,13.951,35.275,37.316
			c0,23.367-13.188,37.316-35.275,37.316h-12.142V157.166z M503.221,154.504h21.046v-28.789h14.804
			c20.422,0,32.613-12.955,32.613-34.654c0-21.699-12.191-34.654-32.613-34.654h-35.85V154.504z M539.07,103.908h-14.804V78.215
			h14.804c5.979,0,10.489,5.523,10.489,12.846C549.56,98.385,545.05,103.908,539.07,103.908z M526.929,101.246h12.142
			c4.536,0,7.828-4.283,7.828-10.186c0-5.9-3.292-10.184-7.828-10.184h-12.142V101.246z"/>
	</g>
</g>
<g>
	<path fill="#D0D8BC" d="M112.586,73.372c-0.045,0.033-0.088,0.066-0.131,0.102c4.586,6.938,9.432,17.13,14.159,27.226
		c0.247,0.223,0.493,0.447,0.739,0.67c1.453,1.318,2.914,2.645,4.372,3.959c0.421-0.486,0.718-1.053,0.853-1.667
		c1.041-0.483,2.018-1.108,3.107-1.491c1.709-0.6,3.615-0.682,5.387-1.013c1.682-0.314,3.465-0.88,5.237-1.117
		c0.407,0.173,0.819,0.337,1.226,0.513c1.525,0.652,2.897,1.934,4.012,3.139c0.381,0.412,0.803,0.633,1.227,0.707
		c0.715,0.441,1.482,0.826,2.07,1.334c1.725,1.486,2.836,3.549,4.861,4.115c4.316-2.689,8.87-5.072,14.426-7.428
		c14.169-6.006,23.264-8.507,32.439-8.922c4.432-0.2,7.145,0.172,8.462,0.44c1.022-3.833,1.206-7.09,1.169-9.213
		c-0.071-4.043-0.29-16.345-7.877-25.531c-7.589-9.189-24.109-12.274-36.502-10.572c-8.588,1.18-19.064,4.601-29.393,8.994
		c-1.529,1.049-3.177,1.634-4.859,2.142c-8.972,4.094-17.584,8.782-24.459,13.216C113.008,73.041,112.797,73.208,112.586,73.372z"/>
</g>
<g>
	<path fill="#D0D8BC" d="M112.359,141.64c1.712-3.101,3.046-6.19,2.277-9.82c-0.33-1.561-0.729-3.092-0.908-4.678
		c-0.214-1.889,0.522-4.168,2.111-5.326c2.305-1.683,6.611-2.113,7.586-4.996c0.953-2.814,1.341-5.807,3.245-8.178
		c0.205-0.257,0.427-0.396,0.639-0.453c-0.728-1.547-1.46-3.107-2.2-4.689c-0.195-0.417-0.391-0.835-0.588-1.254
		c-8.938-8.11-18.061-16.291-25.309-20.46l0.089,0.139c-8.346,5.418-15.87,10.274-23.439,14.846
		c-11.06,6.679-20.643,10.11-31.076,11.124c-0.853,0.082-1.676,0.116-2.459,0.116c-2.062,0-3.833-0.239-5.08-0.476
		c-1.658,4.984-1.878,9.271-1.791,11.863c0.006,0.172,0.012,0.365,0.02,0.567c0.039,0.181,0.072,0.361,0.115,0.542
		c-0.032,0.012-0.061,0.028-0.091,0.043c0.21,4.879,1.14,15.926,8.239,24.248c5.726,6.712,16.329,9.999,26.477,10.479
		c0.835-0.018,1.67-0.047,2.503-0.098c1.776-0.109,3.538-0.093,5.292-0.092c0.813-0.08,1.612-0.181,2.394-0.3
		c9.852-1.496,21.152-6.685,31.779-12.64C112.202,142,112.254,141.831,112.359,141.64z"/>
	<path fill="#D0D8BC" d="M116.474,136.513c0.034-0.059,0.065-0.119,0.1-0.178c0.037-0.216,0.06-0.434,0.087-0.652
		C116.605,135.961,116.547,136.237,116.474,136.513z"/>
</g>
<path fill="#808080" d="M66.806,127.287l5.559-3.657l-6.327,2.153c-2.165-3.368-6.419-4.79-10.176-3.392l-3.749-5.697l2.199,6.461
	c-3.401,2.119-4.867,6.347-3.536,10.107l-5.599,3.684l6.319-2.15c2.115,3.551,6.495,5.078,10.346,3.631l3.587,5.454l-2.104-6.181
	C66.844,135.538,68.319,131.132,66.806,127.287z M64.99,126.14l-5.444,1.853l-3.077-4.677
	C59.611,122.261,63.102,123.42,64.99,126.14z M54.667,124.2l1.808,5.314l-4.775,3.142C50.709,129.51,51.917,126.047,54.667,124.2z
	 M52.533,134.442l5.464-1.858l3.239,4.922C57.995,138.603,54.382,137.343,52.533,134.442z M62.972,136.657l-1.904-5.596l4.823-3.172
	C67.053,131.127,65.837,134.767,62.972,136.657z"/>
<g>
	<g>
		<path fill="#808080" d="M133.1,74.237c0.823-0.055,1.597-0.311,2.194-0.932c1.189-1.236,2.288-0.323,3.429-0.923
			c0.529-0.277,0.489-1.04,1.05-0.777c1.507,0.706,2.508,1.755,3.728,2.837c0.414,0.367,1.174-0.532,0.757-0.902
			c-1.217-1.08-3.307-3.729-5.19-2.945c-0.244,0.103-0.375,0.411-0.492,0.617c-0.201,0.354-1.258,0.096-1.732,0.084
			c-1.455-0.036-1.921,1.796-3.408,1.895C132.925,73.225,132.453,74.28,133.1,74.237L133.1,74.237z"/>
	</g>
</g>
<g>
	<g>
		<path fill="#808080" d="M141.852,76.229c0.854-0.828,1.806-1.47,2.853-2.037c1.751-0.948,3.076-0.511,4.798,0.184
			c0.855,0.345,2.315,0.257,2.906,1.007c0.341,0.434,1.16,0.786,1.68,0.967c0.5,0.172,1.128-0.815,0.563-1.012
			c-1.096-0.378-1.622-1.269-2.757-1.528c-1.368-0.313-2.952-1.231-4.338-1.297c-2.268-0.105-4.55,1.452-6.111,2.967
			C140.989,75.921,141.293,76.772,141.852,76.229L141.852,76.229z"/>
	</g>
</g>
<g>
	<g>
		<path fill="#808080" d="M150.908,74.707c0.969-0.194,1.371-0.558,2.173-1.188c1.08-0.848,2.701-0.178,4.007-0.617
			c1.673-0.562,3.041-0.116,3.587-2.078c-0.281,0.15-0.562,0.3-0.842,0.45c0.789,0.95,1.008,1.503,2.222,1.729
			c1.432,0.265,2.175,1.438,3.392,2.113c0.452,0.25,1.094-0.716,0.563-1.012c-0.791-0.438-1.278-1.235-2.055-1.657
			c-1.212-0.657-2.422-0.939-3.365-2.075c-0.264-0.318-0.775,0.211-0.842,0.45c-0.372,1.338-4.552,1.266-5.355,1.176
			c-1.318-0.147-2.176,1.452-3.396,1.697C150.475,73.8,150.194,74.851,150.908,74.707L150.908,74.707z"/>
	</g>
</g>
<g>
	<g>
		<path fill="#808080" d="M146.733,70.606c1.454-0.968,2.612-2.605,4.491-1.222c1.072,0.789,1.602,1.275,2.963,1.542
			c0.517,0.101,1.129-0.9,0.563-1.012c-0.998-0.194-1.753-0.448-2.495-1.179c-0.564-0.557-1.287-0.911-2.094-0.944
			c-1.728-0.072-2.51,1.181-3.836,2.064C145.778,70.221,146.094,71.032,146.733,70.606L146.733,70.606z"/>
	</g>
</g>
<g>
	<g>
		<path fill="#808080" d="M148.016,82.59c1.339-0.577,2.045-1.583,3.634-1.682c0.569-0.035,1.01-0.586,1.293-1.015
			c0.608-0.922,1.635,0.165,2.438,0.251c0.695,0.074,1.408,0.068,2.092,0.23c0.817,0.193,1.672,1.146,2.398,1.58
			c0.481,0.288,1.217-0.627,0.757-0.902c-0.981-0.588-1.952-1.716-3.161-1.813c-1.063-0.087-2.068-0.042-2.977-0.71
			c-0.317-0.233-0.28-0.27-0.67-0.299c-1.003-0.073-1.512,1.611-2.473,1.671c-1.611,0.101-2.024,1.143-3.493,1.776
			C147.319,81.907,147.308,82.896,148.016,82.59L148.016,82.59z"/>
	</g>
</g>
<g>
	<g>
		<path fill="#808080" d="M157.955,84.221c0.905-0.437,1.639-0.972,2.407-1.617c1.351-1.136,1.847-1.6,3.598-1.178
			c1.149,0.277,1.793-1.015,2.22-1.812c-0.229,0.123-0.458,0.246-0.687,0.37c1.86,0.823,2.805,2.59,4.246,3.917
			c0.405,0.374,1.168-0.523,0.757-0.902c-1.508-1.39-2.499-3.166-4.44-4.026c-0.258-0.114-0.577,0.165-0.687,0.37
			c-0.975,1.822-1.845,0.01-2.912,0.56c-1.724,0.889-2.895,2.551-4.666,3.406C157.272,83.559,157.258,84.557,157.955,84.221
			L157.955,84.221z"/>
	</g>
</g>
<g>
	<g>
		<path fill="#808080" d="M167.945,81.765c0.743-0.302,1.252-0.735,1.775-1.33c0.209-0.237,0.376-0.522,0.544-0.788
			c0.477-0.755,1.132-0.083,1.74,0.014c0.493,0.077,0.879-0.414,1.153-0.746c0.823-0.999,1.708-1.91,2.577-2.874
			c-0.255,0.033-0.51,0.066-0.765,0.1c0.451,0.571,0.22,1.192,0.595,1.712c0.433,0.601,0.912,1.032,1.519,1.463
			c0.457,0.324,1.203-0.585,0.757-0.902c-0.601-0.427-1.255-0.852-1.461-1.646c-0.153-0.592-0.129-0.872-0.512-1.355
			c-0.223-0.282-0.559-0.128-0.765,0.1c-0.765,0.847-1.656,1.601-2.338,2.519c-0.476,0.641-0.996,0.248-1.611,0.194
			c-1.452-0.126-2.21,2.156-3.372,2.629C167.242,81.071,167.231,82.055,167.945,81.765L167.945,81.765z"/>
	</g>
</g>
<g>
	<g>
		<path fill="#808080" d="M177.338,79.373c0.561-0.154,1.03-0.442,1.488-0.793c-0.217-0.003-0.435-0.007-0.652-0.011
			c0.575,1.101,1.809,1.388,2.561,2.301c0.338,0.411,1.113-0.47,0.757-0.902c-0.699-0.849-1.89-1.114-2.42-2.127
			c-0.137-0.262-0.474-0.147-0.652-0.011c-0.313,0.239-0.608,0.425-0.992,0.529C176.919,78.499,176.639,79.564,177.338,79.373
			L177.338,79.373z"/>
	</g>
</g>
<g>
	<g>
		<path fill="#808080" d="M179.22,83.332c0.637-0.659,1.198-1.387,1.796-2.081c0.905-1.053,1.666-1.565,3.07-1.203
			c1.379,0.356,2.265,0.19,2.888-1.203c0.314-0.702-0.542-0.871-0.811-0.271c-0.473,1.059-1.458,0.388-2.296,0.293
			c-0.697-0.078-1.221,0.011-1.832,0.351c-1.432,0.798-2.334,2.436-3.447,3.586C178.078,83.331,178.72,83.85,179.22,83.332
			L179.22,83.332z"/>
	</g>
</g>
<g>
	<g>
		<path fill="#808080" d="M186.19,79.16c0.888,0.711,1.692,1.48,2.737,1.951c0.969,0.436,2.067-0.736,3.235-0.213
			c1.198,0.538,2.085,1.445,3.227,2.057c1.318,0.705,3.477,0.408,4.913,0.691c0.516,0.102,1.129-0.899,0.563-1.012
			c-1.229-0.241-2.409-0.406-3.66-0.476c-1.668-0.092-2.409-1.241-3.785-1.926c-0.557-0.276-1.624-1.035-2.299-0.81
			c-1.827,0.608-2.808-0.072-4.174-1.166C186.512,77.909,185.758,78.814,186.19,79.16L186.19,79.16z"/>
	</g>
</g>
<g>
	<g>
		<g>
			<path fill="#768B69" d="M90.542,96.102c-1.86,1.815-3.297,7.44,0.128,8.472c0.506,0.151,1.131-0.841,0.563-1.013
				c-2.54-0.764-1.745-5.283-0.283-6.709C91.404,96.409,91.101,95.557,90.542,96.102L90.542,96.102z"/>
		</g>
	</g>
	<g>
		<g>
			<path fill="#768B69" d="M90.503,96.841c1.602,2.089,2.227,4.92,0.543,7.167c-0.433,0.577,0.192,1.117,0.632,0.529
				c1.953-2.606,1.669-5.888-0.278-8.425C91.031,95.63,90.188,96.43,90.503,96.841L90.503,96.841z"/>
		</g>
	</g>
	<g>
		<g>
			<path fill="#768B69" d="M90.872,103.789c0,0.418,0,0.836,0,1.255c0,0.729,0.981,0.27,0.981-0.264c0-0.008,0-0.016,0-0.024
				c0-0.729-0.981-0.271-0.981,0.265c0,0.008,0,0.016,0,0.023c0,0.729,0.981,0.27,0.981-0.264c0-0.418,0-0.836,0-1.256
				C91.854,102.797,90.872,103.256,90.872,103.789L90.872,103.789z"/>
		</g>
	</g>
	<g>
		<g>
			<path fill="#768B69" d="M90.872,104.199c0,0.547,0,1.094,0,1.641c0,0.729,0.981,0.271,0.981-0.264c0-0.548,0-1.095,0-1.642
				C91.854,103.207,90.872,103.666,90.872,104.199L90.872,104.199z"/>
		</g>
	</g>
</g>
<g>
	<g>
		<g>
			<path fill="#768B69" d="M91.8,112.479c1.645,1.065,4.141,0.504,5.955,0.275c0.327-0.041,0.764-0.396,0.654-0.779
				c-0.74-2.559-1.962-4.961-2.461-7.59c-0.03-0.158-0.155-0.268-0.319-0.268c-0.136,0-0.273,0-0.409,0
				c-0.295,0-0.54,0.262-0.631,0.521c-0.881,2.522-2.184,4.877-2.695,7.52c-0.136,0.701,0.884,0.24,0.981-0.264
				c0.493-2.541,1.794-4.826,2.642-7.254c-0.21,0.174-0.421,0.35-0.631,0.522c0.434,0,0.172,0.169,0.289,0.673
				c0.162,0.696,0.396,1.385,0.636,2.057c0.547,1.529,1.175,3.031,1.626,4.594c0.218-0.26,0.436-0.521,0.654-0.779
				c-1.591,0.201-4.093,0.802-5.533-0.132C92.086,111.272,91.345,112.185,91.8,112.479L91.8,112.479z"/>
		</g>
	</g>
	<g>
		<g>
			<path fill="#768B69" d="M94.814,112.397c-0.504-0.463-1.096,0.315-0.947,0.832c0.124,0.432,0.443,0.867,0.493,1.312
				c0.072,0.646,1.029-0.004,0.973-0.513c-0.027-0.242-0.166-0.494-0.258-0.719c-0.057-0.14-0.115-0.278-0.17-0.42
				c-0.022-0.057-0.045-0.113-0.064-0.173c-0.05-0.153,0.031-0.108-0.046,0.072c-0.169,0.168-0.339,0.337-0.508,0.505
				c-0.262-0.084-0.337-0.082-0.228,0.005C94.464,113.673,95.226,112.774,94.814,112.397L94.814,112.397z"/>
		</g>
	</g>
	<g>
		<g>
			<path fill="#768B69" d="M94.355,113.187c0,0.479,0,0.957,0,1.437c0,0.728,0.981,0.271,0.981-0.265c0-0.479,0-0.957,0-1.436
				C95.336,112.194,94.355,112.653,94.355,113.187L94.355,113.187z"/>
		</g>
	</g>
</g>
<g>
	<g>
		<g>
			<path fill="#768B69" d="M83.083,107.36c0.831,2.638,3.98,3.107,5.104,0.474c0.957-2.245-0.928-5.022-1.464-7.142
				c-0.163-0.644-1.099,0.012-0.973,0.513c0.322,1.272,0.904,2.474,1.285,3.729c0.214,0.707,0.358,1.438,0.352,2.18
				c-0.018,2.339-2.804,1.41-3.332-0.266C83.855,106.213,82.927,106.867,83.083,107.36L83.083,107.36z"/>
		</g>
	</g>
	<g>
		<g>
			<path fill="#768B69" d="M84.055,106.849c-0.333-2.123,0.641-4.507,2.087-6.045c0.502-0.535-0.138-1.057-0.632-0.529
				c-1.694,1.802-2.817,4.604-2.428,7.086C83.184,108.008,84.135,107.356,84.055,106.849L84.055,106.849z"/>
		</g>
	</g>
	<g>
		<g>
			<path fill="#768B69" d="M85.362,109.153c-0.159,0.529-0.354,1.313,0.015,1.803c0.366,0.484,1.21-0.313,0.897-0.729
				c-0.223-0.297-0.081-0.752,0.015-1.071C86.513,108.416,85.528,108.604,85.362,109.153L85.362,109.153z"/>
		</g>
	</g>
	<g>
		<g>
			<path fill="#768B69" d="M85.335,109.698c0,0.438,0,0.875,0,1.313c0,0.729,0.981,0.271,0.981-0.264c0-0.025,0-0.055,0-0.081
				c0-0.729-0.981-0.271-0.981,0.265c0,0.026,0,0.053,0,0.08c0,0.729,0.981,0.271,0.981-0.264c0-0.438,0-0.875,0-1.313
				C86.317,108.707,85.335,109.165,85.335,109.698L85.335,109.698z"/>
		</g>
	</g>
	<g>
		<g>
			<path fill="#768B69" d="M85.831,109.431c-0.199,0.432-0.29,0.817-0.291,1.293c-0.003,0.729,0.979,0.271,0.981-0.264
				c0.001-0.271,0.004-0.507,0.12-0.758C86.965,109.002,86.106,108.835,85.831,109.431L85.831,109.431z"/>
		</g>
	</g>
</g>
<g>
	<g>
		<g>
			<path fill="#768B69" d="M187.649,53.087c-1.861,1.815-3.299,7.441,0.127,8.473c0.506,0.151,1.131-0.84,0.563-1.012
				c-2.541-0.764-1.744-5.284-0.283-6.711C188.51,53.395,188.207,52.542,187.649,53.087L187.649,53.087z"/>
		</g>
	</g>
	<g>
		<g>
			<path fill="#768B69" d="M187.609,53.826c1.601,2.09,2.227,4.92,0.544,7.168c-0.432,0.577,0.192,1.117,0.632,0.529
				c1.952-2.608,1.668-5.887-0.278-8.426C188.137,52.615,187.293,53.414,187.609,53.826L187.609,53.826z"/>
		</g>
	</g>
	<g>
		<g>
			<path fill="#768B69" d="M187.978,60.774c0,0.419,0,0.838,0,1.257c0,0.728,0.981,0.27,0.981-0.264c0-0.008,0-0.016,0-0.024
				c0-0.728-0.981-0.27-0.981,0.264c0,0.008,0,0.016,0,0.024c0,0.728,0.981,0.27,0.981-0.264c0-0.419,0-0.838,0-1.257
				C188.959,59.783,187.978,60.241,187.978,60.774L187.978,60.774z"/>
		</g>
	</g>
	<g>
		<g>
			<path fill="#768B69" d="M187.978,61.186c0,0.547,0,1.094,0,1.642c0,0.728,0.981,0.27,0.981-0.264c0-0.547,0-1.094,0-1.642
				C188.959,60.193,187.978,60.652,187.978,61.186L187.978,61.186z"/>
		</g>
	</g>
</g>
<g>
	<g>
		<g>
			<path fill="#768B69" d="M166.547,66.759c1.311,0.85,3.273,0.415,4.721,0.233c0.327-0.041,0.764-0.398,0.654-0.779
				c-0.58-2.01-1.541-3.897-1.932-5.962c-0.03-0.159-0.155-0.268-0.319-0.268c-0.107,0-0.215,0-0.322,0
				c-0.295,0-0.54,0.262-0.631,0.522c-0.695,1.991-1.717,3.848-2.122,5.934c-0.136,0.701,0.884,0.241,0.981-0.264
				c0.385-1.984,1.406-3.772,2.068-5.668c-0.21,0.174-0.421,0.349-0.631,0.522c0.107,0,0.215,0,0.322,0
				c-0.106-0.089-0.212-0.179-0.319-0.268c0.392,2.066,1.352,3.951,1.932,5.962c0.218-0.26,0.436-0.52,0.654-0.779
				c-1.227,0.154-3.188,0.631-4.299-0.089C166.833,65.552,166.092,66.464,166.547,66.759L166.547,66.759z"/>
		</g>
	</g>
	<g>
		<g>
			<path fill="#768B69" d="M169.076,66.501c-0.081-0.073-0.178-0.129-0.292-0.121c-0.231,0.016-0.475,0.172-0.572,0.388
				c-0.267,0.588,0.248,1.007,0.323,1.567c0.087,0.646,1.041-0.004,0.973-0.512c-0.024-0.176-0.114-0.354-0.181-0.517
				c-0.046-0.112-0.092-0.224-0.138-0.337c-0.112-0.276-0.007-0.283-0.167,0.069c-0.191,0.129-0.382,0.258-0.573,0.388
				c-0.171-0.084-0.215-0.092-0.129-0.023C168.729,67.773,169.49,66.875,169.076,66.501L169.076,66.501z"/>
		</g>
	</g>
	<g>
		<g>
			<path fill="#768B69" d="M168.53,67.244c0,0.376,0,0.752,0,1.129c0,0.729,0.981,0.27,0.981-0.264c0-0.376,0-0.752,0-1.129
				C169.511,66.252,168.53,66.711,168.53,67.244L168.53,67.244z"/>
		</g>
	</g>
</g>
<g>
	<g>
		<g>
			<path fill="#768B69" d="M175.382,56.54c1.239,0.805,3.091,0.396,4.46,0.225c0.327-0.041,0.764-0.398,0.654-0.779
				c-0.549-1.893-1.452-3.67-1.822-5.614c-0.03-0.159-0.155-0.268-0.319-0.268c-0.101,0-0.202,0-0.303,0
				c-0.295,0-0.54,0.262-0.631,0.522c-0.656,1.877-1.62,3.627-1.999,5.595c-0.135,0.701,0.884,0.242,0.981-0.264
				c0.36-1.866,1.322-3.548,1.945-5.329c-0.21,0.174-0.421,0.349-0.631,0.522c0.101,0,0.202,0,0.303,0
				c-0.106-0.09-0.212-0.179-0.319-0.268c0.371,1.946,1.273,3.721,1.822,5.614c0.218-0.26,0.436-0.52,0.654-0.779
				c-1.149,0.144-2.998,0.596-4.038-0.08C175.669,55.332,174.928,56.245,175.382,56.54L175.382,56.54z"/>
		</g>
	</g>
	<g>
		<g>
			<path fill="#768B69" d="M177.808,56.245c-0.127-0.113-0.247-0.132-0.413-0.1c-0.237,0.045-0.438,0.288-0.508,0.505
				c-0.158,0.486,0.298,0.907,0.361,1.364c0.09,0.646,1.043-0.004,0.973-0.512c-0.024-0.177-0.116-0.354-0.184-0.52
				c-0.045-0.11-0.091-0.221-0.136-0.332c-0.079-0.197,0.001-0.267-0.086,0.001c-0.169,0.169-0.338,0.337-0.508,0.506
				c-0.085-0.004-0.17-0.008-0.255-0.011C177.464,57.516,178.224,56.616,177.808,56.245L177.808,56.245z"/>
		</g>
	</g>
	<g>
		<g>
			<path fill="#768B69" d="M177.244,56.979c0,0.354,0,0.709,0,1.063c0,0.728,0.981,0.27,0.981-0.264c0-0.354,0-0.709,0-1.063
				C178.225,55.986,177.244,56.445,177.244,56.979L177.244,56.979z"/>
		</g>
	</g>
</g>
<g>
	<g>
		<g>
			<path fill="#768B69" d="M179.16,65.782c0.83,2.639,3.981,3.11,5.104,0.475c0.958-2.246-0.929-5.024-1.464-7.143
				c-0.163-0.645-1.099,0.011-0.973,0.512c0.322,1.273,0.904,2.475,1.285,3.732c0.214,0.707,0.358,1.438,0.352,2.179
				c-0.018,2.339-2.805,1.41-3.332-0.267C179.933,64.635,179.005,65.289,179.16,65.782L179.16,65.782z"/>
		</g>
	</g>
	<g>
		<g>
			<path fill="#768B69" d="M180.133,65.271c-0.333-2.123,0.641-4.507,2.086-6.045c0.502-0.534-0.138-1.056-0.632-0.529
				c-1.693,1.802-2.816,4.603-2.427,7.086C179.262,66.43,180.212,65.778,180.133,65.271L180.133,65.271z"/>
		</g>
	</g>
	<g>
		<g>
			<path fill="#768B69" d="M181.439,67.578c-0.158,0.529-0.352,1.312,0.015,1.801c0.364,0.487,1.209-0.313,0.897-0.729
				c-0.222-0.297-0.081-0.751,0.015-1.07C182.589,66.84,181.604,67.027,181.439,67.578L181.439,67.578z"/>
		</g>
	</g>
	<g>
		<g>
			<path fill="#768B69" d="M181.413,68.121c0,0.437,0,0.874,0,1.312c0,0.728,0.981,0.27,0.981-0.264c0-0.026,0-0.054,0-0.081
				c0-0.729-0.981-0.27-0.981,0.264c0,0.026,0,0.054,0,0.081c0,0.728,0.981,0.27,0.981-0.264c0-0.437,0-0.874,0-1.312
				C182.394,67.129,181.413,67.588,181.413,68.121L181.413,68.121z"/>
		</g>
	</g>
	<g>
		<g>
			<path fill="#768B69" d="M181.909,67.854c-0.199,0.432-0.289,0.817-0.291,1.293c-0.003,0.728,0.979,0.27,0.981-0.264
				c0.001-0.271,0.004-0.508,0.12-0.758C183.043,67.425,182.185,67.258,181.909,67.854L181.909,67.854z"/>
		</g>
	</g>
</g>
<g>
	<g>
		<path fill="#C26558" d="M49.353,116.687c-0.272-1.5-0.671-2.974-0.942-4.475c-0.289,0.234-0.577,0.473-0.865,0.707
			c0.988,0.589,3.793,4.318,5.169,2.405c1.081-1.503-0.201-4.646-1.044-6.048c-0.31-0.517-1.169,0.277-0.897,0.729
			c0.758,1.263,1.302,3.04,1.329,4.513c0.013,0.705-1.732-0.67-1.983-0.893c-0.6-0.529-1.122-1.195-1.815-1.609
			c-0.412-0.246-0.942,0.275-0.865,0.707c0.271,1.502,0.67,2.975,0.942,4.476C48.497,117.847,49.444,117.192,49.353,116.687
			L49.353,116.687z"/>
	</g>
</g>
<g>
	<g>
		<path fill="#C26558" d="M198.121,66.508c-1.675,1.785-2.83,4.131-4.239,6.124c-0.414,0.585,0.207,1.13,0.632,0.529
			c1.41-1.993,2.566-4.34,4.239-6.124C199.254,66.502,198.615,65.981,198.121,66.508L198.121,66.508z"/>
	</g>
</g>
<g>
	<g>
		<path fill="#C26558" d="M192.641,68.165c1.812,1.751,4.034,2.872,6.124,4.24c0.469,0.308,1.211-0.605,0.757-0.902
			c-2.09-1.368-4.312-2.489-6.124-4.24C193.003,66.881,192.239,67.776,192.641,68.165L192.641,68.165z"/>
	</g>
</g>
<g>
	<path fill="#A5DCE0" d="M124.232,118.914c-1.109,1.519-2.459,2.099-4.189,2.69c-2.987,1.024-4.81,3.164-4.095,6.351
		c0.382,1.701,0.751,3.339,0.886,5.08c0.211,2.687-0.824,5.262-2.047,7.632c7.409-4.275,14.397-8.813,20.21-12.591l1.808-1.173
		c-2.086-3.561-4.246-7.788-6.475-12.383c-0.017,0.008-0.035,0.011-0.051,0.018c0.004-0.032,0.008-0.063,0.012-0.096
		c-0.74-1.526-1.488-3.094-2.243-4.689c-0.05-0.005-0.1-0.003-0.149-0.003C125.807,112.403,126.215,116.199,124.232,118.914z"/>
	<path fill="#A5DCE0" d="M113.776,138.774c0.015-0.035,0.03-0.072,0.047-0.11C113.805,138.702,113.791,138.737,113.776,138.774z"/>
</g>
<path fill="#6988B0" d="M116.834,133.035c-0.135-1.741-0.504-3.379-0.886-5.08c-0.715-3.187,1.107-5.325,4.095-6.351
	c1.73-0.592,3.08-1.174,4.189-2.69c1.994-2.731,1.566-6.558,3.702-9.214c0.021-0.025,0.034-0.051,0.053-0.075
	c-0.226-0.478-0.452-0.956-0.679-1.438c-0.211,0.06-0.433,0.198-0.638,0.453c-1.904,2.371-2.292,5.363-3.245,8.18
	c-0.975,2.882-5.281,3.313-7.586,4.996c-1.589,1.156-2.325,3.438-2.111,5.324c0.18,1.588,0.578,3.118,0.908,4.678
	c0.769,3.631-0.565,6.722-2.277,9.82c-0.105,0.193-0.158,0.364-0.175,0.514c0.873-0.489,1.739-0.983,2.601-1.48
	C116.008,138.3,117.045,135.722,116.834,133.035z"/>
<path fill="#A5DCE0" d="M153.049,114.099c0.313-0.146,0.629-0.283,0.945-0.423c1.188-0.846,2.371-1.666,3.56-2.446
	c0.026-0.068,0.056-0.136,0.075-0.205c-0.188-2.534-2.529-2.5-4.507-3.436c-1.446-0.682-2.316-2.375-3.214-3.598
	c-0.249-0.342-0.519-0.619-0.801-0.862c-0.229-0.178-0.459-0.349-0.696-0.509c-2.341-1.35-5.433-0.289-8.066,0.395
	c-1.257,0.324-2.986,0.461-4.596,0.813c-0.017,0.016-0.039,0.029-0.054,0.046c-0.035,0.028-0.059,0.053-0.086,0.077
	c-0.061-0.016-0.119-0.035-0.178-0.053c-1.35,0.324-2.586,0.824-3.348,1.752c5.334,4.797,10.611,9.396,15.293,12.822
	c0.059,0.002,0.118,0.004,0.177,0.002c1.88-1.459,3.677-2.813,5.446-4.093C153.018,114.287,153.043,114.19,153.049,114.099z"/>
<path fill="#6988B0" d="M156.787,106.493c-2.041-0.777-3.334-1.405-4.656-3.323c-0.623-0.903-1.244-1.979-2.26-2.502
	c-3.801-1.951-8.049,0.146-11.88,0.894c-2.825,0.556-5.28,0.912-7.111,3.004c0.401,0.362,0.803,0.724,1.204,1.084
	c1.72-2.094,5.854-2.015,8.261-2.635c3.247-0.841,7.19-2.26,9.563,0.978c0.897,1.223,1.768,2.916,3.214,3.598
	c2.017,0.953,4.417,0.894,4.521,3.579c0.64-0.421,1.284-0.834,1.934-1.24C159.411,108.257,158.625,107.192,156.787,106.493z"/>
<g>
	<path fill="#C26558" d="M82.874,149.183c-0.17-0.086-0.338-0.178-0.502-0.275c-2.416,3.201-4.112,5.271-4.167,5.338
		c-0.184,0.224-0.152,0.555,0.071,0.738c0.098,0.08,0.216,0.119,0.333,0.119c0.151,0,0.302-0.064,0.405-0.19
		c0.028-0.034,1.763-2.146,4.226-5.406C83.118,149.397,82.995,149.291,82.874,149.183z"/>
	<path fill="#C26558" d="M87.201,142.802c-0.094-0.047-0.188-0.094-0.284-0.139c-1.24,1.771-2.443,3.426-3.539,4.9
		c0.242,0.184,0.551,0.397,0.845,0.631c1.118-1.5,2.344-3.188,3.604-4.987C87.613,143.081,87.403,142.946,87.201,142.802z"/>
	<path fill="#C26558" d="M90.485,137.372c-0.293,0.453-0.588,0.904-0.883,1.352c0.015,0.01,0.029,0.02,0.044,0.03
		c0.267,0.207,0.522,0.427,0.786,0.634c0.321-0.484,0.634-0.962,0.94-1.436C91.065,137.778,90.777,137.576,90.485,137.372z"/>
	<path fill="#C26558" d="M98.185,123.071c-0.571,1.49-1.28,3.059-2.087,4.662c0.311,0.166,0.626,0.326,0.934,0.498
		c0.841-1.674,1.541-3.236,2.1-4.688C98.816,123.388,98.5,123.229,98.185,123.071z"/>
	<path fill="#C26558" d="M99.903,116.797c-0.008,0.015-0.042,0.175-0.051,0.188c-0.075,0.361-0.152,0.728-0.232,1.102
		c0.296,0.059,0.583,0.168,0.886,0.188c0.051,0.004,0.097,0.014,0.141,0.024c0.089-0.414,0.175-0.819,0.258-1.221
		C100.839,117.11,99.999,116.875,99.903,116.797z"/>
	<path fill="#C26558" d="M101.935,111.063c0.045-0.389,0.106-0.965,0.139-1.34c-0.055,0.017-0.839,0.023-0.846,0.023
		c-0.008,0-0.152-0.005-0.212-0.023c-0.029,0.326-0.085,0.853-0.124,1.188C100.916,110.91,101.832,110.995,101.935,111.063z"/>
	<path fill="#C26558" d="M106.295,110.622c-0.119-0.088-0.213-0.2-0.269-0.326c-1.121,1.048-2.385,2.18-3.757,3.29
		c0.021,0.004,0.616,0.824,0.634,0.836c1.408-1.144,2.723-2.319,3.884-3.405C106.626,110.883,106.465,110.747,106.295,110.622z"/>
	<path fill="#C26558" d="M113.475,103.922c-0.041-0.051-0.079-0.103-0.117-0.151c-0.449,0.34-0.861,0.662-1.232,0.959
		c0.012,0.018,0.023,0.033,0.033,0.051c0.045,0.063,0.09,0.126,0.137,0.188c0.188,0.086,0.342,0.248,0.393,0.446
		c0.041,0.038,0.082,0.075,0.124,0.11c0.327-0.262,0.688-0.543,1.079-0.842C113.725,104.444,113.584,104.188,113.475,103.922z"/>
	<path fill="#C26558" d="M116.396,102.828c-0.061-0.032-0.121-0.076-0.178-0.134c-0.187-0.192-0.364-0.394-0.549-0.586
		c-0.439,0.299-0.859,0.592-1.254,0.877c0.218,0.273,0.469,0.524,0.709,0.783c0.411-0.295,0.847-0.6,1.305-0.908
		C116.418,102.851,116.408,102.839,116.396,102.828z"/>
	<path fill="#C26558" d="M118.153,100.526c-0.429,0.255-0.843,0.511-1.242,0.765c0.21,0.284,0.408,0.573,0.646,0.834
		c0.35-0.222,0.711-0.442,1.082-0.665C118.423,101.176,118.23,100.874,118.153,100.526z"/>
	<path fill="#C26558" d="M130.236,95.794c-0.014-0.032-0.029-0.064-0.043-0.097c-0.006-0.014-0.01-0.027-0.015-0.041
		c-0.14,0.032-0.279,0.063-0.419,0.094c-1.586,0.366-3.098,0.834-4.529,1.365c0.058,0.089,0.111,0.179,0.16,0.269
		c0.121,0.212,0.24,0.437,0.334,0.668c1.354-0.498,2.779-0.936,4.271-1.279c0.186-0.043,0.372-0.084,0.559-0.125
		C130.427,96.372,130.313,96.09,130.236,95.794z"/>
	<path fill="#C26558" d="M148.734,94.754c0.006-0.15,0.013-0.303,0.022-0.455c-0.446-0.03-0.894-0.058-1.339-0.079
		c0,0.351,0.004,0.7,0.02,1.051c0.428,0.021,0.857,0.049,1.286,0.078C148.723,95.149,148.725,94.952,148.734,94.754z"/>
	<path fill="#C26558" d="M151.561,94.938c-0.013-0.131-0.022-0.26-0.029-0.39c-0.486-0.054-0.974-0.104-1.46-0.146
		c0.001,0.042-0.003,0.087-0.011,0.132c-0.012,0.069-0.02,0.141-0.025,0.211c-0.006,0.235-0.002,0.472,0,0.708
		c0.521,0.047,1.042,0.099,1.563,0.157C151.562,95.386,151.537,95.164,151.561,94.938z"/>
	<path fill="#C26558" d="M154.363,95.342c-0.056-0.153-0.115-0.307-0.172-0.458c-0.276-0.036-0.545-0.072-0.802-0.107
		c-0.142-0.02-0.283-0.037-0.426-0.056c-0.007,0.089-0.032,0.182-0.083,0.277c-0.002,0.001-0.002,0.003-0.003,0.005
		c0.026,0.26,0.062,0.519,0.095,0.776c0.092,0.013,0.183,0.024,0.274,0.036c0.372,0.052,0.765,0.104,1.177,0.156
		C154.383,95.768,154.355,95.563,154.363,95.342z"/>
	<path fill="#C26558" d="M157.535,95.286c-0.66-0.074-1.295-0.147-1.894-0.22c0.124,0.358,0.235,0.722,0.284,1.091
		c0.543,0.064,1.114,0.13,1.703,0.194C157.524,95.998,157.46,95.64,157.535,95.286z"/>
	<path fill="#C26558" d="M162.979,96.878c1.778,0.154,3.63,0.296,5.494,0.413c-0.045-0.355-0.062-0.712,0.034-1.049
		c-1.865-0.117-3.721-0.26-5.5-0.415c0.011,0.047,0.018,0.097,0.018,0.151v0.655C163.025,96.725,163.008,96.805,162.979,96.878z"/>
	<path fill="#C26558" d="M182.175,96.547c-0.001-0.026,0.001-0.052,0.004-0.075c-0.482,0.027-0.981,0.049-1.495,0.065
		c0.002,0.018,0.005,0.034,0.005,0.053c0.001,0.334,0.007,0.664,0.036,0.995c0.514-0.016,1.015-0.037,1.498-0.065
		C182.225,97.196,182.18,96.865,182.175,96.547z"/>
	<path fill="#C26558" d="M187.926,95.846c-0.016-0.073-0.018-0.143-0.012-0.208c-1.432,0.33-2.91,0.584-4.397,0.73
		c-0.001,0.044-0.003,0.09-0.01,0.134c-0.004,0.025-0.005,0.053-0.007,0.078c0.048,0.276,0.09,0.554,0.12,0.832
		c1.528-0.151,3.05-0.413,4.522-0.754C188.057,96.392,187.983,96.122,187.926,95.846z"/>
	<path fill="#C26558" d="M198.914,91.1c-0.156,0.108-0.312,0.215-0.465,0.315c-1.222,0.807-2.887,1.659-4.824,2.434
		c0.068,0.092,0.119,0.202,0.136,0.337c0.005,0.038,0.015,0.076,0.028,0.116c0.113,0.15,0.204,0.316,0.283,0.495
		c1.988-0.797,3.697-1.677,4.955-2.507c0.139-0.09,0.273-0.183,0.406-0.274C199.221,91.731,199.033,91.427,198.914,91.1z"/>
	<path fill="#C26558" d="M204.119,87.294c-0.26-0.192-0.518-0.389-0.74-0.615c-0.236,0.36-0.49,0.707-0.756,1.038
		c0.227,0.287,0.438,0.58,0.629,0.887c0.344-0.408,0.654-0.826,0.938-1.251C204.168,87.333,204.143,87.313,204.119,87.294z"/>
	<path fill="#C26558" d="M206.143,81.957c-0.349-0.1-0.689-0.21-1.008-0.379c-0.018,0.191-0.037,0.383-0.06,0.577
		c-0.037,0.319-0.09,0.63-0.156,0.935c0.05,0.026,0.099,0.057,0.145,0.093c0.264,0.161,0.53,0.317,0.797,0.476
		c0.115-0.456,0.202-0.916,0.257-1.381c0.013-0.107,0.023-0.212,0.033-0.316C206.148,81.96,206.146,81.959,206.143,81.957z"/>
	<path fill="#C26558" d="M203.572,73.421c0.301-0.142,0.592-0.295,0.879-0.455c-0.325-0.515-0.668-0.953-1.002-1.323
		c-1.734-1.914-3.625-2.465-3.705-2.487c-0.279-0.078-0.567,0.083-0.646,0.361c-0.08,0.277,0.082,0.568,0.359,0.648
		c0.018,0.004,1.721,0.512,3.253,2.225c0.297,0.333,0.567,0.686,0.812,1.059C203.537,73.438,203.555,73.43,203.572,73.421z"/>
	<path fill="#C26558" d="M205.182,78.844c0.025,0.396,0.036,0.798,0.031,1.214c0.209,0.058,0.419,0.166,0.625,0.273
		c0.137,0.071,0.273,0.144,0.41,0.215c0.02-0.568,0.012-1.107-0.018-1.621C205.881,78.894,205.531,78.855,205.182,78.844z"/>
	<path fill="#C26558" d="M204.533,84.41c-0.142,0.383-0.302,0.754-0.482,1.111c0.053,0.028,0.101,0.065,0.143,0.112
		c0.229,0.189,0.449,0.39,0.675,0.585c0.214-0.404,0.4-0.814,0.563-1.229C205.119,84.816,204.82,84.622,204.533,84.41z"/>
	<path fill="#C26558" d="M174.947,97.368c-0.053-0.272-0.082-0.549-0.074-0.832c-1.609-0.043-3.27-0.114-4.935-0.208
		c0.008,0.354,0.026,0.705,0.06,1.054c1.671,0.093,3.338,0.164,4.953,0.205C174.949,97.515,174.948,97.441,174.947,97.368z"/>
	<path fill="#C26558" d="M142.166,94.396c-0.016-0.076-0.029-0.153-0.043-0.229c-2.172,0.065-4.326,0.238-6.461,0.521
		c-0.001,0.022-0.002,0.045-0.006,0.067c-0.021,0.187,0.016,0.375,0.075,0.559c0.073,0.127,0.134,0.261,0.187,0.397
		c2.099-0.273,4.217-0.439,6.354-0.5C142.21,94.939,142.166,94.666,142.166,94.396z"/>
	<path fill="#C26558" d="M123.998,97.685c-0.024-0.018-0.048-0.038-0.07-0.06c-0.489,0.203-0.971,0.409-1.439,0.624
		c0.305,0.211,0.53,0.506,0.672,0.849c0.408-0.185,0.827-0.362,1.252-0.536C124.224,98.292,124.053,98.018,123.998,97.685z"/>
	<path fill="#C26558" d="M111.234,105.72c-0.043-0.055-0.082-0.109-0.123-0.166c-0.092,0.075-0.178,0.146-0.26,0.215l-0.305,0.252
		c-0.189,0.154-0.41,0.352-0.66,0.584c0.039,0.041,0.074,0.09,0.104,0.147c0.139,0.265,0.294,0.515,0.459,0.761
		c0.298-0.279,0.556-0.513,0.763-0.684l0.307-0.252c0.058-0.049,0.119-0.1,0.181-0.148
		C111.518,106.211,111.377,105.96,111.234,105.72z"/>
	<path fill="#C26558" d="M100.332,101.302c0.38,1.217,0.621,2.469,0.734,3.793c0.07,0.002,0.146,0.014,0.226,0.045
		c0.172,0.065,0.567,0.002,0.839-0.037c-0.117-1.457-0.38-2.83-0.807-4.168C100.998,101.065,100.664,101.181,100.332,101.302z"/>
	<path fill="#C26558" d="M93.006,91.847c-0.047,0.266-0.117,0.525-0.182,0.787c0.492,0.104,0.98,0.261,1.463,0.485
		c0.12-0.237,0.231-0.479,0.307-0.736c0.026-0.088,0.064-0.161,0.111-0.223c-0.408-0.188-0.828-0.341-1.262-0.455
		c-0.146-0.038-0.291-0.071-0.436-0.102C93.02,91.679,93.021,91.76,93.006,91.847z"/>
	<path fill="#C26558" d="M87.491,92.986c0.046-0.011,0.092-0.024,0.139-0.035c1.196-0.269,2.381-0.483,3.547-0.483
		c0.054,0,0.107,0.002,0.162,0.003c0.019-0.197,0.031-0.396,0.039-0.594c-0.003-0.149-0.002-0.299,0.005-0.449
		c-1.354-0.027-2.698,0.212-3.982,0.5c-0.067,0.016-0.133,0.033-0.199,0.05C87.328,92.307,87.42,92.643,87.491,92.986z"/>
	<path fill="#C26558" d="M80.449,98.18c0.076,0.063,0.163,0.138,0.244,0.207c0.869-1.315,1.936-2.553,3.156-3.527
		c-0.173-0.181-0.344-0.36-0.529-0.527c-0.085-0.076-0.14-0.158-0.173-0.242c-1.277,1.034-2.394,2.325-3.304,3.693
		C80.062,97.885,80.255,98.019,80.449,98.18z"/>
	<path fill="#C26558" d="M77.917,102.647c0.213,0.095,0.429,0.181,0.643,0.271c0.09-0.286,0.187-0.576,0.292-0.873
		c0.032-0.091,0.066-0.184,0.101-0.273c-0.079-0.039-0.156-0.08-0.232-0.123c-0.233-0.129-0.461-0.267-0.688-0.409
		c-0.06,0.153-0.117,0.307-0.17,0.458c-0.104,0.295-0.201,0.586-0.292,0.871C77.685,102.569,77.804,102.599,77.917,102.647z"/>
	<path fill="#C26558" d="M77.302,105.175c0.207,0.11,0.396,0.233,0.635,0.235c0.067-0.379,0.148-0.765,0.246-1.162
		c-0.105-0.035-0.209-0.074-0.319-0.125c-0.169-0.078-0.342-0.174-0.476-0.188c-0.068-0.007-0.133-0.021-0.195-0.043
		c-0.097,0.383-0.179,0.76-0.249,1.129C77.065,105.063,77.183,105.11,77.302,105.175z"/>
	<path fill="#C26558" d="M77.291,110.854c0.088-0.006,0.176-0.014,0.264-0.021c0.193-0.037,0.39-0.072,0.587-0.1
		c-0.13-0.467-0.231-0.933-0.3-1.403c-0.049,0.01-0.1,0.017-0.157,0.017c-0.305-0.008-0.605-0.056-0.907-0.093
		c0.069,0.552,0.178,1.097,0.323,1.642C77.158,110.873,77.221,110.858,77.291,110.854z"/>
	<path fill="#C26558" d="M87.68,119.513c-1.638-0.111-2.981-0.537-4.096-1.162c-0.238,0.244-0.472,0.493-0.611,0.803
		c-0.008,0.018-0.017,0.031-0.026,0.048c0.079,0.046,0.158,0.092,0.238,0.136c1.323,0.723,2.806,1.135,4.469,1.237
		C87.703,120.226,87.677,119.868,87.68,119.513z"/>
	<path fill="#C26558" d="M93.7,119.337c-0.008-0.021-0.015-0.043-0.022-0.064c-0.054-0.162-0.106-0.326-0.157-0.488
		c-0.233,0.07-0.465,0.137-0.697,0.193c-0.242,0.059-0.478,0.109-0.712,0.16c-0.004,0.038-0.011,0.078-0.024,0.121
		c-0.088,0.303-0.046,0.639-0.022,0.96c0.33-0.065,0.666-0.141,1.007-0.224c0.258-0.063,0.517-0.135,0.776-0.217
		C93.799,119.632,93.749,119.483,93.7,119.337z"/>
	<path fill="#C26558" d="M98.429,116.392c-1.147,0.719-2.519,1.478-3.672,1.947c0.018,0.059,0.035,0.116,0.053,0.176
		c0.041,0.075,0.067,0.158,0.08,0.248c0.063,0.191,0.127,0.385,0.192,0.575c1.292-0.521,2.749-1.323,4.02-2.134
		C98.905,117.101,98.513,116.517,98.429,116.392z"/>
	<path fill="#C26558" d="M82.417,117.563c-1.177-0.938-2.05-2.117-2.746-3.321c-0.324,0.128-0.668,0.254-0.935,0.457
		c-0.003,0.002-0.005,0.003-0.008,0.005c0.892,1.552,1.875,2.749,3.005,3.66C81.955,118.089,82.177,117.817,82.417,117.563z"/>
	<path fill="#C26558" d="M77.726,107.774c-0.001-0.323,0.009-0.649,0.035-0.982c-0.352-0.073-0.688-0.203-1.018-0.352
		c-0.046,0.488-0.066,0.966-0.061,1.437C77.031,107.844,77.376,107.789,77.726,107.774z"/>
	<path fill="#C26558" d="M99.246,96.515c-0.229-0.365-0.463-0.709-0.702-1.035c-0.281,0.208-0.567,0.408-0.852,0.61
		c0.223,0.304,0.444,0.629,0.664,0.98c0.605,0.97,1.102,1.931,1.5,2.905c0.317-0.15,0.647-0.278,0.985-0.375
		C100.418,98.567,99.89,97.547,99.246,96.515z"/>
	<path fill="#C26558" d="M101.582,113.495c0.075-0.457,0.145-0.904,0.208-1.342c-0.074,0.027-0.94,0.012-1.036-0.045
		c-0.007,0-0.014-0.002-0.021-0.002c-0.056,0.392-0.118,0.791-0.186,1.199C100.589,113.298,101.467,113.399,101.582,113.495z"/>
	<path fill="#C26558" d="M101.331,114.656c-0.02,0.008-1.043-0.136-1.05-0.136c-0.057,0.392-0.125,0.881-0.192,1.289
		c0.042-0.011,1.027,0.188,1.034,0.195c0.007-0.036,0.014-0.07,0.021-0.107c-0.001-0.004-0.001-0.01-0.003-0.015
		C101.209,115.467,101.272,115.058,101.331,114.656z"/>
	<path fill="#C26558" d="M94.208,132.269c-0.019-0.009-0.035-0.016-0.049-0.02c-0.085-0.01-0.072-0.023,0,0
		c0.007,0,0.016,0.001,0.024,0.001c-0.013-0.009-0.026-0.019-0.04-0.026c-0.139-0.037-0.268-0.115-0.362-0.221
		c-0.813,1.408-1.672,2.819-2.554,4.209c0.006,0.004,0.012,0.01,0.018,0.012c0.041,0.027,0.083,0.053,0.124,0.08
		c0.258,0.143,0.502,0.309,0.744,0.479c0.002,0.001,0.004,0.002,0.006,0.004c0.925-1.46,1.777-2.861,2.555-4.208
		C94.518,132.478,94.362,132.374,94.208,132.269z"/>
</g>
<path fill="#808080" d="M230.527,126.237c-0.164-2.129-4.164-52.326-17.428-66.918c-4.383-4.824-8.94-7.152-9.133-7.248l-0.01,0.02
	c-9.274-5.863-22.409-7.377-32.481-5.994c-17.837,2.449-43.558,14.297-59.747,24.734c-0.131,0.084-0.418,0.304-0.705,0.525
	c-0.007,0.006-0.012,0.01-0.02,0.015c-5.815-8.05-13.732-17.04-28.214-23.085c-15.856-6.621-30.023-3.368-39.114,0.523
	c-9.985,4.276-17.803,14.142-18.662,15.252c-4.477,5.789-5.243,11.798-5.273,12.051l-0.015,0.124l0.01,0.126
	c0.164,2.129,4.163,52.327,17.424,66.917c4.063,4.471,8.019,6.822,8.917,7.356c7.661,4.938,17.421,7.265,26.626,7.265
	c2.818,0,5.551-0.207,8.087-0.592c18.153-2.758,40.687-17.404,55.597-27.095l1.742-1.13c0.157,0.251,0.316,0.505,0.474,0.747
	c7.127,10.983,12.494,18.137,26.89,24.827c5.89,2.736,12.173,4.104,18.81,4.104c7.085,0,14.572-1.561,22.405-4.677
	c11.035-4.394,16.619-11.668,18.967-15.614c3.652-6.144,4.785-11.654,4.832-11.885l0.035-0.173L230.527,126.237z M113.111,72.974
	c15.951-10.285,41.24-21.952,58.711-24.352c12.393-1.702,28.913,1.383,36.502,10.572c7.587,9.187,7.806,21.488,7.877,25.531
	c0.037,2.123-0.146,5.38-1.169,9.213c-1.317-0.269-4.03-0.641-8.462-0.44c-9.176,0.415-18.271,2.916-32.439,8.922
	c-10.802,4.579-17.816,9.246-26.663,16.12c-6.087-4.441-13.19-10.887-20.114-17.171c-0.246-0.224-0.492-0.447-0.739-0.67
	c-4.728-10.096-9.573-20.287-14.159-27.226c0.043-0.035,0.086-0.068,0.131-0.102C112.797,73.208,113.008,73.041,113.111,72.974z
	 M214.281,96.391c-2.325,6.743-7.329,14.771-17.881,21.524c-21.772,13.938-38.094,7.324-44.1,3.834
	c-0.853-0.495-1.738-1.059-2.653-1.673c8.391-6.482,15.183-10.943,25.479-15.31c13.863-5.875,22.712-8.321,31.557-8.723
	C210.645,95.867,213.086,96.168,214.281,96.391z M27.03,65.622c0.817-1.057,8.255-10.446,17.648-14.469
	c8.64-3.699,22.094-6.791,37.128-0.514c14.053,5.865,21.696,14.657,27.32,22.484c4.004,5.572,8.306,14.14,12.58,23.141
	c-8.044-7.212-15.988-13.959-22.468-17.384c-8.006-4.234-24.619-9.228-45.919,4.888c-19.082,12.646-20.631,29.188-20.411,35.713
	c0.108,3.218,0.387,11.396,4.089,19.399c-10.767-16.36-14.48-59.785-14.708-62.577C22.416,75.481,23.324,70.413,27.03,65.622z
	 M96.797,80.508c-7.881,5.113-15.056,9.732-22.252,14.078c-10.718,6.472-19.972,9.793-30.006,10.771
	c-2.539,0.246-4.83,0.01-6.385-0.256c2.563-6.188,7.438-13.15,16.573-19.206C73.872,73.206,88.889,76.727,96.797,80.508z
	 M134.997,128.076c-14.727,9.571-36.982,24.036-54.592,26.711c-12.379,1.884-28.952-0.946-36.666-9.989
	c-7.729-9.063-8.145-21.359-8.282-25.4c-0.087-2.592,0.133-6.879,1.791-11.863c1.246,0.234,3.018,0.476,5.08,0.476
	c0.783,0,1.606-0.034,2.459-0.116c10.433-1.014,20.017-4.444,31.076-11.124c7.569-4.571,15.093-9.428,23.439-14.846l-0.089-0.139
	c7.248,4.169,16.371,12.35,25.309,20.46c0.197,0.419,0.393,0.837,0.588,1.254c4.107,8.777,8.019,17.13,11.695,23.404
	L134.997,128.076z M223.482,137.168c-2.182,3.668-7.383,10.437-17.719,14.547c-14.493,5.769-27.682,5.981-39.197,0.63
	c-13.775-6.4-18.946-13.301-25.826-23.9c-3.514-5.416-7.314-13.242-11.322-21.762c7.954,7.184,15.404,13.67,21.602,17.271
	c6.41,3.726,23.801,10.804,46.756-3.89c19.281-12.342,21.092-28.856,20.976-35.384c-0.044-2.417-0.138-7.634-1.695-13.497
	c7.82,19.225,10.685,52.277,10.913,55.065C227.755,127.188,226.561,131.987,223.482,137.168z"/>
</svg>
