<?xml version="1.0" encoding="utf-8"?>
<!-- Generator: Adobe Illustrator 15.0.2, SVG Export Plug-In . SVG Version: 6.00 Build 0)  -->
<!DOCTYPE svg PUBLIC "-//W3C//DTD SVG 1.1//EN" "http://www.w3.org/Graphics/SVG/1.1/DTD/svg11.dtd">
<svg version="1.1" id="Layer_7" xmlns="http://www.w3.org/2000/svg" xmlns:xlink="http://www.w3.org/1999/xlink" x="0px" y="0px"
	 width="311.984px" height="188.992px" viewBox="0 0 311.984 188.992" enable-background="new 0 0 311.984 188.992"
	 xml:space="preserve">
<g>
	<path fill="#D0D8BC" d="M138.277,71.274c-0.044,0.033-0.088,0.066-0.132,0.102c4.631,7.006,9.521,17.299,14.298,27.493
		c0.248,0.225,0.497,0.45,0.745,0.676c1.467,1.332,2.942,2.67,4.416,3.998c0.424-0.49,0.724-1.063,0.858-1.685
		c1.052-0.487,2.037-1.118,3.14-1.506c1.725-0.604,3.649-0.688,5.438-1.021c1.699-0.318,3.498-0.89,5.288-1.129
		c0.411,0.174,0.827,0.342,1.238,0.516c1.54,0.66,2.925,1.955,4.051,3.172c0.384,0.414,0.812,0.639,1.239,0.715
		c0.721,0.445,1.496,0.832,2.09,1.346c1.741,1.502,2.863,3.582,4.908,4.154c4.358-2.717,8.956-5.121,14.565-7.498
		c14.308-6.064,23.49-8.592,32.755-9.01c4.477-0.203,7.217,0.172,8.547,0.443c1.03-3.869,1.219-7.158,1.18-9.303
		c-0.072-4.082-0.292-16.503-7.953-25.777c-7.663-9.277-24.345-12.395-36.857-10.674c-8.672,1.191-19.252,4.645-29.681,9.082
		c-1.544,1.059-3.208,1.648-4.907,2.162c-9.059,4.132-17.754,8.866-24.696,13.342C138.704,70.94,138.491,71.108,138.277,71.274z"/>
</g>
<g>
	<path fill="#D0D8BC" d="M138.05,140.208c1.729-3.131,3.074-6.252,2.3-9.916c-0.334-1.576-0.735-3.121-0.918-4.726
		c-0.216-1.903,0.526-4.207,2.131-5.377c2.33-1.698,6.678-2.135,7.662-5.045c0.963-2.843,1.354-5.862,3.275-8.261
		c0.208-0.258,0.432-0.397,0.646-0.457c-0.734-1.559-1.475-3.137-2.223-4.733c-0.196-0.422-0.395-0.844-0.594-1.269
		c-9.023-8.188-18.238-16.448-25.557-20.657l0.092,0.139c-8.428,5.473-16.024,10.377-23.668,14.992
		c-11.167,6.744-20.846,10.207-31.38,11.231c-0.859,0.084-1.693,0.119-2.482,0.119c-2.082,0-3.871-0.244-5.13-0.481
		c-1.673,5.034-1.896,9.362-1.808,11.979c0.005,0.174,0.012,0.369,0.02,0.572c0.039,0.182,0.073,0.365,0.115,0.547
		c-0.031,0.014-0.061,0.031-0.092,0.045c0.213,4.926,1.149,16.082,8.318,24.484c5.78,6.777,16.488,10.096,26.735,10.58
		c0.844-0.018,1.688-0.047,2.527-0.098c1.794-0.111,3.572-0.096,5.344-0.092c0.821-0.082,1.629-0.185,2.418-0.306
		c9.947-1.51,21.358-6.748,32.09-12.763C137.89,140.571,137.942,140.401,138.05,140.208z"/>
	<path fill="#D0D8BC" d="M142.203,135.033c0.034-0.062,0.065-0.121,0.102-0.183c0.036-0.218,0.06-0.438,0.088-0.656
		C142.337,134.475,142.276,134.753,142.203,135.033z"/>
</g>
<path fill="#808080" d="M92.051,125.714l5.613-3.692l-6.389,2.174c-2.187-3.399-6.482-4.836-10.275-3.422l-3.785-5.754l2.222,6.522
	c-3.435,2.14-4.915,6.408-3.57,10.207l-5.654,3.719l6.381-2.172c2.137,3.586,6.56,5.127,10.447,3.668l3.621,5.507l-2.123-6.24
	C92.089,134.046,93.578,129.598,92.051,125.714z M90.217,124.557l-5.497,1.868l-3.106-4.723
	C84.786,120.641,88.311,121.811,90.217,124.557z M79.794,122.598l1.825,5.364l-4.822,3.175
	C75.798,127.958,77.017,124.462,79.794,122.598z M77.639,132.94l5.519-1.877l3.269,4.972
	C83.154,137.141,79.506,135.869,77.639,132.94z M88.179,135.175l-1.923-5.649l4.87-3.202
	C92.3,129.591,91.073,133.266,88.179,135.175z"/>
<g>
	<g>
		<path fill="#808080" d="M158.992,72.146c0.84,0.002,1.423-0.364,2.103-0.827c0.775-0.529,0.946-1.167,2.332-0.972
			c0.404,0.057,0.854,0.131,1.242-0.073c0.534-0.28,0.493-1.049,1.062-0.784c1.521,0.711,2.532,1.772,3.764,2.864
			c0.417,0.371,1.187-0.537,0.764-0.91c-1.229-1.093-3.336-3.764-5.238-2.974c-0.246,0.103-0.379,0.415-0.498,0.622
			c-0.202,0.356-1.271,0.097-1.749,0.085c-1.495-0.037-1.895,1.916-3.44,1.912C158.811,71.088,158.328,72.144,158.992,72.146
			L158.992,72.146z"/>
	</g>
</g>
<g>
	<g>
		<path fill="#808080" d="M167.83,74.159c0.862-0.836,1.822-1.484,2.88-2.057c1.769-0.957,3.106-0.515,4.846,0.186
			c0.862,0.348,2.337,0.26,2.935,1.017c0.345,0.438,1.17,0.794,1.696,0.975c0.505,0.173,1.14-0.825,0.567-1.021
			c-1.106-0.379-1.639-1.28-2.785-1.543c-1.384-0.316-2.979-1.239-4.381-1.307c-2.288-0.109-4.595,1.465-6.17,2.993
			C166.959,73.846,167.265,74.707,167.83,74.159L167.83,74.159z"/>
	</g>
</g>
<g>
	<g>
		<path fill="#808080" d="M176.973,72.624c0.979-0.197,1.384-0.565,2.194-1.202c1.091-0.856,2.729-0.178,4.046-0.62
			c1.689-0.567,3.07-0.121,3.621-2.101c-0.282,0.151-0.565,0.303-0.85,0.454c0.796,0.962,1.018,1.52,2.244,1.746
			c1.444,0.267,2.195,1.453,3.425,2.134c0.457,0.252,1.104-0.724,0.568-1.021c-0.801-0.441-1.291-1.248-2.076-1.673
			c-1.226-0.663-2.446-0.948-3.397-2.096c-0.266-0.322-0.783,0.213-0.85,0.454c-0.377,1.354-4.598,1.277-5.408,1.188
			c-1.332-0.148-2.197,1.467-3.429,1.714C176.536,71.707,176.252,72.768,176.973,72.624L176.973,72.624z"/>
	</g>
</g>
<g>
	<g>
		<path fill="#808080" d="M172.759,68.481c1.469-0.976,2.639-2.627,4.534-1.232c1.082,0.797,1.617,1.288,2.991,1.556
			c0.521,0.101,1.141-0.91,0.568-1.021c-1.009-0.195-1.771-0.452-2.52-1.188c-0.569-0.563-1.299-0.919-2.114-0.953
			c-1.743-0.073-2.532,1.191-3.872,2.082C171.794,68.09,172.112,68.911,172.759,68.481L172.759,68.481z"/>
	</g>
</g>
<g>
	<g>
		<path fill="#808080" d="M174.054,80.583c1.353-0.584,2.063-1.6,3.669-1.7c0.573-0.036,1.02-0.591,1.306-1.024
			c0.614-0.93,1.65,0.169,2.461,0.255c0.703,0.074,1.422,0.068,2.113,0.232c0.825,0.195,1.688,1.156,2.422,1.595
			c0.484,0.292,1.229-0.632,0.764-0.91c-0.991-0.595-1.972-1.732-3.19-1.832c-1.073-0.088-2.091-0.04-3.008-0.717
			c-0.318-0.237-0.281-0.273-0.677-0.302c-1.013-0.074-1.526,1.626-2.498,1.687c-1.627,0.103-2.042,1.154-3.524,1.795
			C173.351,79.893,173.339,80.891,174.054,80.583L174.054,80.583z"/>
	</g>
</g>
<g>
	<g>
		<path fill="#808080" d="M184.089,82.229c0.915-0.441,1.655-0.981,2.432-1.634c1.363-1.146,1.864-1.613,3.633-1.188
			c1.161,0.279,1.812-1.025,2.242-1.832c-0.231,0.125-0.462,0.249-0.693,0.374c1.877,0.833,2.832,2.616,4.287,3.956
			c0.409,0.378,1.179-0.528,0.764-0.91c-1.521-1.403-2.522-3.197-4.481-4.067c-0.261-0.115-0.583,0.167-0.693,0.374
			c-0.983,1.842-1.862,0.012-2.938,0.567c-1.741,0.898-2.925,2.576-4.712,3.438C183.399,81.56,183.387,82.568,184.089,82.229
			L184.089,82.229z"/>
	</g>
</g>
<g>
	<g>
		<path fill="#808080" d="M194.177,79.749c0.752-0.305,1.267-0.743,1.795-1.344c0.21-0.239,0.379-0.527,0.548-0.796
			c0.489-0.777,0.924-0.117,1.502-0.026c0.674,0.105,1.004-0.21,1.419-0.714c0.831-1.008,1.725-1.929,2.602-2.901
			c-0.257,0.033-0.515,0.067-0.771,0.101c0.456,0.576,0.222,1.203,0.601,1.729c0.438,0.606,0.921,1.043,1.534,1.478
			c0.461,0.327,1.215-0.591,0.764-0.91c-0.605-0.431-1.269-0.861-1.475-1.664c-0.154-0.598-0.132-0.88-0.518-1.368
			c-0.226-0.285-0.564-0.129-0.771,0.101c-0.772,0.855-1.674,1.616-2.361,2.543c-0.481,0.651-1.004,0.249-1.626,0.198
			c-1.474-0.121-2.222,2.173-3.403,2.653C193.467,79.047,193.457,80.041,194.177,79.749L194.177,79.749z"/>
	</g>
</g>
<g>
	<g>
		<path fill="#808080" d="M203.662,77.333c0.566-0.153,1.04-0.444,1.502-0.799c-0.22-0.004-0.438-0.007-0.659-0.011
			c0.582,1.11,1.829,1.399,2.587,2.321c0.342,0.415,1.123-0.474,0.765-0.91c-0.704-0.858-1.908-1.125-2.444-2.147
			c-0.138-0.264-0.479-0.149-0.659-0.011c-0.315,0.242-0.611,0.429-1,0.533C203.238,76.448,202.955,77.523,203.662,77.333
			L203.662,77.333z"/>
	</g>
</g>
<g>
	<g>
		<path fill="#808080" d="M205.561,81.333c0.645-0.667,1.211-1.401,1.814-2.104c0.914-1.063,1.682-1.58,3.101-1.214
			c1.393,0.359,2.286,0.191,2.915-1.216c0.315-0.709-0.549-0.88-0.818-0.273c-0.478,1.068-1.472,0.392-2.317,0.296
			c-0.703-0.08-1.231,0.01-1.851,0.354c-1.445,0.806-2.357,2.46-3.48,3.622C204.407,81.331,205.056,81.855,205.561,81.333
			L205.561,81.333z"/>
	</g>
</g>
<g>
	<g>
		<path fill="#808080" d="M212.6,77.118c0.896,0.719,1.708,1.495,2.764,1.97c0.98,0.439,2.087-0.743,3.268-0.213
			c1.209,0.543,2.105,1.459,3.259,2.075c1.331,0.712,3.512,0.414,4.961,0.698c0.521,0.102,1.141-0.909,0.567-1.021
			c-1.24-0.243-2.434-0.411-3.695-0.48c-1.685-0.093-2.434-1.252-3.821-1.943c-0.563-0.279-1.64-1.046-2.321-0.819
			c-1.845,0.615-2.836-0.071-4.216-1.176C212.925,75.855,212.163,76.768,212.6,77.118L212.6,77.118z"/>
	</g>
</g>
<g>
	<g>
		<g>
			<path fill="#768B69" d="M116.02,94.223c-1.878,1.834-3.331,7.515,0.129,8.556c0.512,0.153,1.143-0.849,0.567-1.021
				c-2.564-0.771-1.76-5.336-0.284-6.775C116.889,94.535,116.583,93.673,116.02,94.223L116.02,94.223z"/>
		</g>
	</g>
	<g>
		<g>
			<path fill="#768B69" d="M115.979,94.97c1.616,2.112,2.248,4.969,0.548,7.239c-0.438,0.584,0.194,1.129,0.639,0.535
				c1.974-2.635,1.686-5.945-0.279-8.511C116.513,93.747,115.66,94.554,115.979,94.97L115.979,94.97z"/>
		</g>
	</g>
	<g>
		<g>
			<path fill="#768B69" d="M116.351,101.987c0,0.423,0,0.847,0,1.269c0,0.736,0.991,0.272,0.991-0.266c0-0.008,0-0.017,0-0.023
				c0-0.735-0.991-0.272-0.991,0.266c0,0.01,0,0.018,0,0.023c0,0.736,0.991,0.272,0.991-0.266c0-0.423,0-0.846,0-1.269
				C117.343,100.986,116.351,101.449,116.351,101.987L116.351,101.987z"/>
		</g>
	</g>
	<g>
		<g>
			<path fill="#768B69" d="M116.351,102.401c0,0.554,0,1.104,0,1.658c0,0.735,0.991,0.272,0.991-0.267c0-0.553,0-1.104,0-1.658
				C117.343,101.4,116.351,101.863,116.351,102.401L116.351,102.401z"/>
		</g>
	</g>
</g>
<g>
	<g>
		<g>
			<path fill="#768B69" d="M117.289,110.762c1.66,1.077,4.183,0.512,6.015,0.28c0.329-0.043,0.771-0.401,0.659-0.787
				c-0.748-2.584-1.981-5.012-2.485-7.666c-0.031-0.16-0.157-0.271-0.322-0.271c-0.138,0-0.275,0-0.414,0
				c-0.298,0-0.545,0.265-0.637,0.527c-0.891,2.547-2.205,4.925-2.723,7.593c-0.137,0.708,0.895,0.244,0.992-0.266
				c0.496-2.566,1.811-4.875,2.665-7.325c-0.212,0.176-0.425,0.353-0.637,0.526c0.438,0,0.174,0.17,0.292,0.681
				c0.163,0.702,0.398,1.397,0.643,2.077c0.553,1.545,1.188,3.063,1.645,4.639c0.221-0.262,0.439-0.523,0.66-0.786
				c-1.606,0.203-4.134,0.81-5.588-0.134C117.578,109.542,116.829,110.464,117.289,110.762L117.289,110.762z"/>
		</g>
	</g>
	<g>
		<g>
			<path fill="#768B69" d="M120.331,110.68c-0.509-0.468-1.104,0.319-0.956,0.84c0.126,0.437,0.448,0.877,0.498,1.323
				c0.073,0.652,1.039-0.002,0.982-0.516c-0.027-0.246-0.168-0.5-0.261-0.727c-0.06-0.141-0.116-0.281-0.174-0.424
				c-0.021-0.059-0.045-0.115-0.063-0.176c-0.05-0.152,0.03-0.109-0.047,0.072c-0.172,0.172-0.344,0.342-0.515,0.512
				c-0.265-0.086-0.341-0.084-0.229,0.004C119.978,111.966,120.747,111.061,120.331,110.68L120.331,110.68z"/>
		</g>
	</g>
	<g>
		<g>
			<path fill="#768B69" d="M119.868,111.477c0,0.483,0,0.966,0,1.448c0,0.736,0.992,0.273,0.992-0.266c0-0.482,0-0.966,0-1.449
				C120.86,110.476,119.868,110.939,119.868,111.477L119.868,111.477z"/>
		</g>
	</g>
</g>
<g>
	<g>
		<g>
			<path fill="#768B69" d="M108.486,105.591c0.838,2.666,4.019,3.142,5.153,0.48c0.968-2.267-0.938-5.074-1.479-7.211
				c-0.165-0.65-1.11,0.01-0.981,0.516c0.325,1.287,0.913,2.5,1.299,3.77c0.216,0.714,0.36,1.452,0.354,2.199
				c-0.02,2.361-2.833,1.424-3.364-0.27C109.267,104.434,108.33,105.095,108.486,105.591L108.486,105.591z"/>
		</g>
	</g>
	<g>
		<g>
			<path fill="#768B69" d="M109.469,105.078c-0.338-2.146,0.646-4.552,2.104-6.104c0.508-0.54-0.138-1.065-0.637-0.535
				c-1.711,1.819-2.846,4.647-2.451,7.153C108.589,106.248,109.549,105.589,109.469,105.078L109.469,105.078z"/>
		</g>
	</g>
	<g>
		<g>
			<path fill="#768B69" d="M110.788,107.406c-0.161,0.533-0.356,1.325,0.016,1.818c0.368,0.49,1.223-0.316,0.905-0.736
				c-0.225-0.299-0.082-0.758,0.016-1.08C111.949,106.66,110.955,106.849,110.788,107.406L110.788,107.406z"/>
		</g>
	</g>
	<g>
		<g>
			<path fill="#768B69" d="M110.76,107.955c0,0.44,0,0.883,0,1.324c0,0.735,0.992,0.271,0.992-0.266c0-0.027,0-0.055,0-0.081
				c0-0.735-0.992-0.272-0.992,0.267c0,0.026,0,0.055,0,0.08c0,0.735,0.992,0.271,0.992-0.266c0-0.441,0-0.885,0-1.325
				C111.752,106.953,110.76,107.416,110.76,107.955L110.76,107.955z"/>
		</g>
	</g>
	<g>
		<g>
			<path fill="#768B69" d="M111.261,107.684c-0.201,0.437-0.292,0.825-0.295,1.306c-0.002,0.734,0.99,0.271,0.992-0.267
				c0.001-0.272,0.003-0.513,0.12-0.767C112.405,107.251,111.539,107.083,111.261,107.684L111.261,107.684z"/>
		</g>
	</g>
</g>
<g>
	<g>
		<g>
			<path fill="#768B69" d="M214.072,50.793c-1.879,1.834-3.329,7.513,0.129,8.556c0.512,0.153,1.142-0.848,0.568-1.021
				c-2.563-0.772-1.762-5.336-0.285-6.776C214.942,51.105,214.636,50.244,214.072,50.793L214.072,50.793z"/>
		</g>
	</g>
	<g>
		<g>
			<path fill="#768B69" d="M214.032,51.541c1.617,2.109,2.249,4.967,0.55,7.236c-0.438,0.583,0.193,1.128,0.637,0.535
				c1.974-2.634,1.687-5.944-0.279-8.508C214.565,50.317,213.713,51.125,214.032,51.541L214.032,51.541z"/>
		</g>
	</g>
	<g>
		<g>
			<path fill="#768B69" d="M214.404,58.555c0,0.423,0,0.846,0,1.268c0,0.735,0.992,0.271,0.992-0.266c0-0.008,0-0.017,0-0.024
				c0-0.735-0.992-0.272-0.992,0.266c0,0.009,0,0.017,0,0.024c0,0.735,0.992,0.271,0.992-0.266c0-0.423,0-0.845,0-1.268
				C215.396,57.554,214.404,58.017,214.404,58.555L214.404,58.555z"/>
		</g>
	</g>
	<g>
		<g>
			<path fill="#768B69" d="M214.404,58.971c0,0.552,0,1.104,0,1.655c0,0.735,0.992,0.272,0.992-0.266c0-0.552,0-1.104,0-1.655
				C215.396,57.97,214.404,58.433,214.404,58.971L214.404,58.971z"/>
		</g>
	</g>
</g>
<g>
	<g>
		<g>
			<path fill="#768B69" d="M192.766,64.595c1.321,0.86,3.307,0.42,4.768,0.237c0.33-0.041,0.771-0.402,0.66-0.786
				c-0.588-2.029-1.557-3.935-1.951-6.019c-0.03-0.161-0.157-0.271-0.322-0.271c-0.107,0-0.217,0-0.325,0
				c-0.299,0-0.546,0.265-0.638,0.527c-0.701,2.01-1.734,3.884-2.144,5.988c-0.137,0.708,0.893,0.244,0.992-0.266
				c0.388-2.003,1.42-3.808,2.087-5.721c-0.212,0.176-0.426,0.352-0.638,0.527c0.108,0,0.218,0,0.326,0
				c-0.106-0.09-0.215-0.18-0.321-0.271c0.396,2.087,1.362,3.989,1.95,6.019c0.222-0.262,0.44-0.524,0.66-0.786
				c-1.238,0.154-3.221,0.638-4.342-0.091C193.055,63.375,192.307,64.297,192.766,64.595L192.766,64.595z"/>
		</g>
	</g>
	<g>
		<g>
			<path fill="#768B69" d="M195.318,64.337c-0.082-0.075-0.18-0.13-0.295-0.123c-0.234,0.014-0.479,0.175-0.578,0.392
				c-0.271,0.592,0.251,1.018,0.326,1.581c0.088,0.653,1.051-0.003,0.981-0.516c-0.023-0.178-0.115-0.356-0.183-0.521
				c-0.047-0.113-0.094-0.227-0.14-0.34c-0.114-0.281-0.008-0.283-0.168,0.069c-0.193,0.131-0.387,0.262-0.579,0.392
				c-0.174-0.084-0.217-0.092-0.13-0.023C194.968,65.622,195.736,64.715,195.318,64.337L195.318,64.337z"/>
		</g>
	</g>
	<g>
		<g>
			<path fill="#768B69" d="M194.767,65.087c0,0.38,0,0.759,0,1.139c0,0.735,0.991,0.272,0.991-0.266c0-0.38,0-0.759,0-1.139
				C195.759,64.086,194.767,64.549,194.767,65.087L194.767,65.087z"/>
		</g>
	</g>
</g>
<g>
	<g>
		<g>
			<path fill="#768B69" d="M201.688,54.28c1.252,0.811,3.119,0.399,4.502,0.228c0.33-0.041,0.771-0.402,0.66-0.786
				c-0.554-1.912-1.466-3.707-1.838-5.67c-0.031-0.161-0.157-0.271-0.322-0.271c-0.103,0-0.204,0-0.308,0
				c-0.298,0-0.545,0.265-0.637,0.527c-0.663,1.896-1.636,3.663-2.021,5.649c-0.138,0.708,0.894,0.244,0.991-0.266
				c0.364-1.884,1.337-3.582,1.965-5.382c-0.212,0.176-0.426,0.352-0.638,0.527c0.103,0,0.204,0,0.308,0
				c-0.107-0.09-0.215-0.18-0.322-0.271c0.374,1.966,1.286,3.758,1.838,5.67c0.221-0.262,0.44-0.524,0.66-0.786
				c-1.159,0.145-3.025,0.599-4.076-0.081C201.976,53.061,201.228,53.983,201.688,54.28L201.688,54.28z"/>
		</g>
	</g>
	<g>
		<g>
			<path fill="#768B69" d="M204.136,53.981c-0.128-0.113-0.25-0.135-0.418-0.101c-0.237,0.048-0.439,0.288-0.513,0.51
				c-0.159,0.491,0.3,0.917,0.363,1.378c0.091,0.653,1.053-0.003,0.981-0.516c-0.024-0.18-0.116-0.359-0.186-0.525
				c-0.046-0.111-0.092-0.223-0.137-0.335c-0.08-0.198,0.001-0.271-0.087,0.001c-0.171,0.17-0.343,0.34-0.514,0.51
				c-0.086-0.004-0.172-0.008-0.258-0.012C203.79,55.262,204.558,54.354,204.136,53.981L204.136,53.981z"/>
		</g>
	</g>
	<g>
		<g>
			<path fill="#768B69" d="M203.564,54.723c0,0.357,0,0.715,0,1.072c0,0.735,0.992,0.272,0.992-0.266c0-0.357,0-0.715,0-1.072
				C204.557,53.722,203.564,54.185,203.564,54.723L203.564,54.723z"/>
		</g>
	</g>
</g>
<g>
	<g>
		<g>
			<path fill="#768B69" d="M205.502,63.611c0.839,2.665,4.021,3.141,5.154,0.479c0.966-2.268-0.938-5.072-1.479-7.209
				c-0.164-0.65-1.109,0.01-0.981,0.516c0.325,1.286,0.913,2.497,1.298,3.767c0.216,0.714,0.361,1.451,0.355,2.199
				c-0.02,2.362-2.832,1.426-3.364-0.268C206.282,62.454,205.346,63.114,205.502,63.611L205.502,63.611z"/>
		</g>
	</g>
	<g>
		<g>
			<path fill="#768B69" d="M206.484,63.095c-0.336-2.146,0.646-4.552,2.106-6.104c0.508-0.54-0.139-1.066-0.639-0.535
				c-1.71,1.82-2.844,4.647-2.451,7.155C205.604,64.265,206.564,63.608,206.484,63.095L206.484,63.095z"/>
		</g>
	</g>
	<g>
		<g>
			<path fill="#768B69" d="M207.805,65.424c-0.161,0.533-0.357,1.325,0.015,1.818c0.369,0.49,1.223-0.317,0.906-0.736
				c-0.226-0.299-0.082-0.758,0.015-1.08C208.966,64.678,207.972,64.868,207.805,65.424L207.805,65.424z"/>
		</g>
	</g>
	<g>
		<g>
			<path fill="#768B69" d="M207.776,65.972c0,0.441,0,0.883,0,1.324c0,0.735,0.992,0.272,0.992-0.266c0-0.027,0-0.055,0-0.082
				c0-0.735-0.992-0.272-0.992,0.266c0,0.027,0,0.055,0,0.082c0,0.735,0.992,0.272,0.992-0.266c0-0.441,0-0.883,0-1.324
				C208.769,64.971,207.776,65.434,207.776,65.972L207.776,65.972z"/>
		</g>
	</g>
	<g>
		<g>
			<path fill="#768B69" d="M208.277,65.703c-0.201,0.436-0.292,0.825-0.294,1.305c-0.002,0.735,0.99,0.272,0.992-0.266
				c0.001-0.273,0.003-0.513,0.12-0.766C209.422,65.27,208.556,65.101,208.277,65.703L208.277,65.703z"/>
		</g>
	</g>
</g>
<g>
	<g>
		<path fill="#C26558" d="M74.514,114.966c-0.274-1.518-0.678-3.004-0.951-4.521c-0.343,0.279-0.687,0.56-1.028,0.841
			c1.063,0.633,3.886,4.428,5.345,2.396c1.127-1.567-0.149-4.751-1.03-6.22c-0.367-0.613-1.39,0.33-1.066,0.867
			c0.756,1.262,1.308,3.041,1.334,4.514c0.009,0.457-1.551-0.743-1.848-1.006c-0.606-0.534-1.133-1.207-1.833-1.625
			c-0.49-0.291-1.121,0.328-1.028,0.841c0.274,1.517,0.677,3.004,0.951,4.521C73.497,116.343,74.622,115.569,74.514,114.966
			L74.514,114.966z"/>
	</g>
</g>
<g>
	<g>
		<path fill="#C26558" d="M223.583,62.967c-2.508,1.725-4.523,4.291-6.758,6.346c-0.399,0.367-0.824,1.013-0.521,1.57
			c0.283,0.521,1.022,0.356,1.386,0.023c2.232-2.055,4.251-4.621,6.758-6.346C225.597,63.771,224.93,62.041,223.583,62.967
			L223.583,62.967z"/>
	</g>
</g>
<g>
	<g>
		<path fill="#C26558" d="M216.225,64.27c1.786,2.677,4.256,4.671,6.494,6.942c0.813,0.825,2.441-1.068,1.606-1.916
			c-2.123-2.153-4.502-4.035-6.195-6.573C217.417,61.654,215.606,63.344,216.225,64.27L216.225,64.27z"/>
	</g>
</g>
<g>
	<path fill="#A5DCE0" d="M150.037,117.259c-1.12,1.533-2.481,2.119-4.229,2.718c-3.018,1.035-4.855,3.194-4.135,6.412
		c0.386,1.719,0.759,3.37,0.896,5.131c0.213,2.711-0.833,5.313-2.066,7.705c7.48-4.317,14.537-8.897,20.406-12.713l1.825-1.187
		c-2.105-3.594-4.287-7.863-6.538-12.502c-0.017,0.006-0.035,0.01-0.051,0.018c0.004-0.032,0.008-0.063,0.012-0.098
		c-0.747-1.541-1.502-3.125-2.266-4.734c-0.051-0.004-0.101-0.004-0.149-0.004C151.628,110.686,152.039,114.518,150.037,117.259z"/>
	<path fill="#A5DCE0" d="M139.479,137.317c0.016-0.037,0.03-0.075,0.047-0.112C139.509,137.242,139.495,137.278,139.479,137.317z"/>
</g>
<path fill="#6988B0" d="M142.567,131.52c-0.137-1.761-0.51-3.412-0.896-5.131c-0.722-3.218,1.117-5.377,4.135-6.412
	c1.748-0.599,3.109-1.185,4.229-2.718c2.015-2.758,1.583-6.62,3.739-9.305c0.021-0.022,0.033-0.051,0.053-0.076
	c-0.229-0.479-0.457-0.965-0.686-1.45c-0.213,0.059-0.438,0.2-0.645,0.456c-1.923,2.396-2.313,5.419-3.275,8.261
	c-0.984,2.91-5.332,3.347-7.662,5.045c-1.604,1.17-2.347,3.474-2.131,5.377c0.183,1.604,0.584,3.147,0.918,4.726
	c0.774,3.664-0.571,6.785-2.3,9.916c-0.107,0.194-0.16,0.365-0.177,0.518c0.88-0.494,1.755-0.994,2.626-1.496
	C141.733,136.835,142.78,134.233,142.567,131.52z"/>
<path fill="#A5DCE0" d="M179.135,112.397c0.315-0.146,0.637-0.287,0.954-0.429c1.201-0.852,2.396-1.68,3.597-2.471
	c0.025-0.067,0.055-0.135,0.075-0.207c-0.188-2.557-2.554-2.522-4.552-3.467c-1.46-0.688-2.339-2.398-3.245-3.635
	c-0.252-0.342-0.523-0.623-0.809-0.869c-0.23-0.18-0.464-0.352-0.703-0.512c-2.363-1.363-5.484-0.293-8.145,0.395
	c-1.271,0.33-3.017,0.467-4.642,0.822c-0.017,0.016-0.04,0.031-0.056,0.047c-0.034,0.029-0.059,0.053-0.087,0.078
	c-0.061-0.016-0.118-0.037-0.179-0.053c-1.362,0.326-2.61,0.832-3.381,1.77c5.386,4.842,10.716,9.486,15.441,12.945
	c0.061,0.004,0.12,0.004,0.18,0.004c1.897-1.475,3.713-2.842,5.499-4.135C179.104,112.587,179.131,112.49,179.135,112.397z"/>
<path fill="#6988B0" d="M182.911,104.718c-2.063-0.784-3.367-1.42-4.703-3.356c-0.629-0.911-1.256-2-2.281-2.526
	c-3.837-1.969-8.129,0.146-11.995,0.904c-2.854,0.559-5.332,0.92-7.183,3.03c0.406,0.367,0.813,0.731,1.217,1.099
	c1.736-2.115,5.911-2.035,8.343-2.664c3.277-0.849,7.261-2.279,9.655,0.985c0.906,1.235,1.785,2.947,3.245,3.636
	c2.038,0.963,4.46,0.899,4.565,3.612c0.646-0.424,1.298-0.842,1.952-1.252C185.56,106.5,184.767,105.423,182.911,104.718z"/>
<g>
	<path fill="#C26558" d="M114.817,138.164c-1.6,2.367-3.192,4.604-4.642,6.576c0.63,0.495,1.3,0.941,1.938,1.43
		c1.496-2.032,3.144-4.346,4.797-6.801c-0.369-0.209-0.731-0.428-1.086-0.66C115.486,138.533,115.149,138.352,114.817,138.164z"/>
	<path fill="#C26558" d="M119.958,130.033c-0.007-0.005-0.011-0.009-0.018-0.012c-0.437,0.756-0.885,1.514-1.344,2.268
		c0.18,0.107,0.354,0.221,0.527,0.338c0.521,0.281,1.002,0.636,1.46,1.019c0.507-0.831,1.001-1.666,1.479-2.502
		c-0.604-0.319-1.192-0.664-1.802-0.972C120.162,130.123,120.061,130.076,119.958,130.033z"/>
	<path fill="#C26558" d="M123.704,122.628c-0.851,1.996-1.913,4.098-3.103,6.229c0.722,0.219,1.498,0.602,2.138,1.092
		c1.2-2.162,2.28-4.307,3.154-6.357c-0.727-0.291-1.495-0.473-2.15-0.932C123.729,122.65,123.717,122.639,123.704,122.628z"/>
	<path fill="#C26558" d="M106.926,96.897c0.11,0.063,0.219,0.128,0.322,0.196c0.025,0.017,0.051,0.031,0.076,0.048
		c-0.001,0.002-0.002,0.003-0.004,0.005c0.009,0.006,0.017,0.012,0.024,0.018c0.039,0.024,0.077,0.053,0.116,0.076
		c1.412-2.282,3.426-4.349,5.685-5.302c-0.18-0.4-0.356-0.8-0.539-1.199c-0.07-0.146-0.14-0.293-0.203-0.441
		c-0.083-0.179-0.17-0.356-0.256-0.534c-1.583,0.681-3.119,1.797-4.517,3.295c-0.817,0.879-1.563,1.869-2.211,2.919
		C105.938,96.259,106.433,96.578,106.926,96.897z"/>
	<path fill="#C26558" d="M102.787,104.871c0.381,0.055,0.76,0.123,1.136,0.209c0.32,0.057,0.643,0.111,0.964,0.164
		c0.076-1.49,0.438-3.091,1.085-4.924c0.204-0.58,0.458-1.173,0.754-1.761c-0.158-0.085-0.314-0.172-0.472-0.261
		c-0.563-0.26-1.115-0.537-1.672-0.811c-0.332,0.668-0.624,1.35-0.867,2.036c-0.679,1.929-1.078,3.66-1.198,5.293
		C102.606,104.833,102.696,104.851,102.787,104.871z"/>
	<path fill="#C26558" d="M113.276,119.365c0.047-0.521,0.154-1.021,0.312-1.509c0.015-0.116,0.027-0.233,0.043-0.353
		c0.022-0.176,0.102-0.314,0.206-0.418c-2.438-0.268-4.141-1.295-5.415-2.656c-0.271,0.16-0.548,0.313-0.831,0.439
		c-0.059,0.03-0.116,0.062-0.176,0.092c-0.368,0.236-0.743,0.465-1.149,0.637c1.553,1.837,3.748,3.4,7.012,3.831
		C113.276,119.408,113.273,119.387,113.276,119.365z"/>
	<path fill="#C26558" d="M125.33,113.714c-1.89,1.229-4.144,2.431-5.994,2.882c-0.067,0.017-0.135,0.032-0.203,0.048
		c0.02,0.061,0.03,0.125,0.032,0.195c0.014,0.74,0.118,1.474,0.133,2.215c0,0.002-0.001,0.003-0.001,0.004
		c0.2-0.043,0.401-0.09,0.605-0.139c1.648-0.403,3.332-1.154,4.979-2.105C124.82,116.386,125.159,114.292,125.33,113.714z"/>
	<path fill="#C26558" d="M105.513,114.169c0.103-0.111,0.246-0.189,0.436-0.205c0.088-0.039,0.176-0.077,0.265-0.113
		c0.392-0.239,0.771-0.498,1.17-0.725c-0.424-0.617-0.793-1.268-1.128-1.924c-0.057-0.111-0.107-0.222-0.16-0.332
		c-0.689,0.256-1.386,0.467-2.115,0.588c-0.088,0.016-0.173,0.012-0.253-0.008c0.124,0.278,0.257,0.559,0.398,0.84
		c0.333,0.649,0.714,1.328,1.159,1.996C105.36,114.25,105.437,114.208,105.513,114.169z"/>
	<path fill="#C26558" d="M118.154,88.682c0.004,0.368-0.035,0.737-0.118,1.107c0.042,0.425,0.011,0.872-0.069,1.274
		c0.753,0.013,1.489,0.124,2.215,0.385c0.075-0.072,0.151-0.146,0.228-0.217c0.181-0.619,0.374-1.236,0.609-1.836
		c-0.001-0.068,0.011-0.129,0.026-0.184C120.084,88.861,119.115,88.709,118.154,88.682z"/>
	<path fill="#C26558" d="M123.344,90.477c-0.232,0.301-0.486,0.579-0.754,0.844c-0.258,0.34-0.564,0.645-0.895,0.92
		c0.614,0.429,1.219,0.995,1.816,1.732c0.522-0.335,1.043-0.67,1.592-0.952c0.15-0.104,0.3-0.212,0.445-0.325
		C124.833,91.773,124.095,91.045,123.344,90.477z"/>
	<path fill="#C26558" d="M126.56,94.145c-0.045-0.07-0.089-0.139-0.135-0.208c-0.678,0.422-1.239,1.013-1.966,1.361
		c0.023,0.039,0.048,0.074,0.072,0.113c0.438,0.699,0.841,1.477,1.196,2.271c0.117-0.053,0.234-0.104,0.353-0.154
		c0.321-0.188,0.688-0.303,1.064-0.387c0.277-0.083,0.561-0.152,0.849-0.206C127.595,95.983,127.12,95.042,126.56,94.145z"/>
	<path fill="#C26558" d="M126.451,98.884c-0.067,0.033-0.138,0.052-0.207,0.059c0.322,0.859,0.581,1.712,0.756,2.49
		c0.036-0.012,1.876-0.357,2.26-0.354c-0.178-0.889-0.419-1.799-0.726-2.713C127.839,98.535,127.147,98.718,126.451,98.884z"/>
	<path fill="#C26558" d="M129.348,108.582c-0.41-0.115-1.035-0.098-1.536-0.139c-0.221-0.018-0.478-0.023-0.725-0.063
		c-0.108,1.023-0.266,2.104-0.463,3.257c0.008,0.005,0.014,0.013,0.021,0.019l-0.021,0.021l-0.941,4.723
		c-0.075,0.35-0.153,0.704-0.234,1.064c-0.027,0.121-0.056,0.242-0.086,0.365c0.05,0.004,0.101,0.014,0.155,0.03
		c0.244,0.079,0.479,0.179,0.706,0.289c0.474,0.009,0.974,0.104,1.456,0.267c0.035-0.146,0.069-0.289,0.102-0.431
		c0.175-0.782,0.338-1.536,0.491-2.271l0.979-5.438c0.08-0.571,0.148-1.129,0.206-1.674
		C129.422,108.599,129.386,108.591,129.348,108.582z"/>
	<path fill="#C26558" d="M136.06,105.28c-0.137-0.142-0.271-0.282-0.402-0.429c-0.271,0.259-0.561,0.54-0.874,0.844
		c-0.484,0.471-1.026,0.994-1.618,1.557c0.035,0.024,0.071,0.054,0.104,0.088c0.142,0.145,0.278,0.291,0.416,0.438
		c0.045,0.043,0.09,0.085,0.135,0.127c0.033,0.027,0.065,0.056,0.098,0.083c0.065,0.04,0.13,0.077,0.188,0.114
		c0.323,0.204,0.643,0.416,0.932,0.667c0.51-0.484,0.982-0.941,1.409-1.355c0.313-0.306,0.604-0.586,0.869-0.84
		C136.895,106.142,136.455,105.733,136.06,105.28z"/>
	<path fill="#C26558" d="M139.478,102.128c-0.034-0.039-0.067-0.076-0.104-0.114c-0.006-0.005-0.01-0.011-0.015-0.015
		c-0.051-0.058-0.104-0.109-0.154-0.164c-0.765,0.598-1.396,1.119-1.881,1.52l-0.308,0.253c-0.11,0.093-0.233,0.197-0.362,0.313
		c0.604,0.529,1.244,1.021,1.763,1.635c0.039-0.035,0.081-0.071,0.118-0.102l0.313-0.258c0.492-0.408,1.146-0.947,1.943-1.566
		C140.303,103.179,139.875,102.666,139.478,102.128z"/>
	<path fill="#C26558" d="M144.417,100.917c-0.527-0.508-1.006-1.064-1.408-1.682c-0.022-0.027-0.047-0.055-0.069-0.082
		c-0.989,0.648-1.884,1.283-2.671,1.871c0.011,0.012,0.021,0.023,0.031,0.034c0.006,0.006,0.01,0.011,0.015,0.017
		c0.008,0.008,0.018,0.02,0.025,0.028c0.042,0.036,0.081,0.078,0.117,0.128c0.002,0.001,0.003,0.004,0.005,0.006
		c0.474,0.524,0.926,1.064,1.425,1.564c0.77-0.568,1.64-1.18,2.599-1.801C144.461,100.973,144.439,100.945,144.417,100.917z"/>
	<path fill="#C26558" d="M158.325,93.066c-0.037-0.102-0.068-0.207-0.099-0.313c-0.494,0.101-0.988,0.209-1.48,0.322
		c-2.763,0.637-5.311,1.568-7.604,2.625c0.065,0.09,0.113,0.198,0.129,0.332c0.003,0.03,0.019,0.07,0.038,0.111
		c0.394,0.48,0.762,0.982,1.109,1.5c0.02,0.027,0.033,0.055,0.046,0.081c2.077-0.935,4.361-1.754,6.819-2.321
		c0.453-0.104,0.908-0.203,1.363-0.298C158.498,94.437,158.413,93.75,158.325,93.066z"/>
	<path fill="#C26558" d="M179.791,94.058c0.018-0.27,0.032-0.538,0.052-0.807c-0.028-0.439-0.053-0.879-0.068-1.319
		c-1.185-0.143-2.364-0.255-3.543-0.337c-0.012,0.807,0.069,1.606,0.153,2.405c1.123,0.085,2.249,0.197,3.378,0.34
		C179.771,94.247,179.78,94.152,179.791,94.058z"/>
	<path fill="#C26558" d="M191.446,95.608c-0.004-0.229-0.009-0.461-0.014-0.691c-0.062-0.428-0.087-0.857-0.063-1.285
		c-0.006-0.062-0.013-0.122-0.019-0.183c-0.015-0.084-0.024-0.167-0.037-0.249c-3.683-0.312-7.082-0.683-9.652-1.021
		c0.211,0.683,0.237,1.438,0.345,2.127c0.02,0.12,0.012,0.229-0.016,0.326C184.583,94.96,187.892,95.313,191.446,95.608z"/>
	<path fill="#C26558" d="M211.4,94.994c-0.018-0.148-0.034-0.297-0.055-0.445c-0.104-0.278-0.213-0.558-0.294-0.841
		c-0.289,0.026-0.579,0.051-0.873,0.068c-3.195,0.198-7.162,0.14-11.231-0.061c0.152,0.803,0.309,1.604,0.427,2.412
		c3.967,0.184,7.819,0.229,10.952,0.035c0.345-0.021,0.689-0.051,1.033-0.082C211.368,95.716,211.38,95.355,211.4,94.994z"/>
	<path fill="#C26558" d="M225.641,91.719c-0.28-0.445-0.528-0.909-0.729-1.394c-0.128-0.212-0.265-0.419-0.406-0.624
		c-0.72,0.382-1.572,0.793-2.54,1.204c0.325,0.595,0.696,1.162,1.06,1.737c0.08,0.128,0.111,0.252,0.106,0.368
		c0.93-0.398,1.786-0.812,2.558-1.225C225.672,91.766,225.655,91.743,225.641,91.719z"/>
	<path fill="#C26558" d="M228.937,87.966c-0.2-0.227-0.387-0.465-0.551-0.719c-0.036-0.054-0.062-0.106-0.077-0.159
		c-0.742,0.651-1.504,1.216-2.224,1.689c-0.091,0.061-0.188,0.123-0.291,0.187c0.057,0.066,0.102,0.149,0.13,0.251
		c0.024,0.084,0.051,0.166,0.077,0.247c0.284,0.369,0.522,0.759,0.722,1.175c0.083,0.138,0.162,0.276,0.244,0.415
		c0.15-0.094,0.296-0.187,0.437-0.279c0.843-0.557,1.618-1.141,2.325-1.749C229.475,88.665,229.199,88.319,228.937,87.966z"/>
	<path fill="#C26558" d="M232.502,85.13c-0.077-0.046-0.139-0.105-0.185-0.172c-0.4-0.363-0.811-0.718-1.217-1.074
		c-0.008-0.006-0.013-0.013-0.019-0.019c-0.488,0.795-1.064,1.521-1.688,2.178c0.479,0.646,1.043,1.227,1.508,1.883
		c0.762-0.774,1.417-1.584,1.969-2.421C232.747,85.383,232.624,85.257,232.502,85.13z"/>
	<path fill="#C26558" d="M232.986,77.241c0.655,0.232,1.345,0.06,2.031-0.031c-0.109-4.186-1.62-6.809-3.013-8.344
		c-1.882-2.079-3.975-2.688-4.063-2.713c-0.635-0.18-1.295,0.19-1.476,0.825c-0.18,0.636,0.19,1.296,0.825,1.477
		c0.059,0.015,5.118,1.538,5.333,8.763C232.732,77.19,232.853,77.193,232.986,77.241z"/>
	<path fill="#C26558" d="M220.988,92.542c-0.118-0.248-0.229-0.501-0.332-0.757c-0.03-0.037-0.062-0.073-0.092-0.109
		c-0.046-0.054-0.08-0.11-0.106-0.168c-0.93,0.349-1.935,0.686-3,0.988c0.014,0.238,0.03,0.477,0.072,0.712
		c0.233,0.515,0.466,1.027,0.689,1.546c1.147-0.328,2.251-0.697,3.293-1.091C221.328,93.293,221.153,92.919,220.988,92.542z"/>
	<path fill="#C26558" d="M167.997,91.512c-2.783,0.143-5.54,0.457-8.26,0.948c0.267,0.705,0.529,1.41,0.846,2.091
		c0.034,0.057,0.065,0.114,0.1,0.171c2.455-0.422,4.941-0.697,7.452-0.825C168,93.098,167.831,92.283,167.997,91.512z"/>
	<path fill="#C26558" d="M132.938,108.927c-0.302-0.199-0.584-0.42-0.805-0.711c-0.694,0.646-1.438,1.314-2.22,1.986
		c0.274,0.162,1.166,1.315,1.447,1.668c0.009,0.006,0.018,0.014,0.023,0.02l0.003-0.002l0.015,0.018
		c0.032,0.028,0.061,0.059,0.091,0.09c0.825-0.711,1.608-1.416,2.337-2.091C133.524,109.585,133.232,109.255,132.938,108.927z"/>
	<path fill="#C26558" d="M104.176,152.533c-0.419,0.51-0.346,1.264,0.164,1.684c0.224,0.183,0.491,0.271,0.76,0.271
		c0.345,0,0.688-0.148,0.924-0.436c0.252-0.307,2.36-2.881,5.187-6.664c-0.732-0.317-1.564-0.605-2.174-1.109
		C106.254,149.996,104.237,152.458,104.176,152.533z"/>
</g>
<path fill="#808080" d="M257.37,124.658c-0.167-2.152-4.204-52.839-17.598-67.571c-4.426-4.871-9.029-7.221-9.224-7.32l-0.01,0.021
	c-9.365-5.922-22.627-7.449-32.799-6.053c-18.011,2.473-43.983,14.436-60.329,24.973c-0.132,0.084-0.424,0.307-0.712,0.531
	c-0.008,0.004-0.014,0.01-0.02,0.014c-5.871-8.126-13.867-17.203-28.49-23.309c-16.011-6.685-30.315-3.401-39.496,0.529
	c-10.083,4.318-17.979,14.28-18.845,15.401c-4.521,5.844-5.293,11.911-5.324,12.165l-0.016,0.127l0.011,0.127
	c0.165,2.148,4.204,52.837,17.595,67.57c4.102,4.514,8.096,6.889,9.004,7.428c7.736,4.986,17.591,7.334,26.885,7.334
	c2.848,0,5.606-0.207,8.166-0.596c18.331-2.785,41.085-17.574,56.143-27.359l1.758-1.141c0.16,0.254,0.32,0.51,0.479,0.754
	c7.197,11.092,12.615,18.314,27.152,25.068c5.947,2.764,12.291,4.146,18.993,4.146c7.153-0.002,14.714-1.576,22.624-4.724
	c11.143-4.437,16.782-11.782,19.15-15.769c3.689-6.203,4.832-11.766,4.88-12l0.034-0.176L257.37,124.658z M138.808,70.872
	c16.106-10.384,41.645-22.164,59.284-24.586c12.514-1.721,29.194,1.396,36.857,10.674c7.661,9.274,7.881,21.695,7.953,25.777
	c0.039,2.145-0.148,5.434-1.18,9.303c-1.33-0.271-4.07-0.646-8.547-0.443c-9.265,0.418-18.447,2.945-32.755,9.01
	c-10.905,4.623-17.989,9.336-26.923,16.277c-6.146-4.486-13.318-10.992-20.312-17.34c-0.248-0.226-0.497-0.451-0.745-0.676
	c-4.775-10.194-9.667-20.487-14.298-27.493c0.044-0.035,0.088-0.068,0.132-0.102C138.491,71.108,138.704,70.94,138.808,70.872z
	 M240.965,94.516c-2.348,6.812-7.398,14.916-18.055,21.735c-21.985,14.072-38.466,7.396-44.53,3.871
	c-0.86-0.502-1.756-1.065-2.68-1.688c8.473-6.547,15.332-11.052,25.729-15.457c14-5.937,22.935-8.404,31.866-8.809
	C237.292,93.989,239.759,94.292,240.965,94.516z M51.887,63.449c0.824-1.066,8.336-10.546,17.819-14.606
	c8.726-3.736,22.312-6.859,37.491-0.521c14.189,5.924,21.908,14.8,27.586,22.701c4.043,5.629,8.387,14.279,12.703,23.367
	c-8.122-7.281-16.146-14.094-22.688-17.555c-8.084-4.273-24.857-9.315-46.367,4.938c-19.269,12.77-20.83,29.473-20.609,36.063
	c0.109,3.248,0.391,11.506,4.129,19.59C51.08,120.903,47.329,77.053,47.1,74.233C47.227,73.405,48.145,68.288,51.887,63.449z
	 M122.335,78.479c-7.958,5.164-15.204,9.828-22.47,14.217c-10.822,6.533-20.166,9.888-30.299,10.871
	c-2.563,0.25-4.877,0.013-6.447-0.254c2.588-6.25,7.51-13.281,16.736-19.395C99.186,71.106,114.349,74.661,122.335,78.479z
	 M160.907,126.512c-14.87,9.666-37.343,24.271-55.124,26.971c-12.5,1.904-29.234-0.953-37.024-10.086
	c-7.806-9.149-8.226-21.567-8.361-25.647c-0.088-2.617,0.135-6.945,1.808-11.98c1.259,0.238,3.048,0.482,5.13,0.482
	c0.789,0,1.623-0.035,2.482-0.119c10.534-1.025,20.213-4.488,31.38-11.232c7.644-4.615,15.24-9.52,23.668-14.992l-0.092-0.139
	c7.317,4.209,16.532,12.471,25.557,20.658c0.199,0.424,0.396,0.846,0.594,1.268c4.146,8.863,8.098,17.297,11.811,23.633
	L160.907,126.512z M250.256,135.692c-2.202,3.705-7.456,10.537-17.891,14.69c-14.636,5.824-27.953,6.037-39.579,0.636
	c-13.91-6.466-19.133-13.433-26.078-24.136c-3.551-5.471-7.389-13.373-11.434-21.975c8.031,7.252,15.555,13.805,21.812,17.441
	c6.475,3.76,24.034,10.908,47.212-3.93c19.472-12.461,21.299-29.14,21.183-35.729c-0.045-2.439-0.14-7.709-1.713-13.629
	c7.896,19.412,10.789,52.787,11.021,55.604C254.57,125.615,253.365,130.462,250.256,135.692z"/>
</svg>
