<?xml version="1.0" encoding="utf-8"?>
<!-- Generator: Adobe Illustrator 15.0.2, SVG Export Plug-In . SVG Version: 6.00 Build 0)  -->
<!DOCTYPE svg PUBLIC "-//W3C//DTD SVG 1.1//EN" "http://www.w3.org/Graphics/SVG/1.1/DTD/svg11.dtd">
<svg version="1.1" id="Layer_7" xmlns="http://www.w3.org/2000/svg" xmlns:xlink="http://www.w3.org/1999/xlink" x="0px" y="0px"
	 width="260.986px" height="175.491px" viewBox="0 0 260.986 175.491" enable-background="new 0 0 260.986 175.491"
	 xml:space="preserve">
<path fill="#231F20" d="M73.909,119.858l5.613-3.693l-6.389,2.174c-2.186-3.4-6.482-4.836-10.275-3.422l-3.785-5.754l2.221,6.523
	c-3.434,2.139-4.915,6.408-3.57,10.207l-5.654,3.719l6.381-2.172c2.136,3.586,6.559,5.127,10.447,3.668l3.621,5.506l-2.123-6.24
	C73.947,128.19,75.437,123.741,73.909,119.858z M72.075,118.7l-5.498,1.869l-3.106-4.723
	C66.645,114.784,70.169,115.954,72.075,118.7z M61.652,116.741l1.825,5.365l-4.822,3.174
	C57.656,122.103,58.875,118.606,61.652,116.741z M59.497,127.083l5.519-1.877l3.269,4.971
	C65.013,131.284,61.364,130.011,59.497,127.083z M70.037,129.319l-1.922-5.65l4.87-3.203
	C74.158,123.735,72.932,127.409,70.037,129.319z"/>
<g>
	<path fill="#231F20" d="M140.851,66.289c0.84,0.002,1.423-0.364,2.102-0.827c0.776-0.529,0.947-1.167,2.333-0.972
		c0.404,0.057,0.854,0.131,1.242-0.073c0.534-0.28,0.493-1.049,1.061-0.784c1.522,0.711,2.532,1.772,3.764,2.864
		c0.417,0.371,1.186-0.537,0.764-0.91c-1.229-1.093-3.336-3.764-5.239-2.974c-0.246,0.102-0.379,0.415-0.498,0.622
		c-0.202,0.356-1.27,0.097-1.749,0.085c-1.495-0.037-1.894,1.916-3.44,1.912C140.669,65.231,140.187,66.287,140.851,66.289
		L140.851,66.289z"/>
</g>
<g>
	<path fill="#231F20" d="M149.688,68.302c0.862-0.836,1.822-1.484,2.88-2.057c1.768-0.957,3.106-0.515,4.845,0.186
		c0.863,0.348,2.337,0.26,2.935,1.017c0.345,0.438,1.17,0.794,1.696,0.975c0.505,0.173,1.14-0.825,0.568-1.021
		c-1.107-0.379-1.639-1.28-2.785-1.543c-1.384-0.316-2.979-1.239-4.381-1.307c-2.288-0.109-4.595,1.465-6.17,2.993
		C148.817,67.989,149.123,68.85,149.688,68.302L149.688,68.302z"/>
</g>
<g>
	<path fill="#231F20" d="M158.831,66.767c0.979-0.197,1.384-0.565,2.195-1.202c1.091-0.856,2.728-0.178,4.046-0.62
		c1.689-0.567,3.07-0.121,3.621-2.101c-0.283,0.151-0.566,0.303-0.85,0.454c0.796,0.962,1.018,1.52,2.244,1.746
		c1.445,0.267,2.196,1.453,3.425,2.134c0.457,0.252,1.105-0.724,0.568-1.021c-0.8-0.441-1.291-1.248-2.076-1.673
		c-1.225-0.663-2.446-0.948-3.397-2.096c-0.266-0.322-0.783,0.213-0.85,0.454c-0.377,1.354-4.597,1.277-5.408,1.188
		c-1.332-0.148-2.197,1.467-3.429,1.714C158.395,65.85,158.11,66.911,158.831,66.767L158.831,66.767z"/>
</g>
<g>
	<path fill="#231F20" d="M154.617,62.624c1.468-0.976,2.638-2.627,4.534-1.232c1.082,0.797,1.617,1.288,2.991,1.556
		c0.521,0.101,1.141-0.91,0.568-1.021c-1.008-0.195-1.771-0.452-2.519-1.188c-0.57-0.563-1.299-0.919-2.114-0.953
		c-1.744-0.073-2.533,1.191-3.873,2.082C153.652,62.233,153.971,63.054,154.617,62.624L154.617,62.624z"/>
</g>
<g>
	<path fill="#231F20" d="M155.912,74.726c1.353-0.584,2.064-1.6,3.669-1.7c0.574-0.036,1.02-0.591,1.306-1.024
		c0.614-0.93,1.65,0.169,2.461,0.255c0.703,0.074,1.422,0.068,2.113,0.232c0.825,0.195,1.688,1.156,2.422,1.595
		c0.485,0.292,1.229-0.632,0.764-0.91c-0.991-0.595-1.972-1.732-3.191-1.832c-1.073-0.088-2.09-0.04-3.007-0.717
		c-0.319-0.237-0.282-0.273-0.677-0.302c-1.013-0.074-1.527,1.626-2.498,1.687c-1.627,0.103-2.042,1.154-3.525,1.795
		C155.209,74.036,155.197,75.034,155.912,74.726L155.912,74.726z"/>
</g>
<g>
	<path fill="#231F20" d="M165.947,76.372c0.915-0.441,1.655-0.981,2.431-1.634c1.364-1.146,1.865-1.613,3.633-1.188
		c1.161,0.279,1.812-1.025,2.242-1.832c-0.231,0.125-0.462,0.249-0.693,0.374c1.877,0.833,2.832,2.616,4.287,3.956
		c0.409,0.378,1.179-0.528,0.764-0.91c-1.522-1.403-2.523-3.197-4.482-4.067c-0.261-0.115-0.583,0.167-0.693,0.374
		c-0.984,1.842-1.862,0.012-2.939,0.567c-1.741,0.898-2.924,2.576-4.712,3.438C165.258,75.703,165.245,76.711,165.947,76.372
		L165.947,76.372z"/>
</g>
<g>
	<path fill="#231F20" d="M176.035,73.892c0.751-0.305,1.266-0.743,1.794-1.344c0.21-0.239,0.379-0.527,0.548-0.796
		c0.49-0.777,0.924-0.117,1.502-0.026c0.674,0.105,1.004-0.21,1.419-0.714c0.831-1.008,1.725-1.929,2.602-2.901
		c-0.257,0.033-0.515,0.067-0.771,0.101c0.456,0.576,0.222,1.203,0.601,1.729c0.438,0.606,0.921,1.043,1.534,1.478
		c0.461,0.327,1.215-0.591,0.764-0.91c-0.606-0.431-1.269-0.861-1.475-1.664c-0.154-0.598-0.132-0.88-0.518-1.368
		c-0.225-0.285-0.564-0.129-0.771,0.101c-0.772,0.855-1.674,1.616-2.361,2.543c-0.482,0.651-1.004,0.249-1.626,0.198
		c-1.474-0.121-2.222,2.173-3.404,2.653C175.325,73.19,175.315,74.184,176.035,73.892L176.035,73.892z"/>
</g>
<g>
	<path fill="#231F20" d="M185.521,71.476c0.566-0.153,1.04-0.444,1.502-0.799c-0.22-0.004-0.439-0.007-0.659-0.011
		c0.582,1.11,1.829,1.399,2.587,2.321c0.341,0.415,1.123-0.474,0.764-0.91c-0.704-0.858-1.908-1.125-2.444-2.147
		c-0.138-0.264-0.479-0.149-0.659-0.011c-0.316,0.242-0.612,0.429-1,0.533C185.097,70.591,184.813,71.666,185.521,71.476
		L185.521,71.476z"/>
</g>
<g>
	<path fill="#231F20" d="M187.419,75.476c0.645-0.667,1.211-1.401,1.815-2.104c0.914-1.063,1.681-1.58,3.1-1.214
		c1.393,0.359,2.286,0.191,2.915-1.216c0.316-0.709-0.548-0.88-0.818-0.273c-0.478,1.068-1.472,0.392-2.317,0.296
		c-0.704-0.08-1.232,0.01-1.851,0.354c-1.445,0.806-2.357,2.46-3.48,3.622C186.266,75.474,186.914,75.998,187.419,75.476
		L187.419,75.476z"/>
</g>
<g>
	<path fill="#231F20" d="M194.458,71.261c0.896,0.719,1.708,1.495,2.764,1.97c0.98,0.439,2.087-0.743,3.268-0.213
		c1.209,0.543,2.105,1.459,3.258,2.075c1.331,0.712,3.512,0.414,4.961,0.698c0.521,0.102,1.141-0.909,0.568-1.021
		c-1.241-0.243-2.434-0.411-3.696-0.48c-1.684-0.093-2.433-1.252-3.821-1.943c-0.563-0.279-1.64-1.046-2.321-0.819
		c-1.845,0.615-2.836-0.071-4.216-1.176C194.783,69.998,194.021,70.911,194.458,71.261L194.458,71.261z"/>
</g>
<g>
	<g>
		<path fill="#231F20" d="M97.878,88.366C96,90.2,94.547,95.881,98.007,96.922c0.512,0.153,1.143-0.849,0.568-1.021
			c-2.565-0.771-1.76-5.336-0.285-6.776C98.747,88.678,98.441,87.816,97.878,88.366L97.878,88.366z"/>
	</g>
	<g>
		<path fill="#231F20" d="M97.838,89.113c1.616,2.111,2.248,4.969,0.548,7.239c-0.437,0.583,0.194,1.128,0.639,0.535
			c1.973-2.635,1.685-5.945-0.28-8.511C98.371,87.89,97.519,88.697,97.838,89.113L97.838,89.113z"/>
	</g>
	<g>
		<path fill="#231F20" d="M98.209,96.13c0,0.423,0,0.846,0,1.269c0,0.735,0.992,0.272,0.992-0.266c0-0.008,0-0.017,0-0.024
			c0-0.735-0.992-0.272-0.992,0.266c0,0.009,0,0.017,0,0.024c0,0.735,0.992,0.272,0.992-0.266c0-0.423,0-0.846,0-1.269
			C99.201,95.129,98.209,95.592,98.209,96.13L98.209,96.13z"/>
	</g>
	<g>
		<path fill="#231F20" d="M98.209,96.544c0,0.553,0,1.105,0,1.658c0,0.735,0.992,0.272,0.992-0.266c0-0.553,0-1.105,0-1.658
			C99.201,95.543,98.209,96.006,98.209,96.544L98.209,96.544z"/>
	</g>
</g>
<g>
	<g>
		<path fill="#231F20" d="M99.147,104.905c1.66,1.078,4.182,0.512,6.014,0.28c0.33-0.042,0.771-0.401,0.66-0.786
			c-0.748-2.585-1.982-5.012-2.486-7.666c-0.031-0.161-0.157-0.271-0.322-0.271c-0.138,0-0.275,0-0.414,0
			c-0.298,0-0.545,0.265-0.637,0.527c-0.89,2.547-2.205,4.925-2.722,7.593c-0.137,0.708,0.894,0.244,0.992-0.266
			c0.496-2.566,1.81-4.875,2.665-7.325c-0.212,0.176-0.425,0.352-0.637,0.527c0.439,0,0.174,0.17,0.292,0.68
			c0.163,0.703,0.399,1.398,0.643,2.077c0.552,1.545,1.188,3.063,1.644,4.639c0.221-0.262,0.44-0.524,0.66-0.786
			c-1.606,0.203-4.133,0.809-5.588-0.134C99.437,103.687,98.688,104.608,99.147,104.905L99.147,104.905z"/>
	</g>
	<g>
		<path fill="#231F20" d="M102.189,104.823c-0.509-0.468-1.105,0.319-0.956,0.84c0.126,0.436,0.448,0.877,0.498,1.324
			c0.073,0.652,1.039-0.003,0.982-0.516c-0.027-0.246-0.168-0.501-0.261-0.727c-0.059-0.141-0.116-0.281-0.173-0.424
			c-0.022-0.058-0.045-0.115-0.064-0.175c-0.05-0.153,0.03-0.11-0.047,0.072c-0.172,0.171-0.343,0.341-0.514,0.511
			c-0.265-0.085-0.341-0.083-0.229,0.004C101.836,106.11,102.605,105.204,102.189,104.823L102.189,104.823z"/>
	</g>
	<g>
		<path fill="#231F20" d="M101.727,105.62c0,0.483,0,0.966,0,1.449c0,0.735,0.992,0.272,0.992-0.266c0-0.483,0-0.966,0-1.449
			C102.719,104.619,101.727,105.082,101.727,105.62L101.727,105.62z"/>
	</g>
</g>
<g>
	<g>
		<path fill="#231F20" d="M90.345,99.735c0.838,2.666,4.019,3.141,5.153,0.48c0.968-2.267-0.937-5.074-1.479-7.211
			c-0.165-0.65-1.11,0.01-0.982,0.516c0.326,1.286,0.914,2.499,1.299,3.769c0.216,0.714,0.361,1.452,0.355,2.199
			c-0.02,2.362-2.833,1.424-3.364-0.269C91.125,98.577,90.188,99.238,90.345,99.735L90.345,99.735z"/>
	</g>
	<g>
		<path fill="#231F20" d="M91.327,99.22c-0.337-2.145,0.646-4.551,2.105-6.104c0.508-0.54-0.138-1.066-0.637-0.535
			c-1.711,1.819-2.845,4.647-2.451,7.154C90.447,100.39,91.407,99.732,91.327,99.22L91.327,99.22z"/>
	</g>
	<g>
		<path fill="#231F20" d="M92.646,101.549c-0.161,0.533-0.357,1.325,0.015,1.818c0.369,0.49,1.223-0.317,0.906-0.736
			c-0.225-0.299-0.082-0.758,0.015-1.08C93.808,100.803,92.813,100.992,92.646,101.549L92.646,101.549z"/>
	</g>
	<g>
		<path fill="#231F20" d="M92.618,102.097c0,0.441,0,0.884,0,1.325c0,0.735,0.992,0.272,0.992-0.266c0-0.027,0-0.054,0-0.081
			c0-0.735-0.992-0.272-0.992,0.266c0,0.027,0,0.055,0,0.081c0,0.735,0.992,0.272,0.992-0.266c0-0.441,0-0.884,0-1.325
			C93.61,101.096,92.618,101.559,92.618,102.097L92.618,102.097z"/>
	</g>
	<g>
		<path fill="#231F20" d="M93.119,101.827c-0.201,0.436-0.292,0.825-0.294,1.305c-0.002,0.735,0.99,0.272,0.992-0.266
			c0.001-0.273,0.003-0.513,0.12-0.766C94.264,101.395,93.397,101.226,93.119,101.827L93.119,101.827z"/>
	</g>
</g>
<g>
	<g>
		<path fill="#231F20" d="M195.931,44.937c-1.879,1.834-3.329,7.513,0.129,8.556c0.512,0.153,1.142-0.848,0.568-1.021
			c-2.563-0.772-1.761-5.336-0.285-6.776C196.801,45.248,196.494,44.387,195.931,44.937L195.931,44.937z"/>
	</g>
	<g>
		<path fill="#231F20" d="M195.891,45.684c1.617,2.109,2.249,4.967,0.55,7.236c-0.438,0.583,0.193,1.128,0.637,0.535
			c1.973-2.634,1.686-5.944-0.28-8.508C196.424,44.46,195.571,45.268,195.891,45.684L195.891,45.684z"/>
	</g>
	<g>
		<path fill="#231F20" d="M196.263,52.698c0,0.423,0,0.846,0,1.268c0,0.735,0.992,0.272,0.992-0.266c0-0.008,0-0.017,0-0.024
			c0-0.735-0.992-0.272-0.992,0.266c0,0.009,0,0.017,0,0.024c0,0.735,0.992,0.272,0.992-0.266c0-0.423,0-0.845,0-1.268
			C197.255,51.697,196.263,52.16,196.263,52.698L196.263,52.698z"/>
	</g>
	<g>
		<path fill="#231F20" d="M196.263,53.114c0,0.552,0,1.104,0,1.655c0,0.735,0.992,0.272,0.992-0.266c0-0.552,0-1.104,0-1.655
			C197.255,52.113,196.263,52.576,196.263,53.114L196.263,53.114z"/>
	</g>
</g>
<g>
	<g>
		<path fill="#231F20" d="M174.624,58.738c1.322,0.86,3.307,0.42,4.768,0.237c0.33-0.041,0.771-0.402,0.66-0.786
			c-0.588-2.029-1.557-3.935-1.951-6.019c-0.03-0.161-0.157-0.271-0.322-0.271c-0.108,0-0.217,0-0.326,0
			c-0.298,0-0.545,0.265-0.637,0.527c-0.701,2.01-1.735,3.884-2.144,5.988c-0.137,0.708,0.893,0.244,0.992-0.266
			c0.388-2.003,1.42-3.808,2.087-5.721c-0.212,0.176-0.425,0.352-0.637,0.527c0.108,0,0.217,0,0.326,0
			c-0.107-0.09-0.215-0.18-0.322-0.271c0.396,2.087,1.363,3.989,1.951,6.019c0.221-0.262,0.44-0.524,0.66-0.786
			c-1.238,0.154-3.221,0.638-4.342-0.091C174.913,57.519,174.165,58.44,174.624,58.738L174.624,58.738z"/>
	</g>
	<g>
		<path fill="#231F20" d="M177.177,58.48c-0.082-0.075-0.18-0.13-0.295-0.123c-0.234,0.014-0.479,0.175-0.578,0.392
			c-0.271,0.592,0.251,1.018,0.326,1.581c0.088,0.653,1.051-0.003,0.982-0.516c-0.024-0.178-0.116-0.356-0.183-0.521
			c-0.047-0.113-0.094-0.227-0.14-0.34c-0.114-0.281-0.007-0.283-0.168,0.069c-0.193,0.131-0.386,0.262-0.579,0.392
			c-0.173-0.084-0.216-0.092-0.13-0.023C176.826,59.765,177.595,58.858,177.177,58.48L177.177,58.48z"/>
	</g>
	<g>
		<path fill="#231F20" d="M176.625,59.23c0,0.38,0,0.759,0,1.139c0,0.735,0.992,0.272,0.992-0.266c0-0.38,0-0.759,0-1.139
			C177.617,58.229,176.625,58.692,176.625,59.23L176.625,59.23z"/>
	</g>
</g>
<g>
	<g>
		<path fill="#231F20" d="M183.546,48.423c1.252,0.811,3.119,0.399,4.502,0.228c0.33-0.041,0.771-0.402,0.66-0.786
			c-0.553-1.912-1.465-3.707-1.838-5.67c-0.031-0.161-0.157-0.271-0.322-0.271c-0.102,0-0.204,0-0.307,0
			c-0.298,0-0.545,0.265-0.637,0.527c-0.663,1.896-1.636,3.663-2.021,5.649c-0.137,0.708,0.894,0.244,0.992-0.266
			c0.364-1.884,1.336-3.582,1.964-5.382c-0.212,0.176-0.425,0.352-0.637,0.527c0.102,0,0.204,0,0.307,0
			c-0.107-0.09-0.215-0.18-0.322-0.271c0.374,1.966,1.286,3.758,1.838,5.67c0.221-0.262,0.44-0.524,0.66-0.786
			c-1.159,0.145-3.025,0.599-4.076-0.081C183.834,47.204,183.086,48.126,183.546,48.423L183.546,48.423z"/>
	</g>
	<g>
		<path fill="#231F20" d="M185.994,48.124c-0.127-0.113-0.25-0.135-0.417-0.101c-0.238,0.048-0.44,0.288-0.513,0.51
			c-0.159,0.491,0.3,0.917,0.363,1.378c0.091,0.653,1.053-0.003,0.982-0.516c-0.025-0.18-0.117-0.359-0.186-0.525
			c-0.046-0.111-0.092-0.223-0.137-0.335c-0.08-0.198,0.001-0.271-0.087,0.001c-0.171,0.17-0.342,0.34-0.513,0.51
			c-0.086-0.004-0.172-0.008-0.258-0.012C185.648,49.405,186.416,48.497,185.994,48.124L185.994,48.124z"/>
	</g>
	<g>
		<path fill="#231F20" d="M185.423,48.866c0,0.357,0,0.715,0,1.072c0,0.735,0.992,0.272,0.992-0.266c0-0.357,0-0.715,0-1.072
			C186.415,47.865,185.423,48.328,185.423,48.866L185.423,48.866z"/>
	</g>
</g>
<g>
	<g>
		<path fill="#231F20" d="M187.36,57.754c0.839,2.665,4.02,3.141,5.154,0.479c0.966-2.268-0.938-5.072-1.479-7.209
			c-0.165-0.65-1.11,0.01-0.982,0.516c0.325,1.286,0.913,2.497,1.298,3.767c0.216,0.714,0.361,1.451,0.355,2.199
			c-0.019,2.362-2.832,1.426-3.364-0.268C188.141,56.597,187.204,57.257,187.36,57.754L187.36,57.754z"/>
	</g>
	<g>
		<path fill="#231F20" d="M188.343,57.238c-0.336-2.146,0.647-4.552,2.107-6.104c0.507-0.54-0.139-1.066-0.639-0.535
			c-1.71,1.82-2.844,4.647-2.451,7.155C187.463,58.408,188.423,57.751,188.343,57.238L188.343,57.238z"/>
	</g>
	<g>
		<path fill="#231F20" d="M189.663,59.567c-0.161,0.533-0.357,1.325,0.015,1.818c0.369,0.49,1.223-0.317,0.906-0.736
			c-0.225-0.299-0.082-0.758,0.015-1.08C190.824,58.821,189.83,59.011,189.663,59.567L189.663,59.567z"/>
	</g>
	<g>
		<path fill="#231F20" d="M189.635,60.115c0,0.441,0,0.883,0,1.324c0,0.735,0.992,0.272,0.992-0.266c0-0.027,0-0.055,0-0.082
			c0-0.735-0.992-0.272-0.992,0.266c0,0.027,0,0.055,0,0.082c0,0.735,0.992,0.272,0.992-0.266c0-0.441,0-0.883,0-1.324
			C190.627,59.114,189.635,59.577,189.635,60.115L189.635,60.115z"/>
	</g>
	<g>
		<path fill="#231F20" d="M190.136,59.846c-0.201,0.436-0.292,0.825-0.294,1.305c-0.002,0.735,0.99,0.272,0.992-0.266
			c0.001-0.273,0.003-0.513,0.12-0.766C191.28,59.413,190.414,59.244,190.136,59.846L190.136,59.846z"/>
	</g>
</g>
<g>
	<path fill="#231F20" d="M56.372,109.109c-0.274-1.517-0.677-3.004-0.951-4.52c-0.343,0.279-0.686,0.56-1.028,0.84
		c1.062,0.633,3.886,4.428,5.345,2.396c1.127-1.568-0.15-4.751-1.031-6.22c-0.367-0.613-1.389,0.33-1.066,0.867
		c0.756,1.262,1.308,3.042,1.334,4.515c0.009,0.457-1.551-0.744-1.848-1.006c-0.606-0.535-1.133-1.208-1.833-1.625
		c-0.49-0.292-1.121,0.327-1.028,0.84c0.274,1.517,0.677,3.004,0.951,4.52C55.355,110.486,56.48,109.712,56.372,109.109
		L56.372,109.109z"/>
</g>
<g>
	<path fill="#231F20" d="M205.441,57.11c-2.508,1.725-4.524,4.291-6.758,6.346c-0.399,0.367-0.824,1.013-0.521,1.57
		c0.284,0.521,1.023,0.356,1.386,0.023c2.233-2.055,4.251-4.621,6.758-6.346C207.455,57.914,206.788,56.184,205.441,57.11
		L205.441,57.11z"/>
</g>
<g>
	<path fill="#231F20" d="M198.083,58.413c1.786,2.677,4.256,4.671,6.494,6.942c0.813,0.825,2.442-1.068,1.607-1.916
		c-2.123-2.153-4.502-4.035-6.195-6.573C199.275,55.797,197.465,57.487,198.083,58.413L198.083,58.413z"/>
</g>
<path fill="#231F20" d="M124.426,125.663c-0.137-1.76-0.51-3.412-0.895-5.131c-0.722-3.217,1.117-5.377,4.134-6.412
	c1.748-0.598,3.11-1.184,4.23-2.717c2.015-2.758,1.583-6.621,3.739-9.305c0.021-0.023,0.033-0.051,0.053-0.076
	c-0.229-0.48-0.457-0.965-0.686-1.451c-0.213,0.059-0.437,0.201-0.644,0.457c-1.923,2.396-2.313,5.418-3.276,8.26
	c-0.984,2.91-5.332,3.346-7.662,5.045c-1.604,1.17-2.346,3.473-2.131,5.377c0.183,1.604,0.584,3.148,0.918,4.725
	c0.775,3.664-0.571,6.785-2.299,9.916c-0.108,0.195-0.161,0.365-0.177,0.518c0.88-0.494,1.755-0.994,2.626-1.496
	C123.592,130.979,124.639,128.376,124.426,125.663z"/>
<path fill="#231F20" d="M164.77,98.862c-2.063-0.785-3.367-1.42-4.703-3.357c-0.629-0.912-1.256-2-2.281-2.527
	c-3.837-1.969-8.129,0.146-11.996,0.904c-2.853,0.559-5.332,0.92-7.182,3.031c0.406,0.367,0.813,0.732,1.217,1.098
	c1.736-2.115,5.911-2.035,8.342-2.664c3.278-0.848,7.261-2.279,9.656,0.986c0.906,1.236,1.785,2.947,3.245,3.635
	c2.038,0.963,4.46,0.9,4.565,3.613c0.646-0.424,1.298-0.842,1.952-1.252C167.418,100.642,166.625,99.567,164.77,98.862z"/>
<path fill="#231F20" d="M239.229,118.8c-0.167-2.152-4.204-52.838-17.598-67.57c-4.426-4.871-9.029-7.221-9.223-7.32l-0.01,0.021
	c-9.365-5.922-22.627-7.449-32.799-6.053c-18.011,2.473-43.983,14.436-60.329,24.973c-0.132,0.084-0.424,0.307-0.712,0.531
	c-0.008,0.004-0.014,0.01-0.02,0.014c-5.871-8.126-13.867-17.203-28.49-23.309c-16.011-6.685-30.315-3.401-39.496,0.529
	c-10.083,4.318-17.978,14.28-18.845,15.401c-4.52,5.844-5.293,11.911-5.324,12.165l-0.015,0.127l0.01,0.127
	c0.165,2.148,4.204,52.838,17.595,67.57c4.102,4.514,8.096,6.889,9.004,7.428c7.736,4.986,17.591,7.334,26.885,7.334
	c2.847,0,5.606-0.207,8.166-0.596c18.331-2.785,41.085-17.574,56.142-27.359l1.758-1.141c0.16,0.254,0.32,0.51,0.479,0.754
	c7.197,11.092,12.615,18.314,27.152,25.068c5.947,2.764,12.291,4.146,18.993,4.146c7.153-0.002,14.714-1.576,22.624-4.723
	c11.143-4.436,16.782-11.783,19.151-15.768c3.689-6.203,4.832-11.766,4.879-12l0.035-0.176L239.229,118.8z M120.666,65.015
	c16.107-10.384,41.645-22.164,59.285-24.586c12.513-1.721,29.194,1.396,36.857,10.674c7.661,9.274,7.881,21.695,7.953,25.777
	c0.039,2.145-0.148,5.434-1.18,9.303c-1.33-0.271-4.07-0.646-8.546-0.443c-9.265,0.418-18.448,2.945-32.755,9.01
	c-10.906,4.623-17.99,9.336-26.923,16.277c-6.146-4.486-13.319-10.992-20.312-17.34c-0.248-0.225-0.497-0.451-0.745-0.676
	c-4.775-10.193-9.667-20.486-14.298-27.492c0.044-0.035,0.088-0.068,0.132-0.102C120.35,65.251,120.563,65.083,120.666,65.015z
	 M222.823,88.659c-2.348,6.811-7.399,14.916-18.055,21.736c-21.985,14.072-38.466,7.395-44.53,3.871
	c-0.861-0.502-1.756-1.066-2.68-1.689c8.473-6.547,15.332-11.051,25.728-15.457c14-5.936,22.935-8.404,31.867-8.809
	C219.15,88.132,221.617,88.435,222.823,88.659z M33.745,57.592c0.825-1.066,8.336-10.546,17.82-14.606
	c8.725-3.736,22.311-6.859,37.491-0.521c14.189,5.924,21.908,14.8,27.586,22.701c4.043,5.629,8.387,14.279,12.703,23.367
	c-8.122-7.281-16.145-14.094-22.688-17.555c-8.084-4.273-24.858-9.315-46.368,4.938c-19.268,12.77-20.83,29.473-20.609,36.063
	c0.109,3.248,0.391,11.506,4.129,19.59c-10.871-16.521-14.622-60.371-14.852-63.191C29.085,67.548,30.003,62.431,33.745,57.592z
	 M104.193,72.622c-7.958,5.164-15.204,9.828-22.47,14.217c-10.822,6.533-20.166,9.887-30.299,10.871
	c-2.563,0.25-4.877,0.012-6.447-0.254c2.588-6.25,7.51-13.281,16.736-19.395C81.044,65.249,96.207,68.804,104.193,72.622z
	 M142.766,120.655c-14.87,9.666-37.343,24.271-55.124,26.971c-12.5,1.904-29.234-0.953-37.024-10.086
	c-7.806-9.15-8.226-21.568-8.362-25.648c-0.088-2.617,0.135-6.945,1.808-11.98c1.259,0.238,3.048,0.482,5.13,0.482
	c0.789,0,1.623-0.035,2.482-0.119c10.534-1.025,20.213-4.488,31.38-11.232c7.644-4.615,15.24-9.52,23.668-14.992l-0.092-0.139
	c7.318,4.209,16.532,12.471,25.557,20.658c0.199,0.424,0.396,0.846,0.594,1.268c4.146,8.863,8.097,17.297,11.81,23.633
	L142.766,120.655z M232.114,129.835c-2.203,3.705-7.456,10.537-17.891,14.691c-14.636,5.824-27.953,6.037-39.579,0.635
	c-13.91-6.465-19.133-13.432-26.078-24.135c-3.551-5.471-7.389-13.373-11.434-21.975c8.031,7.252,15.555,13.805,21.812,17.441
	c6.474,3.76,24.034,10.908,47.212-3.93c19.471-12.461,21.298-29.139,21.182-35.729c-0.045-2.439-0.139-7.709-1.713-13.629
	c7.897,19.412,10.789,52.787,11.021,55.604C236.429,119.757,235.224,124.606,232.114,129.835z"/>
<g>
	<path fill="#231F20" d="M96.676,132.306c-1.599,2.368-3.192,4.604-4.641,6.576c0.629,0.496,1.299,0.942,1.937,1.43
		c1.496-2.032,3.144-4.345,4.797-6.801c-0.369-0.208-0.732-0.427-1.086-0.659C97.345,132.675,97.008,132.495,96.676,132.306z"/>
	<path fill="#231F20" d="M101.816,124.175c-0.007-0.004-0.011-0.008-0.018-0.011c-0.436,0.756-0.885,1.513-1.344,2.267
		c0.18,0.108,0.355,0.222,0.528,0.339c0.521,0.281,1.002,0.635,1.46,1.018c0.507-0.831,1.001-1.666,1.479-2.502
		c-0.603-0.319-1.192-0.664-1.802-0.972C102.021,124.265,101.919,124.219,101.816,124.175z"/>
	<path fill="#231F20" d="M105.563,116.772c-0.851,1.995-1.913,4.097-3.103,6.228c0.722,0.218,1.498,0.602,2.138,1.091
		c1.2-2.161,2.28-4.306,3.154-6.357c-0.726-0.291-1.495-0.473-2.15-0.931C105.588,116.793,105.575,116.782,105.563,116.772z"/>
	<path fill="#231F20" d="M88.784,91.04c0.11,0.063,0.218,0.128,0.322,0.197c0.025,0.016,0.051,0.031,0.076,0.047
		c-0.001,0.002-0.002,0.003-0.004,0.005c0.009,0.006,0.017,0.012,0.024,0.018c0.04,0.024,0.078,0.052,0.117,0.076
		c1.412-2.282,3.425-4.349,5.684-5.302c-0.179-0.4-0.356-0.8-0.539-1.199c-0.07-0.146-0.139-0.293-0.203-0.441
		c-0.083-0.179-0.17-0.356-0.256-0.534c-1.583,0.681-3.119,1.797-4.516,3.295c-0.818,0.879-1.564,1.869-2.211,2.919
		C87.797,90.403,88.291,90.72,88.784,91.04z"/>
	<path fill="#231F20" d="M84.646,99.013c0.381,0.055,0.76,0.124,1.136,0.209c0.32,0.057,0.642,0.112,0.963,0.165
		c0.077-1.491,0.438-3.091,1.085-4.924c0.205-0.58,0.458-1.173,0.754-1.761c-0.158-0.085-0.314-0.172-0.471-0.26
		c-0.563-0.261-1.116-0.538-1.672-0.811c-0.332,0.667-0.624,1.35-0.867,2.036c-0.679,1.929-1.079,3.66-1.199,5.293
		C84.465,98.978,84.555,98.994,84.646,99.013z"/>
	<path fill="#231F20" d="M95.135,113.507c0.047-0.521,0.154-1.021,0.312-1.508c0.014-0.117,0.027-0.233,0.043-0.353
		c0.022-0.175,0.101-0.314,0.206-0.417c-2.438-0.268-4.141-1.295-5.415-2.657c-0.272,0.16-0.548,0.312-0.831,0.439
		c-0.059,0.031-0.117,0.062-0.176,0.092c-0.368,0.237-0.743,0.465-1.15,0.637c1.553,1.837,3.748,3.4,7.012,3.831
		C95.135,113.55,95.132,113.53,95.135,113.507z"/>
	<path fill="#231F20" d="M107.188,107.858c-1.89,1.228-4.144,2.43-5.994,2.881c-0.068,0.017-0.135,0.032-0.203,0.048
		c0.019,0.06,0.03,0.125,0.032,0.196c0.013,0.739,0.118,1.473,0.133,2.214c0,0.002-0.001,0.003-0.001,0.004
		c0.2-0.043,0.401-0.089,0.605-0.139c1.649-0.403,3.332-1.154,4.98-2.105C106.679,110.529,107.018,108.436,107.188,107.858z"/>
	<path fill="#231F20" d="M87.371,108.313c0.103-0.112,0.247-0.19,0.436-0.206c0.088-0.039,0.176-0.077,0.265-0.113
		c0.391-0.239,0.771-0.498,1.17-0.724c-0.424-0.617-0.793-1.268-1.128-1.924c-0.057-0.111-0.108-0.222-0.161-0.332
		c-0.689,0.255-1.385,0.467-2.115,0.588c-0.088,0.015-0.173,0.011-0.253-0.008c0.124,0.278,0.257,0.558,0.399,0.839
		c0.333,0.65,0.714,1.328,1.159,1.997C87.219,108.392,87.295,108.352,87.371,108.313z"/>
	<path fill="#231F20" d="M100.013,82.825c0.004,0.368-0.035,0.737-0.118,1.107c0.042,0.425,0.011,0.872-0.069,1.274
		c0.752,0.013,1.489,0.124,2.214,0.385c0.076-0.072,0.152-0.145,0.228-0.217c0.181-0.619,0.374-1.236,0.609-1.836
		c-0.001-0.068,0.011-0.129,0.027-0.184C101.942,83.004,100.974,82.853,100.013,82.825z"/>
	<path fill="#231F20" d="M105.202,84.62c-0.232,0.301-0.486,0.579-0.753,0.844c-0.258,0.34-0.565,0.645-0.895,0.92
		c0.614,0.429,1.219,0.995,1.816,1.732c0.523-0.335,1.043-0.67,1.592-0.952c0.151-0.104,0.3-0.212,0.446-0.325
		C106.691,85.916,105.953,85.188,105.202,84.62z"/>
	<path fill="#231F20" d="M108.418,88.288c-0.045-0.07-0.089-0.139-0.134-0.208c-0.678,0.422-1.24,1.013-1.966,1.362
		c0.023,0.038,0.048,0.074,0.072,0.113c0.438,0.699,0.841,1.476,1.196,2.271c0.117-0.053,0.235-0.104,0.353-0.154
		c0.321-0.188,0.687-0.303,1.064-0.387c0.278-0.083,0.561-0.152,0.849-0.206C109.453,90.126,108.979,89.186,108.418,88.288z"/>
	<path fill="#231F20" d="M108.31,93.027c-0.067,0.034-0.138,0.052-0.207,0.059c0.322,0.86,0.581,1.712,0.756,2.49
		c0.036-0.011,1.876-0.357,2.26-0.354c-0.178-0.888-0.419-1.799-0.726-2.712C109.697,92.677,109.006,92.862,108.31,93.027z"/>
	<path fill="#231F20" d="M111.206,102.725c-0.41-0.115-1.035-0.098-1.536-0.139c-0.22-0.018-0.477-0.023-0.724-0.063
		c-0.109,1.024-0.266,2.105-0.463,3.257c0.008,0.005,0.013,0.013,0.021,0.019l-0.021,0.021l-0.942,4.723
		c-0.075,0.35-0.153,0.704-0.234,1.064c-0.027,0.121-0.056,0.243-0.086,0.365c0.05,0.005,0.101,0.014,0.155,0.031
		c0.244,0.079,0.479,0.178,0.706,0.289c0.474,0.009,0.974,0.105,1.456,0.266c0.036-0.145,0.07-0.288,0.102-0.43
		c0.175-0.782,0.338-1.536,0.491-2.271l0.979-5.438c0.08-0.572,0.148-1.129,0.206-1.674
		C111.28,102.742,111.244,102.735,111.206,102.725z"/>
	<path fill="#231F20" d="M117.918,99.423c-0.136-0.142-0.27-0.283-0.402-0.429c-0.271,0.259-0.561,0.54-0.874,0.844
		c-0.484,0.47-1.026,0.994-1.618,1.556c0.035,0.025,0.071,0.054,0.104,0.089c0.142,0.144,0.279,0.29,0.416,0.438
		c0.045,0.043,0.09,0.085,0.135,0.127c0.033,0.027,0.065,0.055,0.098,0.083c0.065,0.04,0.13,0.077,0.188,0.114
		c0.323,0.204,0.643,0.416,0.932,0.667c0.51-0.485,0.982-0.942,1.409-1.356c0.313-0.305,0.604-0.585,0.869-0.84
		C118.753,100.285,118.313,99.876,117.918,99.423z"/>
	<path fill="#231F20" d="M121.336,96.271c-0.034-0.038-0.067-0.076-0.103-0.114c-0.006-0.005-0.01-0.011-0.015-0.015
		c-0.051-0.057-0.103-0.109-0.154-0.164c-0.765,0.598-1.396,1.119-1.881,1.52l-0.308,0.253c-0.11,0.092-0.233,0.197-0.362,0.313
		c0.605,0.53,1.244,1.022,1.763,1.635c0.039-0.035,0.081-0.071,0.118-0.102l0.313-0.257c0.493-0.408,1.147-0.948,1.944-1.567
		C122.161,97.322,121.733,96.808,121.336,96.271z"/>
	<path fill="#231F20" d="M126.275,95.06c-0.528-0.507-1.006-1.064-1.408-1.681c-0.023-0.027-0.047-0.055-0.07-0.082
		c-0.989,0.649-1.884,1.283-2.671,1.871c0.011,0.012,0.021,0.023,0.032,0.034c0.005,0.006,0.009,0.011,0.014,0.016
		c0.008,0.009,0.018,0.02,0.026,0.029c0.042,0.036,0.081,0.078,0.117,0.128c0.002,0.001,0.003,0.004,0.005,0.006
		c0.473,0.524,0.925,1.065,1.424,1.565c0.77-0.569,1.64-1.18,2.599-1.802C126.319,95.116,126.298,95.088,126.275,95.06z"/>
	<path fill="#231F20" d="M140.184,87.209c-0.037-0.102-0.068-0.207-0.099-0.313c-0.494,0.101-0.988,0.209-1.48,0.322
		c-2.763,0.637-5.311,1.568-7.605,2.625c0.066,0.09,0.114,0.199,0.129,0.332c0.003,0.031,0.019,0.071,0.038,0.112
		c0.394,0.481,0.762,0.983,1.11,1.5c0.019,0.027,0.033,0.055,0.046,0.081c2.077-0.935,4.361-1.754,6.819-2.321
		c0.453-0.104,0.908-0.203,1.363-0.298C140.356,88.58,140.271,87.893,140.184,87.209z"/>
	<path fill="#231F20" d="M161.649,88.201c0.017-0.27,0.032-0.538,0.052-0.807c-0.029-0.439-0.053-0.879-0.069-1.319
		c-1.184-0.143-2.364-0.255-3.543-0.337c-0.012,0.807,0.07,1.606,0.154,2.405c1.123,0.085,2.249,0.197,3.377,0.34
		C161.63,88.39,161.639,88.295,161.649,88.201z"/>
	<path fill="#231F20" d="M173.305,89.751c-0.004-0.23-0.009-0.461-0.014-0.691c-0.061-0.428-0.087-0.857-0.063-1.285
		c-0.006-0.062-0.013-0.122-0.019-0.183c-0.014-0.084-0.024-0.167-0.037-0.249c-3.682-0.312-7.082-0.683-9.652-1.021
		c0.211,0.683,0.237,1.438,0.345,2.127c0.019,0.12,0.011,0.229-0.016,0.326C166.441,89.104,169.75,89.456,173.305,89.751z"/>
	<path fill="#231F20" d="M193.259,89.137c-0.017-0.148-0.034-0.297-0.055-0.445c-0.104-0.278-0.212-0.558-0.293-0.841
		c-0.29,0.026-0.58,0.051-0.874,0.068c-3.195,0.198-7.162,0.14-11.231-0.061c0.152,0.803,0.309,1.604,0.427,2.411
		c3.967,0.184,7.819,0.23,10.952,0.035c0.345-0.021,0.689-0.05,1.033-0.082C193.227,89.86,193.238,89.498,193.259,89.137z"/>
	<path fill="#231F20" d="M207.499,85.862c-0.28-0.445-0.528-0.909-0.729-1.394c-0.128-0.212-0.265-0.419-0.406-0.624
		c-0.72,0.382-1.573,0.793-2.54,1.204c0.325,0.595,0.696,1.162,1.059,1.737c0.08,0.128,0.111,0.252,0.107,0.368
		c0.929-0.398,1.786-0.812,2.557-1.225C207.53,85.909,207.514,85.886,207.499,85.862z"/>
	<path fill="#231F20" d="M210.795,82.109c-0.2-0.227-0.386-0.465-0.551-0.719c-0.036-0.054-0.061-0.106-0.077-0.159
		c-0.742,0.651-1.504,1.216-2.223,1.689c-0.091,0.061-0.188,0.123-0.291,0.187c0.056,0.066,0.101,0.149,0.13,0.251
		c0.024,0.084,0.05,0.166,0.077,0.247c0.284,0.369,0.522,0.759,0.721,1.175c0.083,0.138,0.163,0.276,0.245,0.415
		c0.15-0.094,0.295-0.187,0.436-0.279c0.843-0.557,1.618-1.141,2.325-1.749C211.333,82.808,211.058,82.462,210.795,82.109z"/>
	<path fill="#231F20" d="M214.36,79.273c-0.077-0.046-0.139-0.105-0.185-0.172c-0.4-0.363-0.81-0.718-1.217-1.074
		c-0.007-0.006-0.012-0.013-0.018-0.019c-0.488,0.795-1.065,1.521-1.688,2.178c0.48,0.646,1.043,1.227,1.508,1.883
		c0.762-0.774,1.417-1.584,1.969-2.421C214.605,79.526,214.482,79.4,214.36,79.273z"/>
	<path fill="#231F20" d="M214.845,71.384c0.655,0.232,1.345,0.06,2.031-0.031c-0.109-4.186-1.62-6.809-3.012-8.344
		c-1.882-2.079-3.975-2.688-4.063-2.713c-0.635-0.18-1.295,0.19-1.475,0.825c-0.18,0.636,0.19,1.296,0.825,1.477
		c0.058,0.015,5.118,1.538,5.333,8.763C214.591,71.333,214.711,71.336,214.845,71.384z"/>
	<path fill="#231F20" d="M202.847,86.686c-0.118-0.248-0.229-0.501-0.332-0.757c-0.03-0.037-0.062-0.073-0.092-0.109
		c-0.046-0.054-0.08-0.11-0.106-0.168c-0.93,0.349-1.935,0.686-3,0.988c0.013,0.238,0.03,0.477,0.072,0.712
		c0.233,0.515,0.466,1.027,0.689,1.546c1.148-0.328,2.251-0.697,3.293-1.091C203.187,87.437,203.012,87.063,202.847,86.686z"/>
	<path fill="#231F20" d="M149.855,85.655c-2.783,0.143-5.54,0.457-8.26,0.948c0.267,0.705,0.529,1.41,0.846,2.091
		c0.034,0.057,0.065,0.114,0.099,0.171c2.455-0.422,4.942-0.697,7.453-0.825C149.858,87.241,149.689,86.426,149.855,85.655z"/>
	<path fill="#231F20" d="M114.796,103.07c-0.302-0.199-0.584-0.419-0.804-0.71c-0.695,0.645-1.439,1.314-2.22,1.986
		c0.274,0.162,1.166,1.315,1.447,1.667c0.009,0.007,0.018,0.014,0.024,0.02l0.002-0.002l0.015,0.018
		c0.032,0.028,0.061,0.059,0.091,0.089c0.825-0.71,1.608-1.415,2.337-2.09C115.383,103.729,115.091,103.398,114.796,103.07z"/>
	<path fill="#231F20" d="M86.034,146.676c-0.419,0.51-0.346,1.264,0.164,1.683c0.223,0.183,0.491,0.272,0.759,0.272
		c0.345,0,0.688-0.148,0.924-0.436c0.252-0.306,2.361-2.881,5.187-6.664c-0.733-0.317-1.565-0.606-2.174-1.109
		C88.112,144.139,86.096,146.602,86.034,146.676z"/>
</g>
</svg>
