<?xml version="1.0" encoding="utf-8"?>
<!-- Generator: Adobe Illustrator 15.0.2, SVG Export Plug-In . SVG Version: 6.00 Build 0)  -->
<!DOCTYPE svg PUBLIC "-//W3C//DTD SVG 1.1//EN" "http://www.w3.org/Graphics/SVG/1.1/DTD/svg11.dtd">
<svg version="1.1" id="Layer_7" xmlns="http://www.w3.org/2000/svg" xmlns:xlink="http://www.w3.org/1999/xlink" x="0px" y="0px"
	 width="291.975px" height="271.486px" viewBox="0 0 291.975 271.486" enable-background="new 0 0 291.975 271.486"
	 xml:space="preserve">
<g>
	<g>
		<path fill="#D0D8BC" d="M86.084,165.279h16.859l5.62,65.679H92.407l-2.812-32.838h-0.702l-7.024,24.395H69.224l-7.024-24.395
			h-0.702l-2.811,32.838H42.528l5.62-65.679h16.86l10.187,32.841h0.702L86.084,165.279z"/>
		<path fill="#808184" d="M109.909,232.191H91.274l-2.499-29.198l-5.978,20.756H68.295l-5.979-20.758l-2.498,29.2H41.185
			l5.831-68.146h18.902l9.628,31.041l9.629-31.041h18.902L109.909,232.191z M93.54,229.722h13.68l-5.408-63.209H86.993
			l-10.187,32.84h-2.521L64.1,166.513H49.281l-5.408,63.209h13.682l2.81-32.838h2.766l7.023,24.395H80.94l7.025-24.395h2.764
			L93.54,229.722z"/>
	</g>
	<g>
		<path fill="#D0D8BC" d="M149.654,230.019c0,0-8.78,2.814-18.616,2.814c-12.996,0-18.616-7.506-18.616-16.89
			c0-8.444,5.62-15.95,17.563-15.95c2.107,0,5.27,0.471,5.27,0.471v-0.939c-0.07,0-1.054-3.282-6.323-3.282
			c-3.863,0-7.025,2.813-7.025,2.813l-5.268-12.666c0,0,5.268-5.16,13.698-5.16c12.294,0,19.318,9.381,19.318,22.986V230.019z
			 M131.037,212.191c-2.459,0-3.863,1.972-3.863,3.849s1.404,3.66,3.863,3.66s4.216-0.472,4.216-0.472v-7.037H131.037
			L131.037,212.191z"/>
		<path fill="#808184" d="M131.037,234.068c-12.431,0-19.852-6.774-19.852-18.123c0-5.924,2.749-12.59,9.926-15.579l-5.937-14.271
			l0.598-0.586c0.229-0.225,5.729-5.512,14.563-5.512c12.484,0,20.554,9.508,20.554,24.221v26.703l-0.856,0.272
			C149.665,231.31,140.952,234.068,131.037,234.068z M129.984,201.228c-12.053,0-16.33,7.929-16.33,14.717
			c0,9.949,6.337,15.654,17.384,15.654c7.774,0,14.967-1.822,17.383-2.504v-24.879c0-13.418-6.93-21.752-18.085-21.752
			c-6.245,0-10.658,3.022-12.217,4.275l4.32,10.389c1.406-0.916,3.774-2.121,6.49-2.121c3.252,0,5.726,1.16,7.049,3.283h0.508v3.604
			l-1.414-0.209C135.041,201.679,131.975,201.228,129.984,201.228z M128.93,197.476c-2.619,0-4.914,1.51-5.807,2.185
			c1.992-0.576,4.271-0.9,6.86-0.9c1.064,0,2.362,0.111,3.426,0.229C132.458,197.994,130.936,197.476,128.93,197.476z
			 M131.037,220.933c-3.312,0-5.099-2.521-5.099-4.895c0-2.498,1.907-5.082,5.099-5.082h5.448v9.219l-0.914,0.246
			C135.494,220.441,133.629,220.933,131.037,220.933z M131.037,213.425c-1.707,0-2.629,1.348-2.629,2.613
			c0,1.168,0.821,2.426,2.629,2.426c1.233,0,2.282-0.129,2.981-0.244v-4.795H131.037z"/>
	</g>
	<g>
		<path fill="#D0D8BC" d="M174.589,230.957h-15.456v-65.679h24.237c14.753,0,22.129,9.853,22.129,23.457
			s-7.376,23.455-22.129,23.455h-8.781V230.957z M174.589,181.23v15.013h8.781c3.513,0,5.972-3.285,5.972-7.507
			c0-4.223-2.459-7.506-5.972-7.506H174.589z"/>
		<path fill="#808184" d="M175.822,232.191h-17.923v-68.146h25.472c14.41,0,23.361,9.461,23.361,24.69s-8.951,24.689-23.361,24.689
			h-7.549V232.191L175.822,232.191z M160.367,229.722h12.987v-18.766h10.016c13.083,0,20.896-8.308,20.896-22.222
			c0-13.916-7.813-22.223-20.896-22.223h-23.003V229.722z M183.37,197.476h-10.016v-17.479h10.016c4.106,0,7.205,3.758,7.205,8.739
			C190.575,193.718,187.478,197.476,183.37,197.476z M175.822,195.007h7.549c2.745,0,4.736-2.639,4.736-6.271
			c0-3.635-1.991-6.271-4.736-6.271h-7.549V195.007z"/>
	</g>
	<g>
		<path fill="#D0D8BC" d="M227.975,230.957H212.52v-65.679h24.236c14.753,0,22.129,9.853,22.129,23.457s-7.376,23.455-22.129,23.455
			h-8.781V230.957z M227.975,181.23v15.013h8.781c3.513,0,5.971-3.285,5.971-7.507c0-4.223-2.458-7.506-5.971-7.506H227.975z"/>
		<path fill="#808184" d="M229.209,232.191h-17.924v-68.146h25.471c14.411,0,23.362,9.461,23.362,24.69s-8.951,24.689-23.362,24.689
			h-7.547V232.191L229.209,232.191z M213.753,229.722h12.987v-18.766h10.016c13.083,0,20.896-8.308,20.896-22.222
			c0-13.916-7.813-22.223-20.896-22.223h-23.003V229.722z M236.756,197.476H226.74v-17.479h10.016c4.106,0,7.205,3.758,7.205,8.739
			C243.961,193.718,240.863,197.476,236.756,197.476z M229.209,195.007h7.547c2.745,0,4.737-2.639,4.737-6.271
			c0-3.635-1.992-6.271-4.737-6.271h-7.547V195.007z"/>
	</g>
</g>
<g>
	<path fill="#D0D8BC" d="M138.732,65.931c-0.044,0.033-0.087,0.066-0.131,0.103c4.585,6.938,9.432,17.13,14.159,27.226
		c0.247,0.223,0.493,0.447,0.739,0.67c1.453,1.319,2.915,2.646,4.373,3.959c0.42-0.486,0.717-1.053,0.853-1.667
		c1.041-0.483,2.019-1.108,3.107-1.491c1.708-0.599,3.614-0.682,5.386-1.013c1.683-0.314,3.465-0.879,5.238-1.117
		c0.406,0.173,0.819,0.337,1.226,0.512c1.525,0.653,2.897,1.935,4.012,3.14c0.382,0.412,0.803,0.633,1.228,0.708
		c0.715,0.44,1.481,0.825,2.07,1.334c1.725,1.485,2.835,3.548,4.86,4.114c4.316-2.689,8.87-5.071,14.426-7.428
		c14.169-6.006,23.264-8.507,32.439-8.922c4.432-0.2,7.146,0.172,8.462,0.44c1.022-3.833,1.207-7.09,1.168-9.213
		c-0.071-4.043-0.29-16.346-7.876-25.531c-7.589-9.189-24.109-12.274-36.501-10.572c-8.588,1.179-19.065,4.601-29.394,8.994
		c-1.529,1.048-3.177,1.633-4.859,2.141c-8.971,4.095-17.583,8.783-24.459,13.217C139.155,65.6,138.944,65.767,138.732,65.931z"/>
</g>
<g>
	<path fill="#D0D8BC" d="M138.506,134.198c1.712-3.101,3.046-6.19,2.277-9.82c-0.33-1.561-0.729-3.091-0.908-4.678
		c-0.214-1.889,0.521-4.168,2.11-5.325c2.307-1.684,6.612-2.114,7.588-4.996c0.952-2.815,1.34-5.809,3.244-8.179
		c0.205-0.257,0.428-0.396,0.64-0.453c-0.728-1.546-1.46-3.107-2.2-4.689c-0.196-0.417-0.392-0.835-0.588-1.254
		c-8.939-8.11-18.063-16.291-25.311-20.46l0.09,0.139c-8.347,5.418-15.87,10.274-23.439,14.847
		c-11.06,6.679-20.643,10.109-31.076,11.123c-0.853,0.083-1.676,0.116-2.459,0.116c-2.062,0-3.833-0.239-5.08-0.476
		c-1.658,4.985-1.878,9.272-1.791,11.864c0.006,0.171,0.013,0.363,0.021,0.566c0.039,0.182,0.071,0.361,0.114,0.542
		c-0.031,0.013-0.061,0.028-0.091,0.043c0.21,4.879,1.141,15.927,8.239,24.248c5.726,6.712,16.329,9.999,26.477,10.479
		c0.836-0.019,1.671-0.047,2.504-0.099c1.775-0.109,3.537-0.093,5.292-0.092c0.813-0.08,1.611-0.181,2.394-0.3
		c9.852-1.496,21.152-6.684,31.779-12.64C138.349,134.559,138.4,134.39,138.506,134.198z"/>
	<path fill="#D0D8BC" d="M142.62,129.073c0.033-0.06,0.064-0.119,0.1-0.179c0.037-0.216,0.06-0.434,0.086-0.651
		C142.752,128.52,142.693,128.797,142.62,129.073z"/>
</g>
<path fill="#808080" d="M92.952,119.846l5.559-3.657l-6.327,2.153c-2.165-3.368-6.419-4.79-10.176-3.391l-3.749-5.698l2.199,6.461
	c-3.401,2.12-4.867,6.347-3.536,10.106l-5.6,3.685l6.319-2.15c2.115,3.55,6.495,5.078,10.346,3.631l3.588,5.454l-2.104-6.181
	C92.991,128.097,94.465,123.691,92.952,119.846z M91.136,118.699l-5.444,1.852l-3.076-4.677
	C85.758,114.82,89.248,115.979,91.136,118.699z M80.814,116.759l1.809,5.314l-4.775,3.142
	C76.856,122.069,78.064,118.606,80.814,116.759z M78.68,127.001l5.464-1.858l3.239,4.922
	C84.142,131.161,80.528,129.902,78.68,127.001z M89.118,129.216l-1.904-5.596l4.823-3.172
	C93.199,123.686,91.984,127.326,89.118,129.216z"/>
<g>
	<g>
		<path fill="#808080" d="M159.247,66.796c0.822-0.055,1.596-0.313,2.192-0.932c1.189-1.235,2.289-0.323,3.43-0.924
			c0.528-0.276,0.487-1.041,1.05-0.776c1.506,0.707,2.508,1.755,3.727,2.837c0.414,0.367,1.174-0.532,0.757-0.902
			c-1.216-1.08-3.307-3.728-5.188-2.945c-0.244,0.103-0.375,0.411-0.492,0.617c-0.201,0.354-1.258,0.097-1.731,0.084
			c-1.456-0.036-1.92,1.795-3.407,1.895C159.072,65.784,158.6,66.839,159.247,66.796L159.247,66.796z"/>
	</g>
</g>
<g>
	<g>
		<path fill="#808080" d="M167.999,68.789c0.854-0.828,1.805-1.471,2.853-2.037c1.751-0.948,3.076-0.511,4.798,0.184
			c0.855,0.346,2.315,0.257,2.906,1.007c0.341,0.435,1.16,0.786,1.68,0.968c0.499,0.172,1.128-0.815,0.563-1.013
			c-1.096-0.378-1.622-1.269-2.757-1.527c-1.369-0.313-2.953-1.231-4.338-1.297c-2.268-0.105-4.551,1.452-6.111,2.967
			C167.136,68.48,167.439,69.332,167.999,68.789L167.999,68.789z"/>
	</g>
</g>
<g>
	<g>
		<path fill="#808080" d="M177.054,67.266c0.97-0.193,1.37-0.558,2.173-1.188c1.08-0.849,2.702-0.179,4.007-0.617
			c1.674-0.563,3.04-0.116,3.586-2.078c-0.28,0.15-0.562,0.3-0.842,0.45c0.789,0.951,1.009,1.504,2.223,1.729
			c1.431,0.266,2.175,1.438,3.392,2.113c0.452,0.25,1.094-0.717,0.563-1.012c-0.79-0.438-1.277-1.235-2.055-1.657
			c-1.212-0.657-2.422-0.938-3.364-2.075c-0.264-0.318-0.775,0.211-0.842,0.45c-0.372,1.338-4.552,1.266-5.354,1.176
			c-1.318-0.146-2.176,1.452-3.396,1.697C176.622,66.359,176.34,67.41,177.054,67.266L177.054,67.266z"/>
	</g>
</g>
<g>
	<g>
		<path fill="#808080" d="M172.88,63.166c1.454-0.968,2.612-2.605,4.491-1.224c1.072,0.79,1.602,1.275,2.963,1.542
			c0.516,0.102,1.129-0.898,0.563-1.011c-0.998-0.196-1.753-0.449-2.494-1.18c-0.563-0.558-1.286-0.91-2.094-0.944
			c-1.728-0.072-2.509,1.182-3.835,2.064C171.925,62.781,172.241,63.592,172.88,63.166L172.88,63.166z"/>
	</g>
</g>
<g>
	<g>
		<path fill="#808080" d="M174.163,75.149c1.339-0.576,2.045-1.583,3.634-1.682c0.569-0.036,1.01-0.586,1.293-1.015
			c0.608-0.922,1.635,0.165,2.438,0.251c0.695,0.073,1.408,0.067,2.093,0.229c0.816,0.193,1.672,1.146,2.397,1.58
			c0.481,0.288,1.217-0.626,0.757-0.902c-0.98-0.588-1.951-1.716-3.161-1.813c-1.063-0.087-2.067-0.042-2.977-0.71
			c-0.317-0.233-0.28-0.271-0.67-0.299c-1.003-0.073-1.512,1.61-2.474,1.671c-1.611,0.101-2.024,1.143-3.493,1.775
			C173.466,74.466,173.454,75.455,174.163,75.149L174.163,75.149z"/>
	</g>
</g>
<g>
	<g>
		<path fill="#808080" d="M184.101,76.781c0.905-0.438,1.64-0.973,2.407-1.617c1.351-1.137,1.848-1.601,3.598-1.179
			c1.15,0.277,1.793-1.014,2.221-1.812c-0.229,0.123-0.458,0.246-0.688,0.37c1.86,0.823,2.805,2.59,4.245,3.917
			c0.405,0.374,1.167-0.523,0.757-0.902c-1.508-1.39-2.499-3.166-4.438-4.025c-0.259-0.114-0.577,0.165-0.688,0.369
			c-0.974,1.822-1.845,0.011-2.911,0.561c-1.725,0.89-2.896,2.551-4.667,3.406C183.418,76.118,183.405,77.117,184.101,76.781
			L184.101,76.781z"/>
	</g>
</g>
<g>
	<g>
		<path fill="#808080" d="M194.091,74.324c0.743-0.302,1.253-0.734,1.776-1.33c0.208-0.237,0.376-0.522,0.544-0.788
			c0.477-0.755,1.132-0.083,1.739,0.014c0.493,0.077,0.879-0.414,1.153-0.746c0.823-0.999,1.708-1.911,2.577-2.874
			c-0.255,0.033-0.51,0.066-0.765,0.101c0.45,0.57,0.22,1.191,0.595,1.712c0.433,0.601,0.912,1.03,1.518,1.463
			c0.456,0.324,1.203-0.585,0.757-0.902c-0.601-0.427-1.255-0.853-1.46-1.646c-0.152-0.593-0.129-0.872-0.512-1.355
			c-0.223-0.282-0.559-0.128-0.765,0.1c-0.766,0.848-1.656,1.602-2.338,2.52c-0.477,0.641-0.996,0.248-1.611,0.194
			c-1.451-0.126-2.211,2.156-3.372,2.629C193.388,73.63,193.377,74.615,194.091,74.324L194.091,74.324z"/>
	</g>
</g>
<g>
	<g>
		<path fill="#808080" d="M203.485,71.931c0.561-0.153,1.029-0.44,1.487-0.792c-0.217-0.003-0.435-0.007-0.652-0.011
			c0.576,1.101,1.811,1.388,2.563,2.301c0.338,0.411,1.113-0.47,0.757-0.902c-0.699-0.849-1.89-1.112-2.421-2.127
			c-0.137-0.262-0.474-0.147-0.652-0.011c-0.313,0.239-0.607,0.425-0.99,0.53C203.066,71.058,202.787,72.124,203.485,71.931
			L203.485,71.931z"/>
	</g>
</g>
<g>
	<g>
		<path fill="#808080" d="M205.367,75.891c0.638-0.659,1.198-1.387,1.796-2.081c0.904-1.053,1.665-1.564,3.068-1.203
			c1.379,0.356,2.266,0.19,2.889-1.203c0.313-0.701-0.542-0.87-0.812-0.271c-0.473,1.059-1.458,0.388-2.296,0.293
			c-0.697-0.078-1.221,0.011-1.832,0.351c-1.431,0.799-2.334,2.437-3.447,3.586C204.224,75.89,204.866,76.409,205.367,75.891
			L205.367,75.891z"/>
	</g>
</g>
<g>
	<g>
		<path fill="#808080" d="M212.336,71.719c0.888,0.711,1.691,1.48,2.737,1.951c0.969,0.436,2.066-0.736,3.234-0.212
			c1.199,0.537,2.085,1.443,3.228,2.056c1.317,0.705,3.477,0.408,4.913,0.691c0.516,0.102,1.129-0.899,0.563-1.013
			c-1.229-0.24-2.409-0.405-3.66-0.476c-1.668-0.092-2.409-1.241-3.784-1.926c-0.557-0.276-1.625-1.035-2.3-0.811
			c-1.827,0.608-2.808-0.071-4.174-1.166C212.658,70.468,211.904,71.373,212.336,71.719L212.336,71.719z"/>
	</g>
</g>
<g>
	<g>
		<g>
			<path fill="#768B69" d="M116.689,88.661c-1.859,1.814-3.297,7.439,0.128,8.472c0.507,0.151,1.132-0.84,0.563-1.012
				c-2.54-0.765-1.745-5.283-0.283-6.71C117.55,88.968,117.247,88.116,116.689,88.661L116.689,88.661z"/>
		</g>
	</g>
	<g>
		<g>
			<path fill="#768B69" d="M116.65,89.4c1.603,2.09,2.228,4.92,0.543,7.167c-0.433,0.577,0.192,1.117,0.633,0.529
				c1.952-2.606,1.669-5.888-0.278-8.425C117.178,88.189,116.334,88.99,116.65,89.4L116.65,89.4z"/>
		</g>
	</g>
	<g>
		<g>
			<path fill="#768B69" d="M117.019,96.348c0,0.418,0,0.837,0,1.255c0,0.729,0.981,0.271,0.981-0.264c0-0.008,0-0.016,0-0.024
				c0-0.728-0.981-0.27-0.981,0.265c0,0.008,0,0.017,0,0.023c0,0.729,0.981,0.271,0.981-0.264c0-0.418,0-0.836,0-1.255
				C118,95.357,117.019,95.815,117.019,96.348L117.019,96.348z"/>
		</g>
	</g>
	<g>
		<g>
			<path fill="#768B69" d="M117.019,96.758c0,0.547,0,1.094,0,1.641c0,0.729,0.981,0.271,0.981-0.264c0-0.547,0-1.094,0-1.641
				C118,95.767,117.019,96.225,117.019,96.758L117.019,96.758z"/>
		</g>
	</g>
</g>
<g>
	<g>
		<g>
			<path fill="#768B69" d="M117.946,105.039c1.646,1.065,4.142,0.505,5.955,0.275c0.327-0.041,0.765-0.396,0.654-0.778
				c-0.74-2.56-1.962-4.961-2.461-7.591c-0.03-0.158-0.155-0.268-0.319-0.268c-0.136,0-0.272,0-0.408,0
				c-0.296,0-0.54,0.262-0.632,0.522c-0.881,2.521-2.184,4.877-2.694,7.519c-0.137,0.701,0.884,0.241,0.98-0.264
				c0.493-2.541,1.794-4.826,2.643-7.253c-0.21,0.174-0.421,0.349-0.631,0.521c0.434,0,0.172,0.169,0.288,0.673
				c0.162,0.696,0.396,1.386,0.637,2.058c0.547,1.528,1.175,3.03,1.626,4.593c0.218-0.26,0.436-0.521,0.653-0.779
				c-1.591,0.201-4.093,0.802-5.532-0.132C118.232,103.832,117.492,104.744,117.946,105.039L117.946,105.039z"/>
		</g>
	</g>
	<g>
		<g>
			<path fill="#768B69" d="M120.96,104.957c-0.504-0.462-1.097,0.315-0.947,0.832c0.124,0.432,0.443,0.867,0.493,1.312
				c0.072,0.646,1.029-0.004,0.973-0.512c-0.026-0.243-0.166-0.495-0.258-0.719c-0.057-0.141-0.115-0.279-0.17-0.42
				c-0.022-0.058-0.045-0.114-0.064-0.174c-0.05-0.152,0.031-0.107-0.046,0.072c-0.169,0.168-0.339,0.337-0.508,0.505
				c-0.262-0.083-0.337-0.082-0.228,0.005C120.61,106.232,121.372,105.334,120.96,104.957L120.96,104.957z"/>
		</g>
	</g>
	<g>
		<g>
			<path fill="#768B69" d="M120.501,105.746c0,0.479,0,0.957,0,1.436c0,0.729,0.98,0.271,0.98-0.264c0-0.479,0-0.957,0-1.437
				C121.483,104.753,120.501,105.212,120.501,105.746L120.501,105.746z"/>
		</g>
	</g>
</g>
<g>
	<g>
		<g>
			<path fill="#768B69" d="M109.229,99.919c0.831,2.638,3.98,3.107,5.104,0.474c0.957-2.245-0.929-5.022-1.464-7.141
				c-0.163-0.645-1.1,0.011-0.974,0.512c0.322,1.273,0.904,2.474,1.285,3.73c0.214,0.707,0.358,1.438,0.353,2.179
				c-0.019,2.339-2.805,1.411-3.332-0.266C110.001,98.773,109.074,99.426,109.229,99.919L109.229,99.919z"/>
		</g>
	</g>
	<g>
		<g>
			<path fill="#768B69" d="M110.202,99.408c-0.333-2.124,0.641-4.509,2.087-6.047c0.502-0.533-0.139-1.056-0.632-0.528
				c-1.694,1.802-2.817,4.604-2.429,7.087C109.331,100.567,110.281,99.916,110.202,99.408L110.202,99.408z"/>
		</g>
	</g>
	<g>
		<g>
			<path fill="#768B69" d="M111.509,101.713c-0.159,0.528-0.354,1.313,0.015,1.802c0.366,0.485,1.21-0.313,0.897-0.729
				c-0.223-0.297-0.081-0.752,0.015-1.071C112.659,100.975,111.674,101.163,111.509,101.713L111.509,101.713z"/>
		</g>
	</g>
	<g>
		<g>
			<path fill="#768B69" d="M111.482,102.257c0,0.438,0,0.875,0,1.313c0,0.729,0.981,0.271,0.981-0.264c0-0.026,0-0.054,0-0.081
				c0-0.728-0.981-0.27-0.981,0.265c0,0.025,0,0.054,0,0.08c0,0.729,0.981,0.271,0.981-0.264c0-0.438,0-0.875,0-1.313
				C112.463,101.265,111.482,101.724,111.482,102.257L111.482,102.257z"/>
		</g>
	</g>
	<g>
		<g>
			<path fill="#768B69" d="M111.978,101.99c-0.199,0.432-0.29,0.816-0.291,1.293c-0.003,0.728,0.979,0.27,0.981-0.265
				c0.001-0.271,0.004-0.507,0.12-0.758C113.111,101.561,112.253,101.394,111.978,101.99L111.978,101.99z"/>
		</g>
	</g>
</g>
<g>
	<g>
		<g>
			<path fill="#768B69" d="M213.795,45.646c-1.86,1.816-3.298,7.442,0.128,8.474c0.506,0.151,1.131-0.841,0.563-1.012
				c-2.541-0.764-1.743-5.284-0.281-6.711C214.656,45.954,214.353,45.101,213.795,45.646L213.795,45.646z"/>
		</g>
	</g>
	<g>
		<g>
			<path fill="#768B69" d="M213.755,46.386c1.602,2.089,2.226,4.919,0.543,7.167c-0.432,0.578,0.192,1.118,0.632,0.53
				c1.952-2.609,1.669-5.889-0.278-8.427C214.283,45.174,213.439,45.974,213.755,46.386L213.755,46.386z"/>
		</g>
	</g>
	<g>
		<g>
			<path fill="#768B69" d="M214.124,53.333c0,0.419,0,0.838,0,1.257c0,0.728,0.98,0.27,0.98-0.264c0-0.009,0-0.017,0-0.024
				c0-0.728-0.98-0.27-0.98,0.264c0,0.009,0,0.017,0,0.024c0,0.728,0.98,0.27,0.98-0.264c0-0.419,0-0.839,0-1.258
				C215.105,52.342,214.124,52.8,214.124,53.333L214.124,53.333z"/>
		</g>
	</g>
	<g>
		<g>
			<path fill="#768B69" d="M214.124,53.745c0,0.547,0,1.094,0,1.642c0,0.729,0.98,0.271,0.98-0.264c0-0.547,0-1.095,0-1.643
				C215.105,52.753,214.124,53.211,214.124,53.745L214.124,53.745z"/>
		</g>
	</g>
</g>
<g>
	<g>
		<g>
			<path fill="#768B69" d="M192.693,59.317c1.312,0.851,3.274,0.415,4.722,0.234c0.327-0.041,0.764-0.398,0.653-0.779
				c-0.58-2.01-1.541-3.896-1.932-5.961c-0.03-0.159-0.155-0.268-0.319-0.268c-0.106,0-0.215,0-0.321,0
				c-0.295,0-0.54,0.262-0.632,0.521c-0.694,1.991-1.718,3.848-2.121,5.934c-0.137,0.701,0.884,0.242,0.98-0.265
				c0.385-1.983,1.406-3.771,2.068-5.667c-0.21,0.175-0.421,0.349-0.631,0.522c0.106,0,0.215,0,0.321,0
				c-0.105-0.089-0.212-0.179-0.318-0.269c0.392,2.066,1.352,3.951,1.932,5.962c0.218-0.261,0.437-0.521,0.654-0.779
				c-1.228,0.154-3.188,0.631-4.299-0.089C192.979,58.11,192.239,59.022,192.693,59.317L192.693,59.317z"/>
		</g>
	</g>
	<g>
		<g>
			<path fill="#768B69" d="M195.223,59.06c-0.081-0.073-0.178-0.128-0.292-0.121c-0.231,0.017-0.474,0.172-0.573,0.389
				c-0.268,0.587,0.249,1.009,0.323,1.567c0.087,0.646,1.041-0.003,0.973-0.512c-0.023-0.176-0.114-0.353-0.181-0.517
				c-0.046-0.112-0.093-0.225-0.138-0.338c-0.112-0.276-0.006-0.28-0.167,0.069c-0.19,0.129-0.381,0.258-0.572,0.387
				c-0.171-0.083-0.215-0.091-0.129-0.022C194.876,60.332,195.637,59.434,195.223,59.06L195.223,59.06z"/>
		</g>
	</g>
	<g>
		<g>
			<path fill="#768B69" d="M194.676,59.804c0,0.376,0,0.752,0,1.128c0,0.729,0.981,0.271,0.981-0.264c0-0.376,0-0.752,0-1.128
				C195.658,58.812,194.676,59.271,194.676,59.804L194.676,59.804z"/>
		</g>
	</g>
</g>
<g>
	<g>
		<g>
			<path fill="#768B69" d="M201.529,49.1c1.239,0.804,3.092,0.396,4.459,0.225c0.327-0.041,0.765-0.398,0.654-0.779
				c-0.548-1.893-1.452-3.67-1.821-5.614c-0.029-0.159-0.154-0.268-0.318-0.268c-0.102,0-0.202,0-0.303,0
				c-0.296,0-0.54,0.262-0.632,0.521c-0.654,1.877-1.619,3.627-1.999,5.596c-0.135,0.701,0.885,0.241,0.981-0.265
				c0.359-1.866,1.323-3.547,1.945-5.33c-0.21,0.174-0.421,0.349-0.631,0.522c0.101,0,0.201,0,0.303,0
				c-0.106-0.089-0.212-0.18-0.319-0.269c0.37,1.946,1.273,3.722,1.821,5.614c0.218-0.26,0.436-0.52,0.654-0.779
				c-1.148,0.145-2.998,0.597-4.038-0.079C201.815,47.892,201.074,48.805,201.529,49.1L201.529,49.1z"/>
		</g>
	</g>
	<g>
		<g>
			<path fill="#768B69" d="M203.955,48.804c-0.127-0.113-0.247-0.131-0.413-0.1c-0.237,0.045-0.438,0.289-0.508,0.505
				c-0.159,0.483,0.297,0.908,0.359,1.364c0.09,0.646,1.043-0.004,0.974-0.513c-0.024-0.177-0.116-0.354-0.185-0.519
				c-0.045-0.111-0.091-0.222-0.136-0.332c-0.079-0.198,0.002-0.267-0.086,0.001c-0.169,0.168-0.339,0.337-0.508,0.505
				c-0.085-0.003-0.17-0.007-0.255-0.01C203.611,50.074,204.372,49.175,203.955,48.804L203.955,48.804z"/>
		</g>
	</g>
	<g>
		<g>
			<path fill="#768B69" d="M203.39,49.538c0,0.354,0,0.708,0,1.063c0,0.729,0.981,0.271,0.981-0.264c0-0.354,0-0.708,0-1.063
				C204.371,48.546,203.39,49.005,203.39,49.538L203.39,49.538z"/>
		</g>
	</g>
</g>
<g>
	<g>
		<g>
			<path fill="#768B69" d="M205.306,58.341c0.831,2.638,3.981,3.112,5.105,0.475c0.958-2.246-0.93-5.024-1.465-7.142
				c-0.162-0.645-1.099,0.01-0.973,0.512c0.322,1.274,0.904,2.475,1.285,3.732c0.214,0.707,0.358,1.438,0.352,2.179
				c-0.018,2.34-2.805,1.409-3.333-0.267C206.079,57.194,205.151,57.848,205.306,58.341L205.306,58.341z"/>
		</g>
	</g>
	<g>
		<g>
			<path fill="#768B69" d="M206.279,57.829c-0.332-2.123,0.643-4.506,2.088-6.044c0.502-0.535-0.139-1.057-0.633-0.53
				c-1.692,1.802-2.815,4.603-2.428,7.086C205.408,58.988,206.358,58.337,206.279,57.829L206.279,57.829z"/>
		</g>
	</g>
	<g>
		<g>
			<path fill="#768B69" d="M207.586,60.137c-0.159,0.529-0.353,1.313,0.015,1.802c0.364,0.486,1.209-0.313,0.897-0.729
				c-0.223-0.296-0.081-0.75,0.015-1.07C208.736,59.398,207.751,59.585,207.586,60.137L207.586,60.137z"/>
		</g>
	</g>
	<g>
		<g>
			<path fill="#768B69" d="M207.559,60.68c0,0.438,0,0.874,0,1.312c0,0.729,0.981,0.27,0.981-0.264c0-0.026,0-0.054,0-0.081
				c0-0.728-0.981-0.27-0.981,0.265c0,0.026,0,0.054,0,0.081c0,0.729,0.981,0.27,0.981-0.264c0-0.437,0-0.874,0-1.312
				C208.541,59.688,207.559,60.147,207.559,60.68L207.559,60.68z"/>
		</g>
	</g>
	<g>
		<g>
			<path fill="#768B69" d="M208.056,60.413c-0.2,0.432-0.29,0.816-0.291,1.293c-0.003,0.728,0.979,0.27,0.981-0.265
				c0.001-0.271,0.004-0.507,0.12-0.758C209.19,59.984,208.332,59.817,208.056,60.413L208.056,60.413z"/>
		</g>
	</g>
</g>
<g>
	<g>
		<path fill="#C26558" d="M75.499,109.246c-0.272-1.501-0.671-2.975-0.942-4.476c-0.289,0.235-0.577,0.473-0.865,0.707
			c0.988,0.589,3.793,4.318,5.169,2.405c1.081-1.502-0.2-4.646-1.044-6.047c-0.31-0.518-1.169,0.276-0.896,0.729
			c0.758,1.263,1.302,3.04,1.329,4.514c0.013,0.704-1.732-0.671-1.983-0.894c-0.6-0.528-1.122-1.195-1.814-1.608
			c-0.412-0.246-0.942,0.274-0.865,0.707c0.271,1.501,0.67,2.974,0.941,4.475C74.644,110.405,75.591,109.752,75.499,109.246
			L75.499,109.246z"/>
	</g>
</g>
<g>
	<g>
		<path fill="#C26558" d="M224.267,59.066c-1.675,1.785-2.83,4.133-4.239,6.125c-0.414,0.586,0.207,1.13,0.633,0.529
			c1.408-1.993,2.564-4.341,4.238-6.124C225.401,59.062,224.761,58.541,224.267,59.066L224.267,59.066z"/>
	</g>
</g>
<g>
	<g>
		<path fill="#C26558" d="M218.788,60.724c1.811,1.751,4.033,2.872,6.124,4.239c0.469,0.308,1.211-0.604,0.757-0.902
			c-2.089-1.368-4.313-2.487-6.124-4.24C219.15,59.44,218.386,60.335,218.788,60.724L218.788,60.724z"/>
	</g>
</g>
<g>
	<path fill="#A5DCE0" d="M150.378,111.473c-1.109,1.519-2.458,2.099-4.189,2.691c-2.986,1.023-4.809,3.163-4.094,6.35
		c0.382,1.701,0.75,3.339,0.886,5.08c0.21,2.686-0.824,5.262-2.047,7.632c7.409-4.275,14.397-8.813,20.209-12.591l1.808-1.173
		c-2.085-3.561-4.246-7.788-6.475-12.382c-0.017,0.007-0.035,0.01-0.051,0.017c0.004-0.032,0.008-0.063,0.012-0.095
		c-0.738-1.527-1.486-3.094-2.243-4.69c-0.05-0.005-0.1-0.003-0.148-0.003C151.953,104.963,152.362,108.758,150.378,111.473z"/>
	<path fill="#A5DCE0" d="M139.923,131.334c0.015-0.036,0.031-0.073,0.047-0.111C139.951,131.261,139.938,131.297,139.923,131.334z"
		/>
</g>
<path fill="#6988B0" d="M142.981,125.594c-0.136-1.741-0.504-3.379-0.886-5.08c-0.715-3.187,1.107-5.325,4.094-6.35
	c1.731-0.594,3.081-1.174,4.189-2.691c1.995-2.731,1.566-6.557,3.703-9.214c0.02-0.025,0.034-0.051,0.053-0.075
	c-0.226-0.478-0.452-0.956-0.679-1.438c-0.211,0.059-0.433,0.197-0.638,0.453c-1.903,2.37-2.292,5.362-3.244,8.179
	c-0.976,2.882-5.281,3.313-7.588,4.996c-1.588,1.157-2.324,3.438-2.11,5.325c0.18,1.587,0.578,3.117,0.908,4.678
	c0.769,3.63-0.565,6.721-2.277,9.82c-0.106,0.192-0.158,0.363-0.175,0.513c0.873-0.489,1.738-0.983,2.601-1.48
	C142.154,130.859,143.191,128.281,142.981,125.594z"/>
<path fill="#A5DCE0" d="M179.195,106.657c0.313-0.146,0.63-0.283,0.945-0.423c1.188-0.846,2.372-1.666,3.561-2.446
	c0.025-0.068,0.055-0.136,0.075-0.205c-0.188-2.534-2.528-2.499-4.507-3.436c-1.447-0.682-2.315-2.375-3.213-3.598
	c-0.25-0.341-0.519-0.619-0.801-0.862c-0.229-0.178-0.459-0.349-0.696-0.509c-2.341-1.349-5.433-0.289-8.065,0.395
	c-1.258,0.324-2.986,0.461-4.597,0.813c-0.017,0.016-0.039,0.03-0.054,0.046c-0.035,0.029-0.058,0.053-0.085,0.077
	c-0.061-0.015-0.119-0.035-0.177-0.053c-1.351,0.325-2.586,0.825-3.349,1.752c5.333,4.798,10.611,9.396,15.292,12.821
	c0.061,0.004,0.119,0.005,0.178,0.004c1.879-1.46,3.677-2.813,5.445-4.094C179.164,106.846,179.19,106.75,179.195,106.657z"/>
<path fill="#6988B0" d="M182.934,99.052c-2.042-0.777-3.334-1.405-4.657-3.323c-0.623-0.902-1.243-1.979-2.26-2.502
	c-3.801-1.951-8.049,0.146-11.88,0.895c-2.825,0.555-5.281,0.911-7.111,3.003c0.402,0.362,0.804,0.724,1.204,1.085
	c1.721-2.094,5.854-2.016,8.262-2.636c3.247-0.841,7.19-2.26,9.563,0.978c0.897,1.223,1.767,2.916,3.213,3.598
	c2.018,0.953,4.417,0.895,4.521,3.579c0.64-0.421,1.283-0.834,1.934-1.24C185.558,100.816,184.772,99.752,182.934,99.052z"/>
<g>
	<path fill="#C26558" d="M109.02,141.742c-0.17-0.086-0.338-0.179-0.502-0.276c-2.416,3.201-4.112,5.271-4.167,5.338
		c-0.184,0.224-0.151,0.555,0.071,0.738c0.098,0.081,0.216,0.12,0.333,0.12c0.15,0,0.302-0.065,0.405-0.191
		c0.027-0.034,1.763-2.146,4.226-5.406C109.264,141.958,109.141,141.85,109.02,141.742z"/>
	<path fill="#C26558" d="M113.347,135.361c-0.094-0.047-0.188-0.094-0.284-0.139c-1.239,1.771-2.442,3.426-3.539,4.9
		c0.242,0.184,0.552,0.397,0.846,0.632c1.117-1.501,2.344-3.188,3.604-4.988C113.759,135.64,113.55,135.505,113.347,135.361z"/>
	<path fill="#C26558" d="M116.632,129.931c-0.293,0.453-0.588,0.904-0.883,1.352c0.015,0.01,0.028,0.02,0.044,0.03
		c0.267,0.207,0.521,0.427,0.786,0.635c0.32-0.484,0.634-0.963,0.939-1.437C117.211,130.338,116.923,130.135,116.632,129.931z"/>
	<path fill="#C26558" d="M124.332,115.63c-0.571,1.491-1.28,3.059-2.087,4.663c0.311,0.166,0.626,0.326,0.934,0.498
		c0.841-1.674,1.541-3.237,2.1-4.688C124.962,115.946,124.647,115.788,124.332,115.63z"/>
	<path fill="#C26558" d="M126.05,109.356c-0.008,0.016-0.042,0.174-0.051,0.189c-0.075,0.361-0.152,0.727-0.232,1.101
		c0.296,0.059,0.583,0.168,0.886,0.188c0.052,0.003,0.098,0.013,0.142,0.023c0.089-0.414,0.175-0.818,0.258-1.221
		C126.986,109.669,126.145,109.434,126.05,109.356z"/>
	<path fill="#C26558" d="M128.082,103.624c0.045-0.39,0.105-0.966,0.139-1.34c-0.055,0.016-0.839,0.022-0.846,0.022
		c-0.008,0-0.152-0.005-0.212-0.022c-0.029,0.325-0.085,0.852-0.124,1.188C127.063,103.469,127.978,103.554,128.082,103.624z"/>
	<path fill="#C26558" d="M132.441,103.181c-0.119-0.088-0.213-0.2-0.269-0.326c-1.121,1.048-2.385,2.18-3.757,3.29
		c0.021,0.004,0.615,0.824,0.634,0.836c1.408-1.143,2.723-2.319,3.884-3.404C132.772,103.442,132.611,103.306,132.441,103.181z"/>
	<path fill="#C26558" d="M139.621,96.481c-0.041-0.051-0.079-0.102-0.117-0.151c-0.449,0.34-0.862,0.663-1.232,0.959
		c0.012,0.018,0.022,0.032,0.033,0.051c0.044,0.063,0.09,0.126,0.137,0.188c0.188,0.085,0.342,0.248,0.394,0.446
		c0.04,0.038,0.082,0.075,0.124,0.111c0.328-0.262,0.688-0.544,1.079-0.842C139.872,97.003,139.73,96.747,139.621,96.481z"/>
	<path fill="#C26558" d="M142.543,95.387c-0.062-0.032-0.121-0.076-0.178-0.134c-0.188-0.192-0.364-0.394-0.55-0.586
		c-0.439,0.299-0.858,0.592-1.254,0.877c0.218,0.273,0.47,0.524,0.709,0.783c0.411-0.294,0.848-0.6,1.306-0.907
		C142.565,95.41,142.554,95.398,142.543,95.387z"/>
	<path fill="#C26558" d="M144.3,93.085c-0.428,0.255-0.843,0.511-1.242,0.765c0.21,0.284,0.408,0.573,0.646,0.834
		c0.349-0.221,0.711-0.441,1.081-0.665C144.569,93.735,144.377,93.433,144.3,93.085z"/>
	<path fill="#C26558" d="M156.383,88.353c-0.015-0.032-0.029-0.063-0.043-0.097c-0.006-0.014-0.01-0.027-0.015-0.041
		c-0.141,0.032-0.279,0.063-0.42,0.094c-1.585,0.366-3.097,0.834-4.529,1.365c0.058,0.089,0.11,0.179,0.161,0.269
		c0.12,0.212,0.239,0.438,0.334,0.668c1.354-0.498,2.778-0.936,4.271-1.278c0.187-0.043,0.373-0.084,0.56-0.125
		C156.573,88.931,156.459,88.649,156.383,88.353z"/>
	<path fill="#C26558" d="M174.881,87.313c0.005-0.149,0.012-0.303,0.021-0.455c-0.446-0.029-0.893-0.058-1.339-0.079
		c0,0.352,0.005,0.7,0.021,1.052c0.428,0.021,0.856,0.049,1.286,0.078C174.869,87.708,174.871,87.511,174.881,87.313z"/>
	<path fill="#C26558" d="M177.707,87.498c-0.014-0.131-0.022-0.261-0.029-0.391c-0.487-0.054-0.974-0.104-1.46-0.146
		c0,0.042-0.002,0.087-0.011,0.132c-0.013,0.069-0.021,0.141-0.025,0.211c-0.005,0.235-0.002,0.472,0,0.708
		c0.521,0.047,1.042,0.099,1.563,0.157C177.708,87.945,177.684,87.723,177.707,87.498z"/>
	<path fill="#C26558" d="M180.51,87.901c-0.056-0.152-0.115-0.307-0.171-0.458c-0.277-0.035-0.545-0.071-0.802-0.106
		c-0.143-0.021-0.283-0.037-0.427-0.056c-0.006,0.089-0.031,0.182-0.083,0.276c-0.001,0.001-0.001,0.003-0.002,0.005
		c0.027,0.261,0.063,0.52,0.095,0.776c0.092,0.013,0.183,0.023,0.274,0.036c0.372,0.052,0.766,0.104,1.177,0.156
		C180.529,88.327,180.501,88.122,180.51,87.901z"/>
	<path fill="#C26558" d="M183.681,87.845c-0.659-0.074-1.294-0.146-1.893-0.22c0.125,0.357,0.234,0.722,0.283,1.091
		c0.545,0.064,1.115,0.13,1.703,0.194C183.671,88.557,183.606,88.199,183.681,87.845z"/>
	<path fill="#C26558" d="M189.126,89.437c1.777,0.154,3.63,0.296,5.494,0.413c-0.045-0.354-0.063-0.712,0.034-1.049
		c-1.865-0.117-3.721-0.26-5.5-0.415c0.011,0.047,0.018,0.097,0.018,0.151v0.654C189.172,89.284,189.155,89.365,189.126,89.437z"/>
	<path fill="#C26558" d="M208.321,89.106c0-0.025,0.001-0.052,0.005-0.074c-0.482,0.026-0.981,0.049-1.495,0.064
		c0.001,0.019,0.004,0.034,0.004,0.053c0.001,0.334,0.007,0.664,0.036,0.995c0.514-0.016,1.015-0.037,1.499-0.064
		C208.372,89.755,208.326,89.424,208.321,89.106z"/>
	<path fill="#C26558" d="M214.072,88.406c-0.015-0.073-0.017-0.144-0.011-0.208c-1.431,0.329-2.911,0.584-4.396,0.729
		c0,0.044-0.003,0.09-0.011,0.134c-0.004,0.025-0.004,0.054-0.007,0.078c0.048,0.276,0.09,0.554,0.12,0.832
		c1.528-0.151,3.05-0.413,4.523-0.754C214.204,88.951,214.13,88.681,214.072,88.406z"/>
	<path fill="#C26558" d="M225.061,83.659c-0.156,0.107-0.312,0.215-0.464,0.314c-1.222,0.808-2.887,1.659-4.825,2.435
		c0.069,0.092,0.119,0.201,0.137,0.337c0.005,0.038,0.015,0.075,0.027,0.115c0.113,0.15,0.204,0.316,0.283,0.495
		c1.988-0.797,3.698-1.677,4.956-2.507c0.138-0.09,0.271-0.183,0.406-0.273C225.367,84.291,225.179,83.986,225.061,83.659z"/>
	<path fill="#C26558" d="M230.266,79.853c-0.261-0.191-0.518-0.389-0.741-0.615c-0.235,0.36-0.488,0.707-0.756,1.038
		c0.228,0.287,0.438,0.58,0.63,0.888c0.344-0.408,0.654-0.826,0.938-1.251C230.314,79.892,230.29,79.873,230.266,79.853z"/>
	<path fill="#C26558" d="M232.29,74.516c-0.35-0.1-0.69-0.21-1.01-0.379c-0.017,0.191-0.036,0.383-0.059,0.577
		c-0.037,0.319-0.09,0.63-0.156,0.935c0.049,0.026,0.1,0.058,0.146,0.094c0.264,0.16,0.531,0.316,0.797,0.476
		c0.115-0.456,0.203-0.916,0.257-1.381c0.012-0.107,0.022-0.212,0.033-0.316C232.294,74.519,232.292,74.518,232.29,74.516z"/>
	<path fill="#C26558" d="M229.719,65.98c0.3-0.142,0.591-0.295,0.879-0.455c-0.326-0.515-0.668-0.952-1.003-1.322
		c-1.733-1.914-3.625-2.466-3.705-2.487c-0.279-0.079-0.567,0.083-0.646,0.361c-0.08,0.277,0.082,0.567,0.359,0.647
		c0.018,0.004,1.722,0.511,3.252,2.226c0.297,0.333,0.567,0.686,0.812,1.059C229.684,65.998,229.701,65.99,229.719,65.98z"/>
	<path fill="#C26558" d="M231.328,71.403c0.024,0.396,0.035,0.799,0.031,1.215c0.209,0.058,0.418,0.166,0.625,0.272
		c0.138,0.071,0.272,0.145,0.41,0.215c0.02-0.567,0.013-1.106-0.018-1.621C232.027,71.453,231.678,71.415,231.328,71.403z"/>
	<path fill="#C26558" d="M230.679,76.969c-0.141,0.383-0.301,0.754-0.482,1.111c0.053,0.027,0.102,0.064,0.143,0.111
		c0.229,0.189,0.45,0.391,0.675,0.585c0.214-0.403,0.4-0.813,0.563-1.229C231.266,77.375,230.967,77.181,230.679,76.969z"/>
	<path fill="#C26558" d="M201.094,89.927c-0.053-0.271-0.082-0.549-0.075-0.832c-1.608-0.043-3.27-0.114-4.934-0.208
		c0.008,0.354,0.025,0.705,0.06,1.054c1.671,0.094,3.337,0.164,4.953,0.205C201.096,90.074,201.095,90,201.094,89.927z"/>
	<path fill="#C26558" d="M168.313,86.955c-0.016-0.076-0.029-0.153-0.043-0.229c-2.172,0.065-4.327,0.238-6.462,0.521
		c0,0.021-0.002,0.045-0.005,0.066c-0.021,0.188,0.015,0.375,0.075,0.56c0.073,0.127,0.133,0.261,0.187,0.396
		c2.099-0.272,4.218-0.438,6.354-0.5C168.356,87.499,168.313,87.225,168.313,86.955z"/>
	<path fill="#C26558" d="M150.145,90.244c-0.023-0.019-0.048-0.038-0.069-0.061c-0.49,0.203-0.972,0.409-1.44,0.624
		c0.304,0.211,0.53,0.506,0.672,0.85c0.409-0.186,0.827-0.362,1.252-0.536C150.37,90.851,150.199,90.577,150.145,90.244z"/>
	<path fill="#C26558" d="M137.38,98.279c-0.042-0.055-0.082-0.109-0.123-0.166c-0.091,0.075-0.177,0.146-0.26,0.216l-0.306,0.251
		c-0.188,0.154-0.409,0.352-0.659,0.584c0.038,0.041,0.073,0.091,0.104,0.147c0.139,0.265,0.294,0.516,0.459,0.76
		c0.298-0.277,0.556-0.512,0.763-0.683l0.308-0.252c0.057-0.048,0.119-0.099,0.18-0.149C137.664,98.77,137.524,98.519,137.38,98.279
		z"/>
	<path fill="#C26558" d="M126.479,93.861c0.38,1.217,0.621,2.469,0.734,3.793c0.07,0.002,0.146,0.015,0.226,0.046
		c0.172,0.064,0.567,0.002,0.839-0.037c-0.116-1.458-0.38-2.831-0.807-4.169C127.144,93.625,126.81,93.74,126.479,93.861z"/>
	<path fill="#C26558" d="M119.153,84.406c-0.047,0.266-0.116,0.524-0.182,0.786c0.492,0.104,0.98,0.262,1.463,0.485
		c0.12-0.237,0.231-0.479,0.308-0.736c0.025-0.088,0.063-0.16,0.11-0.223c-0.408-0.188-0.828-0.341-1.262-0.455
		c-0.146-0.038-0.291-0.071-0.437-0.102C119.167,84.238,119.168,84.319,119.153,84.406z"/>
	<path fill="#C26558" d="M113.637,85.545c0.046-0.011,0.092-0.024,0.139-0.035c1.196-0.269,2.382-0.483,3.548-0.483
		c0.054,0,0.106,0.002,0.161,0.003c0.02-0.196,0.031-0.396,0.039-0.594c-0.003-0.148-0.002-0.299,0.005-0.449
		c-1.354-0.026-2.697,0.213-3.981,0.5c-0.067,0.017-0.133,0.033-0.199,0.051C113.475,84.866,113.567,85.202,113.637,85.545z"/>
	<path fill="#C26558" d="M106.595,90.74c0.076,0.063,0.163,0.138,0.244,0.206c0.869-1.314,1.936-2.553,3.156-3.526
		c-0.174-0.182-0.345-0.36-0.529-0.527c-0.085-0.076-0.14-0.158-0.173-0.242c-1.277,1.034-2.395,2.325-3.305,3.693
		C106.208,90.444,106.402,90.578,106.595,90.74z"/>
	<path fill="#C26558" d="M104.063,95.207c0.213,0.095,0.43,0.181,0.644,0.271c0.09-0.286,0.187-0.576,0.292-0.873
		c0.031-0.091,0.065-0.183,0.101-0.272c-0.079-0.039-0.156-0.08-0.231-0.123c-0.233-0.129-0.462-0.268-0.688-0.41
		c-0.06,0.153-0.117,0.307-0.17,0.458c-0.104,0.295-0.201,0.586-0.292,0.872C103.831,95.129,103.95,95.157,104.063,95.207z"/>
	<path fill="#C26558" d="M103.449,97.734c0.206,0.11,0.396,0.233,0.635,0.235c0.066-0.379,0.147-0.765,0.246-1.162
		c-0.105-0.035-0.209-0.074-0.319-0.125c-0.169-0.078-0.342-0.174-0.476-0.188c-0.068-0.008-0.134-0.022-0.195-0.044
		c-0.097,0.384-0.179,0.76-0.249,1.129C103.211,97.622,103.33,97.67,103.449,97.734z"/>
	<path fill="#C26558" d="M103.437,103.413c0.088-0.006,0.176-0.014,0.265-0.021c0.192-0.037,0.39-0.072,0.587-0.099
		c-0.13-0.467-0.231-0.934-0.301-1.404c-0.049,0.01-0.1,0.018-0.156,0.016c-0.306-0.007-0.605-0.055-0.907-0.092
		c0.069,0.553,0.178,1.098,0.323,1.642C103.305,103.432,103.368,103.418,103.437,103.413z"/>
	<path fill="#C26558" d="M113.826,112.071c-1.639-0.109-2.981-0.535-4.097-1.161c-0.237,0.244-0.472,0.493-0.61,0.803
		c-0.009,0.018-0.018,0.032-0.026,0.048c0.079,0.046,0.158,0.092,0.238,0.136c1.322,0.724,2.806,1.134,4.469,1.237
		C113.849,112.785,113.823,112.427,113.826,112.071z"/>
	<path fill="#C26558" d="M119.846,111.896c-0.008-0.021-0.015-0.043-0.021-0.064c-0.055-0.162-0.106-0.325-0.157-0.488
		c-0.233,0.071-0.465,0.137-0.697,0.193c-0.242,0.059-0.478,0.109-0.712,0.159c-0.004,0.039-0.011,0.079-0.024,0.122
		c-0.088,0.304-0.046,0.639-0.021,0.96c0.33-0.065,0.666-0.141,1.007-0.224c0.258-0.063,0.517-0.135,0.776-0.216
		C119.945,112.191,119.896,112.043,119.846,111.896z"/>
	<path fill="#C26558" d="M124.576,108.95c-1.147,0.72-2.52,1.478-3.673,1.947c0.019,0.06,0.035,0.116,0.054,0.176
		c0.041,0.075,0.066,0.158,0.08,0.247c0.063,0.192,0.127,0.386,0.191,0.576c1.292-0.521,2.749-1.323,4.021-2.134
		C125.052,109.66,124.659,109.076,124.576,108.95z"/>
	<path fill="#C26558" d="M108.563,110.124c-1.177-0.939-2.05-2.118-2.746-3.322c-0.323,0.128-0.668,0.254-0.935,0.457
		c-0.003,0.002-0.005,0.003-0.008,0.005c0.892,1.552,1.875,2.749,3.005,3.66C108.101,110.648,108.324,110.377,108.563,110.124z"/>
	<path fill="#C26558" d="M103.873,100.334c-0.001-0.324,0.009-0.65,0.035-0.983c-0.353-0.073-0.688-0.203-1.019-0.352
		c-0.046,0.487-0.065,0.966-0.061,1.437C103.177,100.403,103.523,100.348,103.873,100.334z"/>
	<path fill="#C26558" d="M125.392,89.074c-0.229-0.365-0.463-0.709-0.702-1.035c-0.28,0.208-0.566,0.408-0.852,0.609
		c0.223,0.305,0.444,0.629,0.664,0.98c0.604,0.97,1.102,1.931,1.5,2.905c0.316-0.15,0.646-0.278,0.984-0.375
		C126.564,91.126,126.037,90.106,125.392,89.074z"/>
	<path fill="#C26558" d="M127.728,106.054c0.075-0.457,0.146-0.904,0.208-1.342c-0.074,0.028-0.939,0.012-1.036-0.044
		c-0.007-0.001-0.014-0.003-0.021-0.003c-0.057,0.392-0.118,0.792-0.187,1.2C126.735,105.857,127.613,105.958,127.728,106.054z"/>
	<path fill="#C26558" d="M127.477,107.215c-0.02,0.008-1.043-0.136-1.05-0.136c-0.057,0.392-0.125,0.881-0.192,1.289
		c0.042-0.011,1.027,0.188,1.034,0.195c0.007-0.036,0.015-0.07,0.021-0.106c-0.001-0.005-0.001-0.011-0.003-0.016
		C127.355,108.026,127.419,107.617,127.477,107.215z"/>
	<path fill="#C26558" d="M120.355,124.827c-0.019-0.009-0.035-0.016-0.049-0.02c-0.085-0.01-0.072-0.022,0,0
		c0.007,0,0.016,0.001,0.024,0.001c-0.014-0.009-0.026-0.018-0.04-0.025c-0.14-0.038-0.269-0.115-0.362-0.222
		c-0.813,1.408-1.672,2.819-2.554,4.209c0.006,0.004,0.012,0.01,0.018,0.013c0.041,0.026,0.083,0.053,0.124,0.079
		c0.258,0.143,0.502,0.309,0.744,0.479c0.002,0.001,0.004,0.002,0.006,0.004c0.925-1.46,1.777-2.861,2.555-4.208
		C120.665,125.037,120.509,124.933,120.355,124.827z"/>
</g>
<path fill="#808080" d="M256.674,118.796c-0.164-2.129-4.164-52.326-17.427-66.917c-4.383-4.824-8.941-7.152-9.133-7.249
	l-0.011,0.02c-9.273-5.862-22.409-7.376-32.48-5.993c-17.837,2.449-43.559,14.297-59.747,24.733
	c-0.131,0.084-0.418,0.304-0.705,0.525c-0.007,0.006-0.013,0.011-0.021,0.015c-5.814-8.049-13.732-17.04-28.215-23.085
	c-15.855-6.62-30.022-3.368-39.114,0.524C59.837,45.645,52.019,55.51,51.16,56.621c-4.478,5.789-5.243,11.797-5.273,12.05
	l-0.015,0.124l0.01,0.126c0.164,2.129,4.163,52.327,17.424,66.917c4.063,4.47,8.02,6.822,8.917,7.355
	c7.661,4.938,17.421,7.265,26.626,7.265c2.818,0,5.551-0.206,8.087-0.591c18.153-2.759,40.688-17.404,55.598-27.096l1.741-1.13
	c0.157,0.251,0.316,0.505,0.475,0.747c7.127,10.984,12.494,18.137,26.89,24.827c5.89,2.736,12.173,4.104,18.811,4.104
	c7.084,0,14.571-1.561,22.405-4.677c11.035-4.393,16.619-11.668,18.966-15.614c3.653-6.144,4.786-11.653,4.833-11.885l0.035-0.173
	L256.674,118.796z M139.257,65.533c15.952-10.285,41.241-21.952,58.712-24.352c12.392-1.703,28.913,1.383,36.501,10.572
	c7.587,9.187,7.806,21.488,7.876,25.531c0.038,2.123-0.146,5.38-1.168,9.213c-1.317-0.27-4.031-0.642-8.462-0.44
	c-9.176,0.415-18.271,2.916-32.439,8.922c-10.802,4.579-17.816,9.246-26.662,16.12c-6.087-4.44-13.19-10.886-20.115-17.171
	c-0.246-0.223-0.492-0.447-0.739-0.67c-4.728-10.096-9.574-20.287-14.159-27.226c0.043-0.035,0.086-0.068,0.131-0.103
	C138.944,65.767,139.155,65.6,139.257,65.533z M240.427,88.95c-2.325,6.742-7.329,14.771-17.88,21.523
	c-21.772,13.938-38.094,7.324-44.101,3.834c-0.852-0.495-1.737-1.058-2.652-1.673c8.391-6.482,15.183-10.943,25.479-15.309
	c13.864-5.876,22.712-8.321,31.559-8.724C236.791,88.426,239.233,88.727,240.427,88.95z M53.177,58.181
	c0.817-1.057,8.255-10.446,17.648-14.468c8.64-3.699,22.094-6.792,37.128-0.515c14.053,5.865,21.695,14.657,27.319,22.484
	c4.003,5.572,8.307,14.141,12.58,23.142c-8.043-7.213-15.987-13.959-22.468-17.385c-8.006-4.233-24.619-9.228-45.919,4.889
	c-19.082,12.646-20.631,29.188-20.411,35.713c0.108,3.218,0.387,11.396,4.089,19.399c-10.767-16.361-14.479-59.785-14.708-62.578
	C48.562,68.041,49.471,62.973,53.177,58.181z M122.944,73.067c-7.881,5.113-15.056,9.732-22.252,14.078
	c-10.718,6.473-19.972,9.793-30.006,10.771c-2.539,0.246-4.83,0.01-6.385-0.255c2.563-6.188,7.438-13.151,16.573-19.206
	C100.019,65.765,115.035,69.286,122.944,73.067z M161.144,120.635c-14.727,9.571-36.981,24.036-54.592,26.711
	c-12.379,1.884-28.952-0.946-36.666-9.989c-7.729-9.062-8.145-21.358-8.282-25.399c-0.087-2.592,0.133-6.879,1.791-11.864
	c1.246,0.235,3.019,0.476,5.08,0.476c0.783,0,1.606-0.033,2.459-0.116c10.434-1.014,20.018-4.444,31.076-11.123
	c7.569-4.571,15.093-9.429,23.439-14.847l-0.09-0.139c7.248,4.169,16.371,12.35,25.311,20.46c0.196,0.419,0.392,0.837,0.588,1.254
	c4.106,8.777,8.018,17.13,11.694,23.405L161.144,120.635z M249.628,129.727c-2.183,3.668-7.383,10.437-17.718,14.547
	c-14.494,5.77-27.683,5.981-39.197,0.63c-13.775-6.4-18.947-13.301-25.827-23.9c-3.514-5.416-7.315-13.242-11.323-21.762
	c7.955,7.184,15.405,13.671,21.603,17.271c6.41,3.725,23.801,10.804,46.755-3.889c19.282-12.344,21.092-28.857,20.976-35.385
	c-0.043-2.418-0.137-7.635-1.694-13.497c7.819,19.224,10.684,52.276,10.913,55.064C253.901,119.748,252.708,124.546,249.628,129.727
	z"/>
</svg>
