<?xml version="1.0" encoding="utf-8"?>
<!-- Generator: Adobe Illustrator 15.0.2, SVG Export Plug-In . SVG Version: 6.00 Build 0)  -->
<!DOCTYPE svg PUBLIC "-//W3C//DTD SVG 1.1//EN" "http://www.w3.org/Graphics/SVG/1.1/DTD/svg11.dtd">
<svg version="1.1" id="Layer_7" xmlns="http://www.w3.org/2000/svg" xmlns:xlink="http://www.w3.org/1999/xlink" x="0px" y="0px"
	 width="306px" height="272.986px" viewBox="0 0 306 272.986" enable-background="new 0 0 306 272.986" xml:space="preserve">
<path fill="#231F20" d="M88.941,175.298h16.86l5.62,65.678H95.265l-2.811-32.838h-0.702l-7.025,24.395H72.081l-7.025-24.395h-0.702
	l-2.81,32.838H45.386l5.62-65.678h16.86l10.187,32.84h0.702L88.941,175.298z"/>
<path fill="#231F20" d="M152.512,240.039c0,0-8.781,2.814-18.617,2.814c-12.996,0-18.616-7.506-18.616-16.889
	c0-8.445,5.62-15.951,17.563-15.951c2.107,0,5.269,0.471,5.269,0.471v-0.939c-0.07,0-1.054-3.283-6.323-3.283
	c-3.863,0-7.025,2.814-7.025,2.814l-5.268-12.666c0,0,5.268-5.16,13.698-5.16c12.294,0,19.319,9.381,19.319,22.986V240.039z
	 M133.895,222.21c-2.459,0-3.863,1.971-3.863,3.848s1.404,3.66,3.863,3.66s4.216-0.471,4.216-0.471v-7.037H133.895z"/>
<path fill="#231F20" d="M177.446,240.976H161.99v-65.678h24.237c14.753,0,22.129,9.852,22.129,23.457
	c0,13.604-7.376,23.455-22.129,23.455h-8.781V240.976z M177.446,191.25v15.012h8.781c3.513,0,5.972-3.285,5.972-7.506
	c0-4.223-2.459-7.506-5.972-7.506H177.446z"/>
<path fill="#231F20" d="M230.832,240.976h-15.455v-65.678h24.236c14.753,0,22.129,9.852,22.129,23.457
	c0,13.604-7.376,23.455-22.129,23.455h-8.781V240.976z M230.832,191.25v15.012h8.781c3.513,0,5.971-3.285,5.971-7.506
	c0-4.223-2.458-7.506-5.971-7.506H230.832z"/>
<path fill="#231F20" d="M95.81,129.866l5.56-3.657l-6.327,2.153c-2.165-3.368-6.419-4.79-10.176-3.391l-3.749-5.698l2.199,6.461
	c-3.4,2.12-4.867,6.347-3.535,10.107l-5.6,3.684l6.318-2.15c2.115,3.55,6.495,5.078,10.346,3.631l3.588,5.454l-2.104-6.181
	C95.848,138.117,97.322,133.71,95.81,129.866z M93.994,128.718l-5.445,1.852l-3.076-4.677
	C88.615,124.839,92.105,125.999,93.994,128.718z M83.672,126.779l1.807,5.314l-4.774,3.142
	C79.713,132.088,80.922,128.625,83.672,126.779z M81.537,137.021l5.465-1.858l3.238,4.922
	C86.999,141.18,83.386,139.921,81.537,137.021z M91.976,139.236l-1.904-5.596l4.823-3.172
	C96.057,133.706,94.842,137.345,91.976,139.236z"/>
<g>
	<path fill="#231F20" d="M162.104,76.816c0.823-0.055,1.597-0.312,2.193-0.932c1.189-1.235,2.288-0.323,3.429-0.923
		c0.529-0.277,0.488-1.04,1.051-0.777c1.506,0.707,2.508,1.755,3.727,2.837c0.414,0.367,1.174-0.532,0.757-0.902
		c-1.216-1.08-3.307-3.729-5.189-2.945c-0.243,0.102-0.374,0.411-0.492,0.617c-0.2,0.353-1.259,0.096-1.732,0.084
		c-1.456-0.035-1.919,1.796-3.407,1.895C161.93,75.803,161.457,76.859,162.104,76.816L162.104,76.816z"/>
</g>
<g>
	<path fill="#231F20" d="M170.856,78.808c0.854-0.828,1.806-1.47,2.853-2.037c1.751-0.948,3.076-0.511,4.798,0.184
		c0.855,0.345,2.315,0.257,2.905,1.007c0.342,0.434,1.16,0.786,1.681,0.967c0.499,0.172,1.128-0.815,0.563-1.012
		c-1.096-0.378-1.622-1.269-2.757-1.528c-1.369-0.313-2.953-1.231-4.339-1.297c-2.267-0.105-4.55,1.453-6.111,2.967
		C169.993,78.5,170.297,79.351,170.856,78.808L170.856,78.808z"/>
</g>
<g>
	<path fill="#231F20" d="M179.912,77.286c0.969-0.194,1.369-0.558,2.173-1.188c1.079-0.848,2.702-0.178,4.007-0.617
		c1.674-0.562,3.041-0.116,3.587-2.078c-0.28,0.149-0.562,0.3-0.843,0.45c0.789,0.951,1.01,1.504,2.223,1.729
		c1.432,0.265,2.175,1.438,3.392,2.113c0.452,0.25,1.095-0.717,0.563-1.012c-0.791-0.438-1.278-1.235-2.056-1.657
		c-1.212-0.657-2.422-0.938-3.363-2.075c-0.264-0.318-0.776,0.211-0.843,0.45c-0.372,1.338-4.552,1.266-5.354,1.176
		c-1.318-0.147-2.177,1.452-3.396,1.697C179.479,76.378,179.197,77.429,179.912,77.286L179.912,77.286z"/>
</g>
<g>
	<path fill="#231F20" d="M175.737,73.185c1.454-0.967,2.612-2.604,4.491-1.223c1.072,0.79,1.602,1.275,2.963,1.543
		c0.516,0.101,1.129-0.9,0.563-1.012c-0.998-0.195-1.754-0.448-2.494-1.18c-0.564-0.557-1.287-0.91-2.094-0.943
		c-1.729-0.072-2.51,1.182-3.836,2.064C174.782,72.799,175.098,73.611,175.737,73.185L175.737,73.185z"/>
</g>
<g>
	<path fill="#231F20" d="M177.02,85.168c1.34-0.577,2.045-1.583,3.635-1.682c0.568-0.036,1.01-0.586,1.293-1.015
		c0.607-0.922,1.635,0.165,2.438,0.251c0.695,0.074,1.408,0.068,2.092,0.23c0.817,0.193,1.672,1.146,2.398,1.58
		c0.48,0.288,1.217-0.626,0.756-0.902c-0.98-0.588-1.951-1.716-3.16-1.813c-1.063-0.087-2.068-0.042-2.977-0.71
		c-0.318-0.233-0.281-0.27-0.671-0.299c-1.003-0.073-1.512,1.611-2.474,1.671c-1.611,0.101-2.023,1.143-3.492,1.776
		C176.323,84.486,176.312,85.474,177.02,85.168L177.02,85.168z"/>
</g>
<g>
	<path fill="#231F20" d="M186.959,86.799c0.904-0.437,1.639-0.972,2.406-1.617c1.351-1.136,1.848-1.6,3.598-1.178
		c1.15,0.277,1.794-1.014,2.221-1.812c-0.229,0.123-0.457,0.246-0.687,0.37c1.86,0.823,2.806,2.59,4.245,3.917
		c0.405,0.374,1.168-0.523,0.757-0.902c-1.508-1.39-2.499-3.166-4.439-4.026c-0.259-0.114-0.577,0.165-0.687,0.37
		c-0.975,1.822-1.845,0.01-2.911,0.56c-1.725,0.89-2.896,2.551-4.667,3.406C186.275,86.137,186.262,87.136,186.959,86.799
		L186.959,86.799z"/>
</g>
<g>
	<path fill="#231F20" d="M196.948,84.343c0.743-0.301,1.253-0.734,1.776-1.33c0.208-0.237,0.376-0.522,0.543-0.788
		c0.477-0.755,1.133-0.083,1.74,0.014c0.492,0.077,0.879-0.414,1.153-0.746c0.823-0.999,1.708-1.911,2.577-2.874
		c-0.256,0.033-0.51,0.066-0.766,0.1c0.451,0.571,0.221,1.192,0.596,1.712c0.432,0.601,0.911,1.031,1.518,1.463
		c0.456,0.324,1.203-0.585,0.757-0.902c-0.601-0.427-1.255-0.853-1.46-1.646c-0.153-0.592-0.13-0.872-0.512-1.355
		c-0.223-0.282-0.56-0.128-0.766,0.1c-0.764,0.847-1.656,1.601-2.338,2.519c-0.476,0.641-0.995,0.248-1.61,0.194
		c-1.45-0.126-2.212,2.157-3.372,2.629C196.246,83.65,196.234,84.633,196.948,84.343L196.948,84.343z"/>
</g>
<g>
	<path fill="#231F20" d="M206.343,81.951c0.56-0.153,1.029-0.441,1.487-0.792c-0.217-0.003-0.436-0.007-0.652-0.011
		c0.576,1.101,1.81,1.388,2.562,2.301c0.339,0.411,1.113-0.47,0.757-0.902c-0.699-0.849-1.891-1.113-2.421-2.127
		c-0.137-0.262-0.474-0.148-0.652-0.011c-0.313,0.239-0.608,0.425-0.991,0.53C205.924,81.078,205.645,82.143,206.343,81.951
		L206.343,81.951z"/>
</g>
<g>
	<path fill="#231F20" d="M208.225,85.911c0.637-0.659,1.198-1.387,1.796-2.081c0.905-1.053,1.665-1.565,3.069-1.203
		c1.379,0.356,2.265,0.19,2.888-1.203c0.313-0.702-0.542-0.871-0.811-0.271c-0.474,1.059-1.458,0.388-2.296,0.293
		c-0.697-0.078-1.221,0.011-1.832,0.351c-1.432,0.798-2.334,2.436-3.447,3.586C207.082,85.91,207.724,86.428,208.225,85.911
		L208.225,85.911z"/>
</g>
<g>
	<path fill="#231F20" d="M215.193,81.739c0.889,0.711,1.692,1.48,2.737,1.951c0.97,0.436,2.067-0.736,3.235-0.212
		c1.199,0.537,2.086,1.444,3.227,2.056c1.318,0.705,3.478,0.408,4.913,0.691c0.517,0.102,1.13-0.899,0.563-1.012
		c-1.229-0.241-2.409-0.406-3.659-0.476c-1.668-0.092-2.409-1.241-3.785-1.926c-0.557-0.276-1.624-1.035-2.299-0.81
		c-1.827,0.608-2.809-0.072-4.174-1.166C215.516,80.488,214.762,81.392,215.193,81.739L215.193,81.739z"/>
</g>
<g>
	<g>
		<path fill="#231F20" d="M119.547,98.68c-1.861,1.815-3.298,7.44,0.128,8.472c0.507,0.151,1.131-0.84,0.563-1.012
			c-2.54-0.764-1.745-5.283-0.282-6.71C120.408,98.988,120.104,98.135,119.547,98.68L119.547,98.68z"/>
	</g>
	<g>
		<path fill="#231F20" d="M119.508,99.419c1.602,2.089,2.227,4.92,0.543,7.167c-0.433,0.577,0.191,1.117,0.632,0.529
			c1.952-2.607,1.669-5.888-0.278-8.425C120.035,98.208,119.191,99.008,119.508,99.419L119.508,99.419z"/>
	</g>
	<g>
		<path fill="#231F20" d="M119.876,106.368c0,0.418,0,0.837,0,1.255c0,0.729,0.981,0.27,0.981-0.264c0-0.008,0-0.016,0-0.024
			c0-0.728-0.981-0.27-0.981,0.264c0,0.008,0,0.017,0,0.024c0,0.729,0.981,0.27,0.981-0.264c0-0.418,0-0.836,0-1.255
			C120.857,105.376,119.876,105.834,119.876,106.368L119.876,106.368z"/>
	</g>
	<g>
		<path fill="#231F20" d="M119.876,106.778c0,0.547,0,1.094,0,1.641c0,0.728,0.981,0.27,0.981-0.264c0-0.547,0-1.094,0-1.641
			C120.857,105.787,119.876,106.245,119.876,106.778L119.876,106.778z"/>
	</g>
</g>
<g>
	<g>
		<path fill="#231F20" d="M120.804,115.058c1.646,1.066,4.142,0.505,5.955,0.276c0.327-0.041,0.765-0.397,0.653-0.779
			c-0.739-2.559-1.961-4.961-2.461-7.59c-0.03-0.159-0.155-0.268-0.318-0.268c-0.137,0-0.273,0-0.41,0
			c-0.295,0-0.539,0.262-0.631,0.522c-0.881,2.521-2.184,4.877-2.695,7.519c-0.137,0.701,0.884,0.241,0.981-0.264
			c0.493-2.541,1.794-4.826,2.642-7.253c-0.211,0.174-0.421,0.349-0.631,0.522c0.434,0,0.172,0.169,0.289,0.673
			c0.161,0.696,0.396,1.385,0.636,2.057c0.547,1.529,1.175,3.031,1.626,4.593c0.219-0.26,0.437-0.52,0.654-0.779
			c-1.592,0.201-4.093,0.802-5.533-0.132C121.09,113.851,120.35,114.763,120.804,115.058L120.804,115.058z"/>
	</g>
	<g>
		<path fill="#231F20" d="M123.818,114.976c-0.505-0.462-1.096,0.316-0.947,0.832c0.123,0.432,0.443,0.867,0.492,1.312
			c0.072,0.646,1.029-0.004,0.973-0.512c-0.027-0.243-0.166-0.495-0.258-0.719c-0.058-0.14-0.115-0.279-0.171-0.42
			c-0.022-0.057-0.046-0.114-0.064-0.173c-0.05-0.153,0.03-0.108-0.046,0.072c-0.17,0.168-0.34,0.337-0.508,0.505
			c-0.262-0.083-0.338-0.082-0.229,0.005C123.468,116.251,124.229,115.354,123.818,114.976L123.818,114.976z"/>
	</g>
	<g>
		<path fill="#231F20" d="M123.359,115.765c0,0.479,0,0.957,0,1.436c0,0.729,0.98,0.27,0.98-0.264c0-0.479,0-0.957,0-1.436
			C124.34,114.773,123.359,115.232,123.359,115.765L123.359,115.765z"/>
	</g>
</g>
<g>
	<g>
		<path fill="#231F20" d="M112.086,109.939c0.832,2.638,3.98,3.108,5.104,0.474c0.957-2.245-0.929-5.023-1.464-7.141
			c-0.163-0.644-1.1,0.011-0.973,0.512c0.322,1.273,0.904,2.474,1.285,3.73c0.214,0.707,0.357,1.438,0.352,2.179
			c-0.018,2.339-2.804,1.411-3.332-0.266C112.859,108.792,111.932,109.446,112.086,109.939L112.086,109.939z"/>
	</g>
	<g>
		<path fill="#231F20" d="M113.059,109.427c-0.332-2.124,0.642-4.508,2.088-6.046c0.502-0.534-0.139-1.056-0.633-0.529
			c-1.693,1.802-2.816,4.604-2.428,7.087C112.188,110.586,113.139,109.935,113.059,109.427L113.059,109.427z"/>
	</g>
	<g>
		<path fill="#231F20" d="M114.366,111.733c-0.159,0.528-0.354,1.313,0.015,1.802c0.366,0.485,1.211-0.313,0.898-0.729
			c-0.224-0.297-0.082-0.752,0.015-1.071C115.517,110.995,114.531,111.182,114.366,111.733L114.366,111.733z"/>
	</g>
	<g>
		<path fill="#231F20" d="M114.34,112.277c0,0.438,0,0.875,0,1.313c0,0.729,0.98,0.27,0.98-0.264c0-0.026,0-0.054,0-0.081
			c0-0.728-0.98-0.27-0.98,0.264c0,0.026,0,0.054,0,0.081c0,0.729,0.98,0.27,0.98-0.264c0-0.438,0-0.875,0-1.313
			C115.32,111.285,114.34,111.744,114.34,112.277L114.34,112.277z"/>
	</g>
	<g>
		<path fill="#231F20" d="M114.835,112.009c-0.199,0.432-0.29,0.817-0.291,1.293c-0.003,0.728,0.979,0.27,0.981-0.264
			c0.001-0.271,0.004-0.507,0.12-0.758C115.969,111.581,115.11,111.414,114.835,112.009L114.835,112.009z"/>
	</g>
</g>
<g>
	<g>
		<path fill="#231F20" d="M216.652,55.665c-1.859,1.816-3.299,7.442,0.128,8.473c0.507,0.152,1.131-0.84,0.563-1.011
			c-2.54-0.764-1.743-5.285-0.282-6.711C217.514,55.973,217.211,55.121,216.652,55.665L216.652,55.665z"/>
	</g>
	<g>
		<path fill="#231F20" d="M216.613,56.405c1.602,2.089,2.226,4.919,0.543,7.167c-0.432,0.578,0.191,1.118,0.632,0.53
			c1.952-2.609,1.669-5.888-0.278-8.427C217.141,55.193,216.297,55.993,216.613,56.405L216.613,56.405z"/>
	</g>
	<g>
		<path fill="#231F20" d="M216.981,63.353c0,0.419,0,0.838,0,1.257c0,0.728,0.981,0.27,0.981-0.264c0-0.008,0-0.016,0-0.024
			c0-0.728-0.981-0.27-0.981,0.264c0,0.008,0,0.016,0,0.024c0,0.728,0.981,0.27,0.981-0.264c0-0.419,0-0.838,0-1.257
			C217.963,62.361,216.981,62.82,216.981,63.353L216.981,63.353z"/>
	</g>
	<g>
		<path fill="#231F20" d="M216.981,63.764c0,0.547,0,1.094,0,1.642c0,0.728,0.981,0.27,0.981-0.264c0-0.547,0-1.094,0-1.642
			C217.963,62.772,216.981,63.231,216.981,63.764L216.981,63.764z"/>
	</g>
</g>
<g>
	<g>
		<path fill="#231F20" d="M195.551,69.337c1.311,0.85,3.273,0.414,4.721,0.233c0.327-0.041,0.764-0.397,0.654-0.779
			c-0.58-2.01-1.541-3.897-1.932-5.961c-0.03-0.159-0.155-0.268-0.318-0.268c-0.107,0-0.215,0-0.322,0
			c-0.296,0-0.541,0.262-0.632,0.522c-0.694,1.991-1.718,3.847-2.122,5.932c-0.136,0.701,0.885,0.242,0.982-0.264
			c0.385-1.983,1.406-3.771,2.067-5.667c-0.21,0.174-0.421,0.348-0.632,0.522c0.107,0,0.215,0,0.322,0
			c-0.105-0.089-0.212-0.179-0.318-0.268c0.392,2.066,1.352,3.951,1.932,5.961c0.218-0.26,0.436-0.52,0.654-0.779
			c-1.227,0.153-3.189,0.632-4.3-0.089C195.837,68.129,195.096,69.042,195.551,69.337L195.551,69.337z"/>
	</g>
	<g>
		<path fill="#231F20" d="M198.08,69.08c-0.081-0.073-0.178-0.129-0.293-0.121c-0.232,0.016-0.474,0.172-0.572,0.388
			c-0.268,0.587,0.248,1.009,0.323,1.567c0.087,0.646,1.04-0.003,0.973-0.512c-0.024-0.176-0.114-0.353-0.181-0.516
			c-0.047-0.113-0.094-0.225-0.139-0.338c-0.112-0.277-0.006-0.281-0.166,0.069c-0.191,0.129-0.382,0.259-0.572,0.388
			c-0.172-0.084-0.215-0.092-0.13-0.023C197.734,70.351,198.494,69.453,198.08,69.08L198.08,69.08z"/>
	</g>
	<g>
		<path fill="#231F20" d="M197.533,69.824c0,0.375,0,0.752,0,1.127c0,0.729,0.982,0.27,0.982-0.264c0-0.375,0-0.752,0-1.127
			C198.516,68.832,197.533,69.291,197.533,69.824L197.533,69.824z"/>
	</g>
</g>
<g>
	<g>
		<path fill="#231F20" d="M204.387,59.119c1.238,0.804,3.09,0.395,4.459,0.224c0.326-0.041,0.764-0.398,0.654-0.779
			c-0.549-1.892-1.452-3.67-1.822-5.614c-0.029-0.159-0.154-0.268-0.318-0.268c-0.102,0-0.202,0-0.303,0
			c-0.296,0-0.541,0.262-0.632,0.522c-0.655,1.877-1.62,3.627-1.999,5.595c-0.135,0.702,0.885,0.242,0.982-0.264
			c0.359-1.866,1.322-3.547,1.944-5.33c-0.21,0.174-0.421,0.348-0.632,0.522c0.102,0,0.203,0,0.304,0
			c-0.106-0.089-0.212-0.179-0.319-0.268c0.371,1.946,1.273,3.721,1.822,5.614c0.217-0.26,0.436-0.52,0.653-0.779
			c-1.148,0.144-2.997,0.596-4.038-0.079C204.672,57.912,203.932,58.824,204.387,59.119L204.387,59.119z"/>
	</g>
	<g>
		<path fill="#231F20" d="M206.813,58.824c-0.127-0.113-0.247-0.131-0.413-0.1c-0.237,0.045-0.437,0.289-0.508,0.505
			c-0.159,0.484,0.297,0.908,0.36,1.364c0.09,0.647,1.043-0.003,0.973-0.512c-0.025-0.177-0.117-0.355-0.184-0.519
			c-0.046-0.111-0.092-0.221-0.137-0.332c-0.078-0.198,0.002-0.266-0.086,0.001c-0.169,0.168-0.338,0.337-0.508,0.505
			c-0.085-0.003-0.17-0.007-0.255-0.01C206.469,60.094,207.229,59.195,206.813,58.824L206.813,58.824z"/>
	</g>
	<g>
		<path fill="#231F20" d="M206.247,59.558c0,0.354,0,0.708,0,1.063c0,0.728,0.981,0.27,0.981-0.264c0-0.354,0-0.708,0-1.063
			C207.229,58.566,206.247,59.024,206.247,59.558L206.247,59.558z"/>
	</g>
</g>
<g>
	<g>
		<path fill="#231F20" d="M208.164,68.36c0.83,2.638,3.98,3.112,5.105,0.475c0.957-2.246-0.93-5.025-1.465-7.142
			c-0.162-0.644-1.1,0.01-0.973,0.512c0.322,1.274,0.904,2.474,1.285,3.732c0.214,0.707,0.357,1.438,0.352,2.179
			c-0.018,2.34-2.805,1.409-3.332-0.267C208.936,67.213,208.008,67.868,208.164,68.36L208.164,68.36z"/>
	</g>
	<g>
		<path fill="#231F20" d="M209.137,67.849c-0.332-2.123,0.642-4.506,2.086-6.044c0.503-0.535-0.137-1.056-0.631-0.53
			c-1.693,1.802-2.816,4.603-2.428,7.086C208.266,69.007,209.215,68.356,209.137,67.849L209.137,67.849z"/>
	</g>
	<g>
		<path fill="#231F20" d="M210.443,70.156c-0.158,0.529-0.352,1.313,0.016,1.803c0.363,0.485,1.209-0.313,0.896-0.73
			c-0.222-0.296-0.08-0.75,0.016-1.07C211.594,69.417,210.609,69.605,210.443,70.156L210.443,70.156z"/>
	</g>
	<g>
		<path fill="#231F20" d="M210.416,70.7c0,0.437,0,0.874,0,1.312c0,0.729,0.982,0.27,0.982-0.264c0-0.027,0-0.054,0-0.081
			c0-0.728-0.982-0.27-0.982,0.264c0,0.026,0,0.054,0,0.081c0,0.729,0.982,0.27,0.982-0.264c0-0.438,0-0.874,0-1.312
			C211.398,69.708,210.416,70.167,210.416,70.7L210.416,70.7z"/>
	</g>
	<g>
		<path fill="#231F20" d="M210.913,70.432c-0.2,0.432-0.29,0.817-0.291,1.293c-0.003,0.728,0.979,0.27,0.981-0.264
			c0.001-0.271,0.004-0.507,0.12-0.758C212.048,70.003,211.189,69.837,210.913,70.432L210.913,70.432z"/>
	</g>
</g>
<g>
	<path fill="#231F20" d="M78.356,119.265c-0.272-1.501-0.671-2.974-0.942-4.475c-0.288,0.235-0.576,0.472-0.864,0.707
		c0.988,0.589,3.794,4.318,5.169,2.405c1.08-1.502-0.201-4.645-1.045-6.047c-0.31-0.517-1.168,0.277-0.896,0.729
		c0.758,1.262,1.302,3.04,1.328,4.513c0.013,0.704-1.732-0.671-1.983-0.893c-0.601-0.529-1.122-1.196-1.815-1.609
		c-0.412-0.246-0.942,0.275-0.865,0.707c0.271,1.501,0.671,2.974,0.942,4.475C77.501,120.424,78.448,119.772,78.356,119.265
		L78.356,119.265z"/>
</g>
<g>
	<path fill="#231F20" d="M227.125,69.085c-1.676,1.785-2.83,4.133-4.239,6.125c-0.414,0.586,0.207,1.13,0.632,0.529
		c1.409-1.992,2.564-4.341,4.238-6.123C228.258,69.082,227.619,68.56,227.125,69.085L227.125,69.085z"/>
</g>
<g>
	<path fill="#231F20" d="M221.646,70.744c1.812,1.752,4.034,2.871,6.124,4.239c0.469,0.308,1.211-0.604,0.756-0.901
		c-2.089-1.368-4.312-2.488-6.123-4.24C222.008,69.46,221.243,70.355,221.646,70.744L221.646,70.744z"/>
</g>
<path fill="#231F20" d="M145.838,135.614c-0.135-1.741-0.504-3.379-0.886-5.08c-0.715-3.187,1.107-5.325,4.095-6.35
	c1.73-0.593,3.08-1.174,4.189-2.691c1.994-2.732,1.566-6.557,3.702-9.214c0.021-0.025,0.034-0.051,0.053-0.075
	c-0.226-0.478-0.452-0.956-0.679-1.438c-0.211,0.059-0.433,0.198-0.638,0.453c-1.904,2.371-2.292,5.363-3.245,8.179
	c-0.975,2.882-5.281,3.313-7.586,4.996c-1.589,1.157-2.325,3.438-2.111,5.325c0.18,1.587,0.578,3.118,0.908,4.678
	c0.769,3.63-0.565,6.721-2.277,9.82c-0.105,0.193-0.158,0.364-0.175,0.513c0.873-0.489,1.739-0.983,2.601-1.48
	C145.012,140.878,146.049,138.3,145.838,135.614z"/>
<path fill="#231F20" d="M185.791,109.072c-2.041-0.777-3.334-1.405-4.656-3.323c-0.623-0.903-1.244-1.98-2.26-2.502
	c-3.801-1.951-8.049,0.145-11.88,0.894c-2.825,0.555-5.28,0.911-7.111,3.003c0.401,0.363,0.803,0.724,1.204,1.085
	c1.72-2.094,5.854-2.015,8.261-2.636c3.247-0.84,7.19-2.259,9.563,0.978c0.897,1.223,1.768,2.916,3.214,3.598
	c2.017,0.953,4.417,0.894,4.521,3.579c0.64-0.421,1.284-0.834,1.934-1.24C188.415,110.835,187.629,109.772,185.791,109.072z"/>
<path fill="#231F20" d="M259.531,128.816c-0.164-2.129-4.164-52.326-17.428-66.917c-4.383-4.824-8.94-7.152-9.133-7.249l-0.01,0.02
	c-9.274-5.863-22.409-7.376-32.481-5.994c-17.837,2.45-43.558,14.297-59.747,24.735c-0.131,0.084-0.418,0.304-0.705,0.525
	c-0.007,0.006-0.012,0.01-0.02,0.015c-5.814-8.049-13.732-17.04-28.215-23.085c-15.855-6.62-30.022-3.368-39.113,0.524
	c-9.985,4.276-17.804,14.142-18.662,15.252c-4.477,5.789-5.242,11.797-5.273,12.05l-0.015,0.124l0.01,0.126
	c0.163,2.129,4.163,52.327,17.424,66.917c4.063,4.47,8.019,6.822,8.917,7.356c7.662,4.938,17.422,7.264,26.627,7.264
	c2.818,0,5.551-0.206,8.086-0.591c18.153-2.758,40.688-17.404,55.598-27.095l1.742-1.13c0.157,0.251,0.316,0.505,0.474,0.747
	c7.127,10.984,12.494,18.137,26.89,24.827c5.89,2.736,12.173,4.104,18.81,4.104c7.085,0,14.572-1.561,22.405-4.677
	c11.035-4.393,16.619-11.668,18.967-15.614c3.652-6.144,4.785-11.654,4.832-11.885l0.035-0.173L259.531,128.816z M142.115,75.552
	c15.951-10.285,41.24-21.952,58.711-24.351c12.393-1.703,28.913,1.383,36.502,10.572c7.587,9.187,7.806,21.488,7.877,25.531
	c0.037,2.123-0.146,5.38-1.169,9.213c-1.317-0.269-4.03-0.641-8.462-0.44c-9.176,0.415-18.271,2.916-32.439,8.922
	c-10.802,4.579-17.816,9.246-26.663,16.12c-6.087-4.441-13.19-10.886-20.114-17.171c-0.246-0.223-0.492-0.447-0.739-0.67
	c-4.728-10.096-9.573-20.287-14.159-27.226c0.043-0.035,0.086-0.068,0.131-0.102C141.801,75.787,142.012,75.62,142.115,75.552z
	 M243.285,98.969c-2.325,6.743-7.329,14.771-17.881,21.524c-21.772,13.938-38.094,7.324-44.1,3.834
	c-0.853-0.495-1.738-1.058-2.653-1.673c8.391-6.482,15.183-10.943,25.479-15.309c13.863-5.876,22.712-8.321,31.557-8.723
	C239.648,98.446,242.09,98.747,243.285,98.969z M56.034,68.201c0.817-1.057,8.255-10.446,17.648-14.468
	c8.64-3.699,22.094-6.792,37.128-0.515c14.053,5.866,21.696,14.658,27.32,22.485c4.004,5.572,8.306,14.14,12.58,23.141
	c-8.044-7.212-15.988-13.959-22.469-17.384c-8.006-4.234-24.619-9.228-45.919,4.888c-19.082,12.646-20.631,29.188-20.411,35.713
	c0.109,3.218,0.388,11.396,4.09,19.4c-10.768-16.362-14.48-59.786-14.709-62.578C51.42,78.06,52.328,72.992,56.034,68.201z
	 M125.801,83.086c-7.881,5.113-15.056,9.732-22.252,14.078c-10.717,6.472-19.972,9.793-30.006,10.77
	c-2.538,0.246-4.83,0.01-6.385-0.255c2.563-6.188,7.438-13.151,16.573-19.206C102.876,75.785,117.893,79.305,125.801,83.086z
	 M164.001,130.655c-14.727,9.571-36.982,24.036-54.592,26.711c-12.379,1.884-28.952-0.946-36.666-9.989
	c-7.729-9.062-8.146-21.359-8.282-25.4c-0.088-2.592,0.133-6.879,1.791-11.864c1.246,0.235,3.018,0.476,5.08,0.476
	c0.783,0,1.605-0.034,2.459-0.117c10.433-1.013,20.016-4.444,31.076-11.123c7.568-4.571,15.092-9.428,23.438-14.846l-0.089-0.139
	c7.248,4.169,16.37,12.35,25.309,20.46c0.197,0.419,0.393,0.837,0.588,1.254c4.107,8.777,8.019,17.13,11.695,23.405L164.001,130.655
	z M252.486,139.747c-2.182,3.668-7.383,10.436-17.719,14.547c-14.493,5.769-27.682,5.981-39.197,0.63
	c-13.775-6.401-18.946-13.301-25.826-23.901c-3.514-5.416-7.314-13.242-11.322-21.762c7.954,7.184,15.404,13.671,21.602,17.271
	c6.41,3.725,23.801,10.804,46.756-3.889c19.281-12.343,21.092-28.857,20.976-35.385c-0.044-2.417-0.138-7.634-1.695-13.497
	c7.82,19.225,10.685,52.277,10.913,55.065C256.759,129.767,255.564,134.566,252.486,139.747z"/>
<g>
	<path fill="#231F20" d="M111.877,151.761c-0.17-0.086-0.338-0.178-0.502-0.276c-2.416,3.201-4.111,5.271-4.166,5.338
		c-0.185,0.224-0.152,0.555,0.07,0.738c0.099,0.081,0.217,0.12,0.334,0.12c0.151,0,0.302-0.065,0.405-0.191
		c0.028-0.034,1.763-2.146,4.226-5.406C112.121,151.977,111.998,151.87,111.877,151.761z"/>
	<path fill="#231F20" d="M116.205,145.38c-0.094-0.047-0.189-0.094-0.284-0.139c-1.239,1.771-2.442,3.426-3.539,4.9
		c0.241,0.184,0.551,0.398,0.845,0.632c1.118-1.501,2.344-3.188,3.605-4.988C116.617,145.66,116.407,145.525,116.205,145.38z"/>
	<path fill="#231F20" d="M119.489,139.951c-0.293,0.453-0.588,0.904-0.884,1.351c0.016,0.01,0.029,0.02,0.045,0.031
		c0.266,0.207,0.521,0.426,0.785,0.634c0.322-0.484,0.635-0.962,0.941-1.436C120.068,140.358,119.781,140.155,119.489,139.951z"/>
	<path fill="#231F20" d="M127.189,125.65c-0.572,1.491-1.28,3.059-2.088,4.663c0.311,0.166,0.626,0.326,0.934,0.498
		c0.841-1.674,1.541-3.237,2.1-4.688C127.82,125.965,127.504,125.807,127.189,125.65z"/>
	<path fill="#231F20" d="M128.907,119.375c-0.008,0.015-0.042,0.174-0.051,0.189c-0.075,0.361-0.151,0.727-0.232,1.101
		c0.296,0.058,0.583,0.168,0.886,0.188c0.051,0.003,0.097,0.013,0.141,0.024c0.09-0.414,0.176-0.819,0.258-1.221
		C129.844,119.689,129.002,119.454,128.907,119.375z"/>
	<path fill="#231F20" d="M130.939,113.643c0.045-0.389,0.105-0.966,0.139-1.34c-0.055,0.016-0.839,0.023-0.846,0.023
		c-0.008,0-0.152-0.005-0.213-0.023c-0.029,0.326-0.084,0.852-0.123,1.188C129.92,113.489,130.836,113.574,130.939,113.643z"/>
	<path fill="#231F20" d="M135.299,113.201c-0.119-0.088-0.213-0.2-0.269-0.326c-1.121,1.048-2.385,2.179-3.757,3.29
		c0.021,0.004,0.615,0.824,0.634,0.836c1.408-1.143,2.724-2.32,3.884-3.405C135.63,113.461,135.469,113.326,135.299,113.201z"/>
	<path fill="#231F20" d="M142.479,106.5c-0.041-0.051-0.079-0.102-0.117-0.152c-0.449,0.34-0.861,0.663-1.232,0.959
		c0.012,0.018,0.023,0.033,0.033,0.051c0.045,0.063,0.09,0.126,0.137,0.188c0.188,0.085,0.342,0.248,0.393,0.446
		c0.041,0.038,0.082,0.075,0.124,0.111c0.327-0.262,0.688-0.544,1.079-0.842C142.729,107.023,142.588,106.766,142.479,106.5z"/>
	<path fill="#231F20" d="M145.4,105.407c-0.061-0.032-0.121-0.076-0.178-0.134c-0.187-0.192-0.364-0.393-0.549-0.586
		c-0.439,0.299-0.859,0.592-1.254,0.877c0.218,0.274,0.469,0.525,0.709,0.783c0.411-0.294,0.847-0.599,1.305-0.907
		C145.422,105.429,145.412,105.417,145.4,105.407z"/>
	<path fill="#231F20" d="M147.157,103.105c-0.429,0.255-0.843,0.511-1.242,0.765c0.21,0.284,0.408,0.573,0.646,0.834
		c0.35-0.221,0.711-0.442,1.082-0.665C147.427,103.754,147.234,103.453,147.157,103.105z"/>
	<path fill="#231F20" d="M159.24,98.373c-0.014-0.032-0.029-0.064-0.043-0.097c-0.006-0.014-0.01-0.027-0.015-0.041
		c-0.14,0.032-0.279,0.063-0.419,0.094c-1.586,0.366-3.098,0.834-4.529,1.365c0.058,0.089,0.111,0.179,0.16,0.269
		c0.121,0.212,0.24,0.437,0.334,0.668c1.354-0.498,2.779-0.936,4.271-1.279c0.186-0.043,0.372-0.084,0.559-0.125
		C159.431,98.951,159.316,98.668,159.24,98.373z"/>
	<path fill="#231F20" d="M177.738,97.333c0.006-0.15,0.013-0.303,0.022-0.455c-0.446-0.03-0.894-0.058-1.339-0.079
		c0,0.351,0.004,0.7,0.02,1.051c0.428,0.021,0.857,0.049,1.286,0.078C177.727,97.728,177.729,97.531,177.738,97.333z"/>
	<path fill="#231F20" d="M180.564,97.517c-0.013-0.131-0.022-0.26-0.029-0.39c-0.486-0.054-0.974-0.104-1.46-0.146
		c0.001,0.042-0.003,0.087-0.011,0.132c-0.012,0.069-0.02,0.141-0.025,0.211c-0.006,0.235-0.002,0.472,0,0.708
		c0.521,0.047,1.042,0.099,1.563,0.157C180.565,97.964,180.541,97.743,180.564,97.517z"/>
	<path fill="#231F20" d="M183.367,97.92c-0.056-0.153-0.115-0.307-0.172-0.458c-0.276-0.036-0.545-0.072-0.802-0.107
		c-0.142-0.02-0.283-0.037-0.426-0.056c-0.007,0.089-0.032,0.182-0.083,0.277c-0.002,0.001-0.002,0.003-0.003,0.005
		c0.026,0.26,0.062,0.519,0.095,0.776c0.092,0.013,0.183,0.024,0.274,0.036c0.372,0.052,0.765,0.104,1.177,0.156
		C183.387,98.346,183.359,98.141,183.367,97.92z"/>
	<path fill="#231F20" d="M186.539,97.865c-0.66-0.074-1.295-0.147-1.894-0.22c0.124,0.358,0.235,0.722,0.284,1.091
		c0.543,0.064,1.114,0.13,1.703,0.194C186.528,98.577,186.464,98.218,186.539,97.865z"/>
	<path fill="#231F20" d="M191.983,99.457c1.778,0.154,3.63,0.296,5.494,0.413c-0.045-0.355-0.062-0.712,0.034-1.049
		c-1.865-0.117-3.721-0.26-5.5-0.415c0.011,0.047,0.018,0.097,0.018,0.151v0.655C192.029,99.303,192.012,99.383,191.983,99.457z"/>
	<path fill="#231F20" d="M211.179,99.125c-0.001-0.026,0.001-0.052,0.004-0.075c-0.482,0.027-0.981,0.049-1.495,0.065
		c0.002,0.018,0.005,0.034,0.005,0.053c0.001,0.334,0.007,0.664,0.036,0.995c0.514-0.016,1.015-0.037,1.498-0.065
		C211.229,99.775,211.184,99.444,211.179,99.125z"/>
	<path fill="#231F20" d="M216.93,98.424c-0.016-0.073-0.018-0.143-0.012-0.208c-1.432,0.33-2.91,0.584-4.397,0.73
		c-0.001,0.044-0.003,0.09-0.01,0.134c-0.004,0.025-0.005,0.053-0.007,0.078c0.048,0.276,0.09,0.554,0.12,0.832
		c1.528-0.151,3.05-0.413,4.522-0.754C217.061,98.97,216.987,98.701,216.93,98.424z"/>
	<path fill="#231F20" d="M227.918,93.678c-0.156,0.108-0.312,0.215-0.465,0.315c-1.222,0.807-2.887,1.659-4.824,2.434
		c0.068,0.092,0.119,0.202,0.136,0.337c0.005,0.038,0.015,0.076,0.028,0.116c0.113,0.15,0.204,0.316,0.283,0.495
		c1.988-0.797,3.697-1.677,4.955-2.507c0.139-0.09,0.273-0.183,0.406-0.274C228.225,94.31,228.037,94.005,227.918,93.678z"/>
	<path fill="#231F20" d="M233.123,89.873c-0.26-0.192-0.518-0.389-0.74-0.615c-0.236,0.36-0.49,0.707-0.756,1.038
		c0.227,0.287,0.438,0.58,0.629,0.887c0.344-0.408,0.654-0.826,0.938-1.251C233.172,89.912,233.146,89.892,233.123,89.873z"/>
	<path fill="#231F20" d="M235.146,84.536c-0.349-0.1-0.689-0.21-1.008-0.379c-0.018,0.191-0.037,0.383-0.06,0.577
		c-0.037,0.319-0.09,0.63-0.156,0.935c0.05,0.026,0.099,0.057,0.145,0.093c0.264,0.161,0.53,0.317,0.797,0.476
		c0.115-0.456,0.202-0.916,0.257-1.381c0.013-0.107,0.023-0.212,0.033-0.316C235.152,84.539,235.149,84.538,235.146,84.536z"/>
	<path fill="#231F20" d="M232.576,76c0.301-0.142,0.592-0.295,0.879-0.455c-0.325-0.515-0.668-0.953-1.002-1.323
		c-1.734-1.914-3.625-2.465-3.705-2.487c-0.279-0.078-0.567,0.083-0.646,0.361c-0.08,0.277,0.082,0.568,0.359,0.648
		c0.018,0.004,1.721,0.512,3.253,2.225c0.297,0.333,0.567,0.686,0.812,1.059C232.541,76.017,232.559,76.008,232.576,76z"/>
	<path fill="#231F20" d="M234.186,81.422c0.025,0.395,0.036,0.798,0.031,1.214c0.209,0.058,0.419,0.166,0.625,0.273
		c0.137,0.071,0.273,0.144,0.41,0.215c0.02-0.568,0.012-1.107-0.018-1.621C234.885,81.472,234.535,81.434,234.186,81.422z"/>
	<path fill="#231F20" d="M233.537,86.989c-0.142,0.383-0.302,0.754-0.482,1.111c0.053,0.028,0.101,0.065,0.143,0.112
		c0.229,0.189,0.449,0.39,0.675,0.585c0.214-0.404,0.4-0.814,0.563-1.229C234.123,87.395,233.824,87.201,233.537,86.989z"/>
	<path fill="#231F20" d="M203.951,99.947c-0.053-0.272-0.082-0.549-0.074-0.832c-1.609-0.043-3.27-0.114-4.935-0.208
		c0.008,0.354,0.026,0.705,0.06,1.054c1.671,0.093,3.338,0.164,4.953,0.205C203.953,100.093,203.952,100.02,203.951,99.947z"/>
	<path fill="#231F20" d="M171.17,96.974c-0.016-0.076-0.029-0.153-0.043-0.229c-2.172,0.065-4.326,0.238-6.461,0.521
		c-0.001,0.022-0.002,0.045-0.006,0.067c-0.021,0.187,0.016,0.375,0.075,0.559c0.073,0.127,0.134,0.261,0.187,0.397
		c2.099-0.273,4.217-0.439,6.354-0.5C171.214,97.518,171.17,97.245,171.17,96.974z"/>
	<path fill="#231F20" d="M153.002,100.263c-0.024-0.018-0.048-0.038-0.07-0.06c-0.489,0.203-0.971,0.409-1.439,0.624
		c0.305,0.211,0.53,0.506,0.672,0.849c0.408-0.185,0.827-0.362,1.252-0.536C153.228,100.871,153.057,100.596,153.002,100.263z"/>
	<path fill="#231F20" d="M140.238,108.298c-0.043-0.055-0.082-0.11-0.123-0.166c-0.092,0.075-0.178,0.146-0.26,0.215l-0.305,0.251
		c-0.189,0.155-0.41,0.352-0.66,0.584c0.039,0.041,0.074,0.091,0.104,0.148c0.139,0.264,0.295,0.515,0.46,0.76
		c0.298-0.278,0.556-0.512,0.763-0.683l0.307-0.252c0.058-0.048,0.119-0.099,0.181-0.149
		C140.521,108.79,140.381,108.539,140.238,108.298z"/>
	<path fill="#231F20" d="M129.336,103.88c0.381,1.216,0.621,2.468,0.734,3.793c0.07,0.001,0.146,0.014,0.227,0.045
		c0.172,0.065,0.566,0.002,0.838-0.037c-0.117-1.458-0.379-2.831-0.807-4.169C130.002,103.644,129.668,103.759,129.336,103.88z"/>
	<path fill="#231F20" d="M122.01,94.425c-0.047,0.266-0.117,0.525-0.182,0.787c0.492,0.104,0.98,0.261,1.463,0.485
		c0.121-0.237,0.232-0.479,0.307-0.736c0.026-0.088,0.064-0.161,0.111-0.223c-0.408-0.188-0.828-0.341-1.262-0.455
		c-0.145-0.038-0.291-0.071-0.436-0.102C122.023,94.257,122.025,94.338,122.01,94.425z"/>
	<path fill="#231F20" d="M116.494,95.565c0.047-0.011,0.093-0.024,0.139-0.035c1.197-0.269,2.382-0.483,3.548-0.483
		c0.054,0,0.107,0.002,0.161,0.003c0.02-0.197,0.031-0.396,0.039-0.594c-0.004-0.149-0.002-0.299,0.005-0.449
		c-1.354-0.027-2.698,0.212-3.981,0.5c-0.067,0.016-0.133,0.033-0.199,0.05C116.332,94.885,116.424,95.221,116.494,95.565z"/>
	<path fill="#231F20" d="M109.453,100.758c0.076,0.063,0.162,0.138,0.244,0.207c0.868-1.315,1.936-2.553,3.155-3.527
		c-0.173-0.181-0.344-0.36-0.529-0.527c-0.085-0.076-0.14-0.158-0.173-0.242c-1.277,1.034-2.394,2.325-3.305,3.693
		C109.066,100.463,109.26,100.597,109.453,100.758z"/>
	<path fill="#231F20" d="M106.92,105.226c0.213,0.095,0.43,0.181,0.644,0.272c0.091-0.286,0.187-0.576,0.292-0.873
		c0.031-0.091,0.065-0.183,0.1-0.273c-0.078-0.039-0.155-0.08-0.231-0.123c-0.233-0.129-0.462-0.267-0.688-0.41
		c-0.06,0.153-0.117,0.307-0.171,0.458c-0.104,0.295-0.201,0.586-0.291,0.872C106.688,105.149,106.808,105.176,106.92,105.226z"/>
	<path fill="#231F20" d="M106.307,107.753c0.206,0.11,0.396,0.233,0.635,0.235c0.066-0.379,0.148-0.765,0.246-1.162
		c-0.105-0.035-0.209-0.074-0.318-0.125c-0.17-0.078-0.343-0.174-0.477-0.188c-0.068-0.007-0.133-0.022-0.195-0.044
		c-0.096,0.384-0.179,0.76-0.248,1.129C106.068,107.641,106.188,107.69,106.307,107.753z"/>
	<path fill="#231F20" d="M106.295,113.432c0.088-0.006,0.176-0.013,0.264-0.021c0.193-0.037,0.389-0.072,0.586-0.099
		c-0.129-0.467-0.23-0.933-0.3-1.404c-0.049,0.01-0.101,0.017-0.157,0.016c-0.305-0.007-0.605-0.055-0.906-0.092
		c0.068,0.552,0.178,1.097,0.322,1.641C106.162,113.452,106.225,113.438,106.295,113.432z"/>
	<path fill="#231F20" d="M116.684,122.09c-1.639-0.11-2.98-0.536-4.096-1.162c-0.238,0.245-0.473,0.494-0.611,0.803
		c-0.008,0.018-0.018,0.032-0.027,0.048c0.08,0.046,0.158,0.092,0.238,0.136c1.324,0.723,2.807,1.134,4.47,1.237
		C116.707,122.804,116.681,122.447,116.684,122.09z"/>
	<path fill="#231F20" d="M122.703,121.916c-0.008-0.021-0.014-0.043-0.021-0.065c-0.054-0.162-0.105-0.325-0.156-0.488
		c-0.233,0.071-0.466,0.137-0.697,0.193c-0.242,0.059-0.479,0.11-0.713,0.16c-0.004,0.039-0.011,0.079-0.023,0.122
		c-0.088,0.303-0.047,0.638-0.022,0.96c0.33-0.066,0.665-0.141,1.007-0.224c0.258-0.063,0.518-0.135,0.776-0.216
		C122.803,122.21,122.753,122.063,122.703,121.916z"/>
	<path fill="#231F20" d="M127.434,118.969c-1.147,0.72-2.52,1.478-3.672,1.948c0.018,0.059,0.034,0.116,0.053,0.175
		c0.04,0.076,0.066,0.159,0.08,0.248c0.063,0.192,0.127,0.385,0.191,0.576c1.292-0.521,2.749-1.324,4.02-2.134
		C127.909,119.679,127.517,119.095,127.434,118.969z"/>
	<path fill="#231F20" d="M111.421,120.143c-1.177-0.939-2.05-2.118-2.745-3.322c-0.324,0.128-0.669,0.254-0.936,0.457
		c-0.003,0.002-0.006,0.003-0.008,0.005c0.893,1.552,1.875,2.749,3.006,3.66C110.959,120.667,111.182,120.397,111.421,120.143z"/>
	<path fill="#231F20" d="M106.73,110.354c-0.002-0.324,0.008-0.65,0.034-0.983c-0.352-0.073-0.688-0.203-1.019-0.352
		c-0.045,0.488-0.066,0.966-0.061,1.437C106.035,110.422,106.381,110.368,106.73,110.354z"/>
	<path fill="#231F20" d="M128.25,99.093c-0.229-0.365-0.463-0.709-0.702-1.035c-0.28,0.208-0.567,0.408-0.853,0.61
		c0.223,0.304,0.445,0.629,0.664,0.98c0.605,0.97,1.102,1.931,1.5,2.905c0.318-0.15,0.647-0.278,0.985-0.375
		C129.422,101.146,128.895,100.125,128.25,99.093z"/>
	<path fill="#231F20" d="M130.586,116.074c0.074-0.457,0.145-0.904,0.207-1.342c-0.073,0.028-0.939,0.012-1.035-0.044
		c-0.008-0.001-0.014-0.003-0.021-0.003c-0.056,0.392-0.117,0.792-0.186,1.2C129.593,115.876,130.471,115.978,130.586,116.074z"/>
	<path fill="#231F20" d="M130.334,117.235c-0.02,0.008-1.043-0.136-1.05-0.136c-0.057,0.392-0.124,0.881-0.192,1.289
		c0.042-0.01,1.027,0.188,1.035,0.196c0.006-0.036,0.014-0.071,0.021-0.107c-0.001-0.005-0.001-0.01-0.003-0.015
		C130.213,118.045,130.276,117.636,130.334,117.235z"/>
	<path fill="#231F20" d="M123.213,134.846c-0.02-0.008-0.035-0.015-0.049-0.019c-0.086-0.01-0.072-0.023,0,0
		c0.007,0,0.016,0.001,0.023,0.001c-0.012-0.009-0.025-0.018-0.039-0.026c-0.139-0.038-0.268-0.115-0.362-0.221
		c-0.813,1.408-1.673,2.819-2.554,4.209c0.006,0.004,0.012,0.009,0.018,0.012c0.041,0.027,0.083,0.053,0.125,0.08
		c0.258,0.142,0.502,0.308,0.743,0.479c0.003,0.001,0.004,0.002,0.007,0.004c0.925-1.46,1.776-2.861,2.555-4.208
		C123.521,135.056,123.366,134.953,123.213,134.846z"/>
</g>
</svg>
